<svg width="21" height="25" viewBox="0 0 21 25" fill="none" xmlns="http://www.w3.org/2000/svg">
<path d="M15.0012 0C15.0594 0 15.1176 0 15.179 0C15.3218 1.76305 14.6488 3.0804 13.831 4.03438C13.0285 4.98178 11.9296 5.90063 10.1523 5.76121C10.0337 4.02341 10.7077 2.80376 11.5245 1.85197C12.282 0.964958 13.6707 0.175647 15.0012 0Z" fill="black"/>
<path d="M20.3816 18.3507C20.3816 18.3683 20.3816 18.3836 20.3816 18.4001C19.8821 19.9129 19.1696 21.2093 18.3002 22.4125C17.5065 23.5048 16.5338 24.9748 14.7971 24.9748C13.2964 24.9748 12.2997 24.0098 10.7616 23.9835C9.13472 23.9571 8.24002 24.7903 6.75251 25C6.58236 25 6.4122 25 6.24533 25C5.15303 24.8419 4.27151 23.9769 3.6293 23.1974C1.73561 20.8943 0.272252 17.9193 0 14.1121C0 13.7389 0 13.3667 0 12.9935C0.115268 10.2688 1.4392 8.05341 3.19896 6.97977C4.1277 6.40892 5.40443 5.9226 6.82607 6.13996C7.43534 6.23437 8.05779 6.44295 8.60339 6.64934C9.12045 6.84804 9.76705 7.20043 10.3796 7.18177C10.7946 7.16969 11.2074 6.95343 11.6256 6.80083C12.8507 6.35842 14.0517 5.85124 15.6347 6.08946C17.5372 6.37709 18.8875 7.22238 19.7218 8.52656C18.1125 9.5508 16.8401 11.0943 17.0575 13.7301C17.2507 16.1244 18.6427 17.5252 20.3816 18.3507Z" fill="black"/>
</svg>
