<svg width="70" height="78" viewBox="0 0 70 78" fill="none" xmlns="http://www.w3.org/2000/svg">
<path d="M35.2971 69.3258C53.1191 69.3258 67.5667 54.785 67.5667 36.848C67.5667 18.911 53.1191 4.37012 35.2971 4.37012C17.4752 4.37012 3.02762 18.911 3.02762 36.848C3.02762 54.785 17.4752 69.3258 35.2971 69.3258Z" fill="#B3F4F1"/>
<path d="M29.3982 63.9767C21.7429 58.2633 13.085 55.1477 3.56735 54.6816C3.59723 53.6692 3.61217 53.1647 3.64039 52.1523C13.6892 52.6351 22.86 55.9362 30.9353 61.9737C30.3195 62.7756 30.0124 63.1765 29.3982 63.9767Z" fill="#F4E1E1"/>
<path d="M4.71133 52.448C4.67647 53.1079 4.65987 53.437 4.62501 54.0969C4.61671 54.2589 4.87565 54.274 4.88561 54.1119C4.92379 53.452 4.94205 53.1229 4.98022 52.4631C4.99018 52.301 4.71962 52.286 4.71133 52.448Z" fill="#D3BABA"/>
<path d="M5.59589 52.4446C5.57099 52.7838 5.55937 52.9542 5.53613 53.2933C5.52949 53.3768 5.79341 53.3969 5.80005 53.3133C5.82661 52.9742 5.83989 52.8038 5.86479 52.4647C5.87143 52.3811 5.60253 52.3611 5.59589 52.4446Z" fill="#D3BABA"/>
<path d="M6.57208 52.585C6.51233 53.2432 6.48079 53.5723 6.42104 54.2289C6.4061 54.3909 6.66338 54.416 6.67998 54.2539C6.74471 53.5957 6.77625 53.2683 6.84098 52.6101C6.85758 52.448 6.58702 52.4213 6.57208 52.585Z" fill="#D3BABA"/>
<path d="M7.4533 52.615C7.41513 52.9541 7.39687 53.1229 7.35869 53.4603C7.34873 53.5439 7.61099 53.5739 7.62095 53.4904C7.66079 53.1529 7.6807 52.9825 7.71888 52.6451C7.73216 52.5632 7.46326 52.5315 7.4533 52.615Z" fill="#D3BABA"/>
<path d="M8.34947 52.7839C8.26316 53.4388 8.22166 53.7662 8.13535 54.4211C8.11377 54.5831 8.37105 54.6165 8.39263 54.4561C8.48226 53.8013 8.52708 53.4738 8.61671 52.8206C8.63829 52.6603 8.37105 52.6235 8.34947 52.7839Z" fill="#D3BABA"/>
<path d="M9.22771 52.849C9.17791 53.1865 9.15136 53.3535 9.10156 53.691C9.08994 53.7745 9.34888 53.8146 9.36216 53.7311C9.41528 53.3953 9.44017 53.2266 9.49329 52.8908C9.50657 52.8072 9.24099 52.7671 9.22771 52.849Z" fill="#D3BABA"/>
<path d="M10.187 53.0645C10.0758 53.716 10.0194 54.0418 9.90814 54.6917C9.87993 54.852 10.1339 54.8971 10.1638 54.7368C10.2783 54.0869 10.3364 53.7611 10.4509 53.1113C10.4791 52.9509 10.2136 52.9041 10.187 53.0645Z" fill="#D3BABA"/>
<path d="M11.0587 53.1647C10.9956 53.4988 10.9624 53.6658 10.8994 53.9999C10.8844 54.0818 11.1417 54.1336 11.1583 54.0501C11.2247 53.7159 11.2562 53.5489 11.3226 53.2148C11.3392 53.1346 11.0753 53.0828 11.0587 53.1647Z" fill="#D3BABA"/>
<path d="M11.945 53.4054C11.8089 54.0519 11.7409 54.3743 11.6048 55.0208C11.5716 55.1795 11.8222 55.2347 11.8571 55.076C11.9965 54.4311 12.0662 54.107 12.2073 53.4622C12.2422 53.3035 11.9782 53.245 11.945 53.4054Z" fill="#D3BABA"/>
<path d="M12.8131 53.5389C12.7368 53.8713 12.6986 54.0367 12.6222 54.3675C12.604 54.4493 12.8596 54.5095 12.8779 54.4276C12.9559 54.0968 12.9957 53.9314 13.0737 53.599C13.0936 53.5188 12.8314 53.457 12.8131 53.5389Z" fill="#D3BABA"/>
<path d="M13.7491 53.8278C13.5881 54.4677 13.5067 54.7884 13.3457 55.4282C13.3059 55.5853 13.5549 55.6504 13.5964 55.4934C13.7623 54.8536 13.8437 54.5345 14.0097 53.8946C14.0478 53.7376 13.7889 53.6691 13.7491 53.8278Z" fill="#D3BABA"/>
<path d="M14.6089 53.995C14.5193 54.3241 14.4744 54.4879 14.3848 54.8153C14.3632 54.8955 14.6155 54.9673 14.6388 54.8855C14.7301 54.558 14.7749 54.3943 14.8662 54.0652C14.8894 53.9867 14.6321 53.9148 14.6089 53.995Z" fill="#D3BABA"/>
<path d="M15.4639 54.3006C15.2779 54.9338 15.185 55.2512 14.9991 55.8843C14.9526 56.0397 15.1999 56.1149 15.2464 55.9579C15.4356 55.3247 15.5302 55.009 15.7195 54.3758C15.7659 54.2221 15.5087 54.1453 15.4639 54.3006Z" fill="#D3BABA"/>
<path d="M16.3171 54.5011C16.2159 54.8252 16.1644 54.9889 16.0632 55.313C16.0383 55.3932 16.2872 55.4734 16.3138 55.3932C16.4167 55.0691 16.4698 54.9071 16.5727 54.583C16.5976 54.5028 16.342 54.4209 16.3171 54.5011Z" fill="#D3BABA"/>
<path d="M17.2266 54.8619C17.0158 55.4884 16.9113 55.8008 16.7005 56.4256C16.649 56.5793 16.8914 56.6628 16.9445 56.5091C17.1586 55.8843 17.2648 55.5719 17.4789 54.9471C17.5321 54.7951 17.2781 54.7082 17.2266 54.8619Z" fill="#D3BABA"/>
<path d="M18.0713 55.0959C17.9568 55.4166 17.9004 55.577 17.7858 55.8977C17.7576 55.9763 18.0049 56.0665 18.0332 55.988C18.1493 55.6689 18.2074 55.5085 18.3236 55.1877C18.3502 55.1092 18.0996 55.0174 18.0713 55.0959Z" fill="#D3BABA"/>
<path d="M18.9846 55.5018C18.7489 56.1182 18.631 56.4273 18.397 57.0437C18.3389 57.1957 18.5779 57.2893 18.6377 57.1373C18.8767 56.5225 18.9962 56.2134 19.2352 55.5987C19.2933 55.4466 19.0427 55.3497 18.9846 55.5018Z" fill="#D3BABA"/>
<path d="M19.8194 55.7692C19.6916 56.085 19.6286 56.242 19.5024 56.5577C19.4709 56.6363 19.7132 56.7348 19.7464 56.658C19.8759 56.3439 19.9406 56.1852 20.0684 55.8711C20.0983 55.7943 19.851 55.6907 19.8194 55.7692Z" fill="#D3BABA"/>
<path d="M20.6975 56.2018C20.4386 56.8082 20.3091 57.1123 20.0485 57.7187C19.9855 57.8674 20.2212 57.9709 20.2859 57.8223C20.5481 57.2175 20.6793 56.9135 20.9432 56.3087C21.0079 56.16 20.7623 56.0531 20.6975 56.2018Z" fill="#D3BABA"/>
<path d="M21.5206 56.5043C21.3812 56.8151 21.3115 56.9704 21.172 57.2795C21.1372 57.3563 21.3762 57.4649 21.411 57.3897C21.5521 57.0807 21.6235 56.9253 21.7646 56.6163C21.7995 56.5394 21.5555 56.4275 21.5206 56.5043Z" fill="#D3BABA"/>
<path d="M22.3176 56.9403C22.0355 57.5367 21.8944 57.8357 21.6122 58.4321C21.5425 58.5791 21.7749 58.6911 21.8446 58.544C22.1301 57.9493 22.2728 57.652 22.5583 57.0572C22.6297 56.9102 22.3874 56.7933 22.3176 56.9403Z" fill="#D3BABA"/>
<path d="M23.1289 57.2726C22.9779 57.5767 22.9015 57.7304 22.7505 58.0344C22.714 58.1096 22.948 58.2282 22.9862 58.153C23.1389 57.849 23.2153 57.697 23.368 57.3929C23.4061 57.3194 23.1671 57.1975 23.1289 57.2726Z" fill="#D3BABA"/>
<path d="M23.974 57.7754C23.6686 58.3601 23.5159 58.6525 23.2105 59.2372C23.1358 59.3808 23.3632 59.5028 23.4396 59.3591C23.7483 58.7761 23.9027 58.4854 24.2114 57.9024C24.2861 57.757 24.0487 57.6301 23.974 57.7754Z" fill="#D3BABA"/>
<path d="M24.7742 58.1397C24.6115 58.4388 24.5302 58.5875 24.3659 58.8865C24.326 58.96 24.5551 59.0886 24.5966 59.0151C24.7609 58.7178 24.8439 58.5691 25.0083 58.2717C25.0481 58.1982 24.814 58.0662 24.7742 58.1397Z" fill="#D3BABA"/>
<path d="M25.5428 58.6441C25.2158 59.2172 25.0514 59.5028 24.7244 60.0758C24.6431 60.2162 24.8672 60.3465 24.9485 60.2061C25.2788 59.6348 25.4448 59.3508 25.7751 58.7795C25.8565 58.6391 25.6241 58.5038 25.5428 58.6441Z" fill="#D3BABA"/>
<path d="M26.3292 59.0419C26.1549 59.3342 26.0686 59.4796 25.8943 59.7719C25.8512 59.8438 26.0769 59.9807 26.1201 59.9089C26.296 59.6182 26.384 59.4729 26.5599 59.1822C26.6031 59.1104 26.3724 58.97 26.3292 59.0419Z" fill="#D3BABA"/>
<path d="M27.1345 59.6098C26.7843 60.1694 26.61 60.4484 26.2597 61.0064C26.1734 61.1434 26.3925 61.2837 26.4788 61.1467C26.8324 60.5904 27.0083 60.3114 27.3619 59.7551C27.4482 59.6165 27.2208 59.4711 27.1345 59.6098Z" fill="#D3BABA"/>
<path d="M27.9062 60.0391C27.7203 60.3231 27.6274 60.4668 27.4415 60.7508C27.395 60.8209 27.6158 60.9679 27.6622 60.8978C27.8498 60.6138 27.9428 60.4718 28.1303 60.1894C28.1768 60.1176 27.9511 59.9689 27.9062 60.0391Z" fill="#D3BABA"/>
<path d="M28.63 60.5988C28.2598 61.1434 28.0739 61.4157 27.7021 61.962C27.6108 62.0956 27.8233 62.2443 27.9162 62.1107C28.2897 61.5677 28.4773 61.2971 28.8507 60.7541C28.9437 60.6188 28.7213 60.4635 28.63 60.5988Z" fill="#D3BABA"/>
<path d="M29.3868 61.0583C29.191 61.3356 29.0914 61.4743 28.8955 61.7516C28.8474 61.8201 29.0615 61.9754 29.1113 61.907C29.3088 61.6313 29.4084 61.4927 29.6059 61.217C29.6541 61.1485 29.435 60.9898 29.3868 61.0583Z" fill="#D3BABA"/>
<path d="M30.1488 61.6913C29.757 62.2209 29.5595 62.4865 29.1678 63.0161C29.0715 63.1464 29.279 63.3034 29.3769 63.1731C29.772 62.6452 29.9695 62.3813 30.3646 61.855C30.4625 61.723 30.245 61.5593 30.1488 61.6913Z" fill="#D3BABA"/>
<path d="M22.7939 48.4537V49.2456L21.6037 50.0759L20.8585 49.8052L16.2291 43.0861L18.1645 41.7346L22.7939 48.4537Z" fill="#FF6489"/>
<path d="M15.678 37.9189L17.4491 40.49C17.4474 40.4916 17.4491 40.4916 17.4491 40.4916L18.2591 41.6677L16.1295 43.1546L13.5468 39.4074L15.678 37.9189Z" fill="#AAAAAA"/>
<path d="M13.0005 34.6562L13.3557 35.1725C13.3325 35.2176 13.2976 35.2543 13.2644 35.2894C13.2163 35.3429 13.1649 35.3963 13.1433 35.4732C13.1134 35.5868 13.1532 35.7288 13.1964 35.8591C13.213 35.9125 13.2313 35.9677 13.2279 36.0194C13.223 36.1097 13.1566 36.1631 13.0902 36.2015C13.0238 36.24 12.9491 36.2734 12.9159 36.3502C12.8843 36.4204 12.8976 36.5173 12.9192 36.6075C12.9408 36.6994 12.9707 36.7896 12.9723 36.8781C12.974 37.0018 12.9159 37.107 12.8196 37.1488C12.7532 37.1788 12.6702 37.1772 12.6055 37.2139C12.5623 37.2373 12.5324 37.2774 12.5142 37.3275L12.3532 37.0936L13.0005 34.6562Z" fill="#201D35"/>
<path d="M13.3574 35.1726L15.3891 38.1195L13.8188 39.2154L12.5175 37.3277C12.5357 37.2792 12.5673 37.2375 12.6088 37.2141C12.6719 37.1773 12.7548 37.179 12.8229 37.1489C12.9192 37.1071 12.9773 37.0019 12.9756 36.8783C12.9739 36.7897 12.9441 36.6979 12.9225 36.6076C12.9009 36.5174 12.8876 36.4222 12.9192 36.3504C12.9507 36.2735 13.0271 36.2401 13.0935 36.2017C13.1615 36.1649 13.2262 36.1098 13.2312 36.0196C13.2345 35.9678 13.2163 35.9127 13.1997 35.8592C13.1565 35.7289 13.115 35.5869 13.1466 35.4733C13.1682 35.3965 13.2196 35.3413 13.2677 35.2895C13.2993 35.2545 13.3341 35.2177 13.3574 35.1726Z" fill="#E2E2E2"/>
<path d="M22.7555 49.2731L21.633 50.0566L28.2301 59.63L29.3526 58.8464L22.7555 49.2731Z" fill="#AAAAAA"/>
<path d="M12.2171 36.7162C12.1109 36.4472 12.066 36.1549 12.0644 35.8625C12.0611 35.5702 12.1075 35.2778 12.1889 34.9955C12.2752 34.7148 12.3963 34.4459 12.5607 34.2036C12.7217 33.9614 12.9209 33.7425 13.1566 33.5771C13.0005 33.8194 12.8611 34.0599 12.7399 34.3072C12.6221 34.5561 12.5192 34.81 12.4428 35.0723C12.3615 35.3329 12.3084 35.6019 12.2702 35.8759C12.2337 36.1498 12.2187 36.4272 12.2171 36.7162Z" fill="#201D35"/>
<path d="M12.0512 36.6727C11.862 36.4004 11.7308 36.0863 11.6528 35.7589C11.5732 35.4315 11.5516 35.089 11.5815 34.7499C11.6147 34.4124 11.6993 34.08 11.8371 33.7726C11.9732 33.4652 12.1608 33.1812 12.3981 32.949C12.2504 33.2463 12.1259 33.542 12.0313 33.8461C11.9383 34.1501 11.8736 34.4609 11.8454 34.7749C11.8138 35.089 11.8221 35.4064 11.8553 35.7221C11.8919 36.0396 11.9599 36.3553 12.0512 36.6727Z" fill="#201D35"/>
<path d="M11.6878 36.6043C11.5219 36.4423 11.3957 36.2418 11.3044 36.0263C11.2131 35.8108 11.155 35.5802 11.1334 35.3447C11.1119 35.1108 11.1268 34.8719 11.1783 34.643C11.2297 34.4142 11.3177 34.1937 11.4521 34.0049C11.4206 34.2354 11.394 34.4543 11.3824 34.6714C11.3725 34.8886 11.3775 35.1058 11.3957 35.3196C11.4156 35.5335 11.4488 35.7473 11.4986 35.9595C11.5501 36.1733 11.6148 36.3838 11.6878 36.6043Z" fill="#201D35"/>
<path d="M11.5367 36.7378C11.4089 36.7094 11.2976 36.6442 11.198 36.564C11.1001 36.4822 11.0171 36.3836 10.9524 36.275C10.8877 36.1648 10.8412 36.0445 10.8163 35.9192C10.793 35.7939 10.7897 35.6636 10.8262 35.5366C10.8993 35.6452 10.954 35.7488 11.0121 35.8474L11.1798 36.138L11.3524 36.4254C11.4122 36.5239 11.4752 36.6208 11.5367 36.7378Z" fill="#201D35"/>
<path d="M14.1757 38.968C14.1674 39.0064 14.1591 39.0465 14.1508 39.085C14.1076 39.2904 14.0661 39.4943 14.0263 39.7014C14.0163 39.7432 14.008 39.7899 13.9981 39.8334C13.9865 39.8919 13.9748 39.952 13.9649 40.0121L13.8586 39.8568C13.862 39.8367 13.8669 39.8167 13.8703 39.7966H13.8719C13.8802 39.7515 13.8885 39.7081 13.8985 39.6663C13.9367 39.4709 13.9765 39.2771 14.018 39.0816L14.1757 38.968Z" fill="#969595"/>
<path d="M14.8945 38.4653C14.8762 38.5505 14.858 38.6357 14.8414 38.7226C14.8131 38.8613 14.7866 38.9982 14.7584 39.1369C14.7501 39.182 14.7418 39.2254 14.7335 39.2672C14.6953 39.4694 14.6604 39.6715 14.6256 39.8736C14.6173 39.9187 14.6106 39.9622 14.6023 40.0073C14.5658 40.2245 14.5326 40.4416 14.5011 40.6588C14.4944 40.6939 14.4895 40.729 14.4845 40.7641L14.3733 40.602C14.4048 40.3915 14.438 40.1794 14.4745 39.9672C14.4812 39.9238 14.4895 39.8803 14.4978 39.8352C14.5326 39.6314 14.5675 39.4293 14.6073 39.2254C14.6156 39.182 14.6239 39.1386 14.6322 39.0951C14.6654 38.9214 14.7019 38.7477 14.7368 38.5739L14.8945 38.4653Z" fill="#969595"/>
<path d="M15.6779 37.9189L15.721 37.9824C15.6945 38.1428 15.6663 38.3032 15.6414 38.4636C15.6364 38.492 15.6314 38.5204 15.6264 38.5488C15.6248 38.5655 15.6214 38.5805 15.6181 38.5955C15.5766 38.8545 15.5351 39.1117 15.4986 39.369C15.4903 39.4141 15.4853 39.4576 15.4787 39.501C15.4488 39.7031 15.4206 39.9053 15.394 40.1074C15.3874 40.1525 15.3824 40.1976 15.3758 40.2411C15.3476 40.4482 15.321 40.6554 15.2944 40.8625C15.2895 40.906 15.2828 40.9511 15.2778 40.9962C15.2563 41.1649 15.238 41.3353 15.2197 41.504C15.2131 41.5491 15.2098 41.5942 15.2048 41.6377C15.1982 41.6895 15.1915 41.7396 15.1882 41.7897L15.072 41.621C15.072 41.6143 15.0737 41.6076 15.0737 41.6009C15.077 41.5759 15.0787 41.5525 15.082 41.5291C15.0836 41.509 15.087 41.489 15.0886 41.4673C15.1069 41.3002 15.1268 41.1315 15.1484 40.9644C15.1534 40.921 15.1583 40.8742 15.165 40.8291C15.1915 40.6203 15.2164 40.4131 15.2463 40.2043C15.2513 40.1609 15.2579 40.1174 15.2646 40.0707C15.2911 39.8685 15.3193 39.6664 15.3509 39.4642C15.3559 39.4208 15.3625 39.374 15.3708 39.3306C15.409 39.0716 15.4488 38.8144 15.4903 38.5571C15.4969 38.5137 15.5036 38.4686 15.5119 38.4251C15.5351 38.2781 15.56 38.1294 15.5866 37.9824L15.6779 37.9189Z" fill="#969595"/>
<path d="M16.2356 38.7275L16.3418 38.8829C16.3219 38.9848 16.3036 39.0867 16.287 39.1886C16.2638 39.3239 16.2406 39.4593 16.219 39.5946C16.2107 39.6397 16.204 39.6831 16.1974 39.7265C16.1642 39.9287 16.1327 40.1292 16.1028 40.3313C16.0962 40.3747 16.0895 40.4198 16.0829 40.4633C16.0547 40.6587 16.0264 40.8559 15.9999 41.0513C15.9932 41.0964 15.9883 41.1399 15.9816 41.185C15.9584 41.3604 15.9351 41.5358 15.9152 41.7112C15.9086 41.7563 15.9036 41.7997 15.8986 41.8449C15.8737 42.0537 15.8488 42.2642 15.8289 42.4747C15.8223 42.5198 15.819 42.5649 15.8156 42.61C15.8123 42.6367 15.8073 42.6618 15.8073 42.6868L15.6911 42.5181C15.6928 42.493 15.6961 42.468 15.6994 42.4429C15.7077 42.3611 15.716 42.2792 15.726 42.199C15.7409 42.0687 15.7559 41.9367 15.7708 41.8081C15.7758 41.7647 15.7808 41.7196 15.7874 41.6745C15.809 41.5007 15.8306 41.3253 15.8538 41.1516C15.8605 41.1065 15.8654 41.063 15.8721 41.0196C15.8986 40.8208 15.9252 40.6237 15.9551 40.4265C15.9617 40.3814 15.9683 40.338 15.975 40.2945C16.0049 40.0941 16.0364 39.8919 16.0696 39.6898C16.0762 39.6464 16.0845 39.5996 16.0912 39.5561C16.1343 39.3039 16.1775 39.05 16.224 38.7994C16.2256 38.7726 16.2306 38.7493 16.2356 38.7275Z" fill="#969595"/>
<path d="M16.8167 39.5713L16.9279 39.7333C16.9246 39.7567 16.9212 39.7801 16.9196 39.8052C16.9129 39.8486 16.9063 39.8937 16.9013 39.9388C16.8731 40.146 16.8449 40.3515 16.8183 40.5569C16.8117 40.602 16.8067 40.6471 16.8001 40.6906C16.7752 40.8777 16.7519 41.0665 16.732 41.2536C16.7254 41.2987 16.7187 41.3421 16.7154 41.3855C16.6922 41.566 16.6723 41.7464 16.6523 41.9251C16.6457 41.9702 16.6407 42.0154 16.6374 42.0588C16.6125 42.2576 16.5909 42.4564 16.571 42.6552C16.566 42.6986 16.5611 42.7437 16.5577 42.7888C16.5544 42.8139 16.5511 42.839 16.5494 42.8623L16.405 42.9642C16.4117 42.8941 16.42 42.8256 16.4266 42.7571C16.4316 42.712 16.4366 42.6669 16.4415 42.6234C16.4482 42.5633 16.4548 42.5032 16.4598 42.4447C16.4764 42.3044 16.4897 42.164 16.5079 42.022C16.5113 41.9786 16.5162 41.9352 16.5245 41.8884C16.5428 41.7096 16.5644 41.5292 16.586 41.3521C16.5909 41.3087 16.5959 41.2636 16.6026 41.2202C16.6241 41.0314 16.649 40.8409 16.6739 40.6522C16.6772 40.6087 16.6839 40.5636 16.6905 40.5185C16.7171 40.313 16.7436 40.1075 16.7735 39.9021C16.7785 39.8586 16.7851 39.8135 16.7918 39.7684C16.7984 39.7016 16.8067 39.6364 16.8167 39.5713Z" fill="#969595"/>
<path d="M17.4508 40.4917L17.5637 40.6571C17.557 40.7022 17.5504 40.7473 17.5454 40.7907C17.5388 40.8358 17.5338 40.8793 17.5288 40.9244C17.5072 41.1065 17.4857 41.2869 17.4691 41.4657C17.4624 41.5108 17.4574 41.5559 17.4541 41.5976C17.4342 41.7814 17.4159 41.9635 17.3977 42.1439C17.3927 42.1907 17.3877 42.2341 17.3844 42.2776L17.2417 42.3778C17.245 42.331 17.25 42.2859 17.2549 42.2408C17.2583 42.1957 17.2632 42.1506 17.2682 42.1055C17.2848 41.9251 17.3014 41.7413 17.323 41.5609C17.328 41.5174 17.3329 41.4707 17.3379 41.4272C17.3578 41.2451 17.3778 41.0647 17.401 40.8826C17.406 40.8392 17.411 40.7941 17.4176 40.749C17.4276 40.6638 17.4375 40.5786 17.4508 40.4917Z" fill="#969595"/>
<path d="M16.7753 42.7035L16.6309 42.8054C16.606 42.8004 16.5827 42.7937 16.5595 42.787C16.5147 42.777 16.4715 42.7653 16.4284 42.7553C16.3935 42.7469 16.3603 42.7386 16.3255 42.7302C16.1562 42.6885 15.9869 42.6467 15.8159 42.6066C15.7927 42.5999 15.7661 42.5933 15.7412 42.5882L15.6267 42.4229C15.6499 42.4295 15.6731 42.4345 15.698 42.4396C15.7412 42.4496 15.7844 42.4613 15.8292 42.4713C16.0134 42.5164 16.196 42.5615 16.3802 42.6066C16.4018 42.6116 16.4217 42.6166 16.4417 42.6217C16.4848 42.6317 16.5296 42.6434 16.5728 42.6534C16.6392 42.6701 16.7072 42.6868 16.7753 42.7035Z" fill="#969595"/>
<path d="M17.5255 42.1806L17.386 42.2775C17.3429 42.2641 17.3014 42.2524 17.2566 42.239C17.0524 42.1789 16.8449 42.1188 16.6374 42.0586C16.5943 42.0452 16.5511 42.0319 16.5063 42.0202C16.3038 41.9617 16.1013 41.9016 15.8971 41.8414C15.854 41.8281 15.8125 41.8164 15.7677 41.803C15.5818 41.7479 15.3942 41.6928 15.2066 41.6393C15.1635 41.6276 15.1203 41.6142 15.0755 41.6025C15.0689 41.6009 15.0622 41.5975 15.0556 41.5959L14.9361 41.4221C14.9892 41.4372 15.0407 41.4522 15.0921 41.4672C15.1369 41.4806 15.1784 41.4923 15.2216 41.5056C15.2797 41.5224 15.3378 41.5391 15.3975 41.5574C15.527 41.5959 15.6565 41.6326 15.7843 41.671C15.8274 41.6827 15.8706 41.6961 15.9137 41.7095C16.1179 41.7679 16.3204 41.8281 16.5229 41.8882C16.5661 41.8999 16.6092 41.9133 16.6524 41.9266C16.8582 41.9868 17.064 42.0469 17.2699 42.1071C17.313 42.1204 17.3562 42.1321 17.3977 42.1455C17.4425 42.1555 17.484 42.1672 17.5255 42.1806Z" fill="#969595"/>
<path d="M18.2311 41.6879L18.0933 41.7831C18.0535 41.7697 18.0137 41.7597 17.9722 41.748C17.929 41.7347 17.8858 41.7213 17.8427 41.7079C17.8062 41.6979 17.7713 41.6879 17.7365 41.6762C17.6435 41.6495 17.5506 41.6211 17.4559 41.596C17.4128 41.5826 17.3696 41.5693 17.3248 41.5593C17.124 41.4991 16.9198 41.4423 16.7156 41.3838C16.6725 41.3721 16.6293 41.3588 16.5845 41.3488C16.3837 41.292 16.1828 41.2368 15.9803 41.1817C15.9372 41.1683 15.8957 41.1583 15.8508 41.1466C15.6616 41.0948 15.4724 41.0447 15.2798 40.9963C15.2384 40.9846 15.1952 40.9729 15.1504 40.9629C14.9379 40.9061 14.7238 40.8509 14.508 40.7991L14.3935 40.6321C14.43 40.6404 14.4649 40.6505 14.5014 40.6588C14.6989 40.7089 14.8964 40.7574 15.0923 40.8075C15.1172 40.8142 15.1437 40.8209 15.1686 40.8275C15.2118 40.8376 15.255 40.8493 15.2981 40.8626C15.4907 40.9127 15.6815 40.9629 15.8708 41.0146C15.9139 41.0247 15.9571 41.0364 15.9986 41.0481C16.2011 41.1015 16.4019 41.1583 16.6011 41.2151C16.6459 41.2268 16.6891 41.2385 16.7306 41.2519C16.9347 41.307 17.1372 41.3638 17.3381 41.4256C17.3846 41.4373 17.4277 41.449 17.4692 41.464C17.5987 41.4991 17.7265 41.5375 17.8526 41.576C17.8958 41.5877 17.9406 41.601 17.9838 41.6144C18.0668 41.6378 18.1498 41.6612 18.2311 41.6879Z" fill="#969595"/>
<path d="M17.6881 40.8342L17.8126 41.0146C17.7594 40.9962 17.7063 40.9795 17.6515 40.9628C17.6117 40.9494 17.5702 40.9361 17.5304 40.9227C17.4872 40.9093 17.4441 40.896 17.4009 40.8809C17.2017 40.8175 17.0009 40.7523 16.8 40.6888C16.7585 40.6738 16.7154 40.6621 16.6722 40.6471C16.4764 40.5836 16.2772 40.5218 16.0796 40.46C16.0382 40.4449 15.995 40.4332 15.9518 40.4199C15.7593 40.3597 15.5684 40.2996 15.3759 40.2411C15.3327 40.2277 15.2896 40.2144 15.2464 40.201C15.0306 40.1342 14.8165 40.0707 14.6007 40.0072C14.5575 39.9939 14.5144 39.9805 14.4729 39.9688C14.3152 39.922 14.1542 39.8753 13.9965 39.8301C13.9534 39.8168 13.9119 39.8051 13.8687 39.7917H13.867C13.8455 39.7834 13.8239 39.7784 13.8006 39.7717L13.6811 39.5996C13.7525 39.6197 13.8239 39.6397 13.8936 39.6598C13.9368 39.6731 13.9799 39.6848 14.0231 39.6965C14.1808 39.7433 14.3384 39.7884 14.4945 39.8352C14.5111 39.8385 14.5277 39.8435 14.5443 39.8485C14.5708 39.8569 14.5974 39.8636 14.6223 39.8719C14.8364 39.9354 15.0505 40.0005 15.263 40.0657C15.3061 40.0791 15.3476 40.0908 15.3908 40.1041C15.5833 40.1626 15.7759 40.2227 15.9684 40.2845C16.0116 40.2979 16.0531 40.3096 16.0962 40.3246C16.2938 40.3848 16.4896 40.4483 16.6855 40.5101C16.7287 40.5234 16.7718 40.5368 16.8133 40.5502C17.0142 40.6137 17.2133 40.6788 17.4125 40.7423C17.4557 40.7557 17.4988 40.769 17.542 40.7841C17.5934 40.8041 17.6416 40.8191 17.6881 40.8342Z" fill="#969595"/>
<path d="M16.9925 39.8269L17.112 40.0006C17.0406 39.9789 16.9692 39.9589 16.8995 39.9355C16.8564 39.9238 16.8132 39.9104 16.7717 39.897C16.5792 39.8402 16.3866 39.7818 16.1957 39.7233C16.1526 39.7099 16.1094 39.6966 16.0679 39.6849C15.8721 39.6247 15.6762 39.5629 15.4803 39.5028C15.4372 39.4894 15.394 39.4761 15.3525 39.4627C15.145 39.3975 14.9392 39.3341 14.7334 39.2672C14.6902 39.2539 14.6487 39.2422 14.6056 39.2271C14.4529 39.1787 14.3018 39.1302 14.1491 39.0818C14.1176 39.0718 14.0844 39.0618 14.0528 39.0501L14.189 38.9548C14.3035 38.9916 14.4197 39.03 14.5359 39.0651C14.5674 39.0751 14.5989 39.0835 14.6305 39.0952C14.672 39.1102 14.7151 39.1219 14.7583 39.1353C14.9624 39.2004 15.1666 39.2639 15.3724 39.3274C15.4139 39.3424 15.4587 39.3558 15.5002 39.3675C15.6961 39.4293 15.892 39.4894 16.0878 39.5479C16.1293 39.5629 16.1742 39.5746 16.2173 39.588C16.4082 39.6465 16.5974 39.7049 16.7883 39.7617C16.8298 39.7751 16.873 39.7885 16.9161 39.8001C16.9427 39.8118 16.9692 39.8202 16.9925 39.8269Z" fill="#969595"/>
<path opacity="0.13" d="M16.7685 43.3201C18.1694 45.4066 19.6102 47.4648 21.0891 49.4945C21.2402 49.7017 21.5622 49.4678 21.4111 49.259C19.9322 47.2292 18.4914 45.1694 17.0905 43.0845C16.9461 42.8707 16.6241 43.1062 16.7685 43.3201Z" fill="white"/>
<path d="M9.40949 42.6211L8.20738 44.0154L26.9928 60.4214L28.1949 59.0271L9.40949 42.6211Z" fill="#FF6489"/>
<path d="M6.26219 40.4897L5.66603 41.1812L6.34177 41.7713L6.93793 41.0798L6.26219 40.4897Z" fill="#201D35"/>
<path d="M9.40864 42.6249L8.20689 44.0182L6.33954 41.7729L6.93543 41.0813L9.40864 42.6249Z" fill="#E8AD92"/>
<path opacity="0.13" d="M8.80709 43.3201L8.27185 43.9409L27.0573 60.3469L27.5925 59.7261L8.80709 43.3201Z" fill="white"/>
<path d="M11.6778 31.0244C11.0006 31.432 10.5093 32.0785 10.1989 32.8019C10.0229 33.2095 9.89844 33.6372 9.80881 34.0715C9.73909 34.4107 9.7142 34.7765 9.61792 35.114C9.49509 34.9085 9.44198 34.6328 9.30919 34.4457C9.20462 34.2971 9.04859 34.1868 8.85936 34.2269C8.6718 34.267 8.53901 34.424 8.44772 34.5827C8.00951 35.3495 7.99457 36.2734 8.00785 37.1337C8.01449 37.5998 8.02943 38.0692 7.97797 38.532C7.9564 38.7241 7.94146 38.9613 7.84352 39.1334C7.81531 39.1835 7.79373 39.2253 7.74393 39.2136C7.67754 39.1986 7.60948 38.9981 7.5879 38.9413C7.4518 38.6005 7.40034 38.1912 7.12314 37.9256C6.98537 37.7936 6.79117 37.7735 6.63182 37.8771C6.45587 37.9907 6.36458 38.2163 6.28159 38.4C6.08074 38.8461 5.94463 39.3138 5.8799 39.8C5.8467 40.0539 5.8301 40.3078 5.83508 40.5651C5.84006 40.7639 5.81018 41.0696 6.01933 41.1749C6.08074 41.2049 6.16042 41.2166 6.22017 41.1749C6.22681 41.1698 6.23511 41.1648 6.24175 41.1598C6.3762 41.0663 6.34134 40.8909 6.24507 40.814C6.24341 40.7906 6.24175 40.7656 6.24009 40.7422C6.23843 40.7038 6.23511 40.6637 6.23511 40.6236C6.23179 40.525 6.23179 40.4264 6.23345 40.3295C6.23843 40.1124 6.26001 39.8935 6.29819 39.6797C6.3679 39.2904 6.48243 38.9079 6.65008 38.5504C6.68992 38.4668 6.72809 38.375 6.77955 38.2981C6.83764 38.2112 6.84262 38.1979 6.90736 38.2898C7.00529 38.4284 7.05509 38.5955 7.10654 38.7559C7.1995 39.0482 7.31403 39.5176 7.65264 39.6145C7.97133 39.7064 8.19542 39.3957 8.27509 39.1267C8.39128 38.7375 8.40622 38.3031 8.41286 37.8988C8.42614 37.0819 8.33153 36.2466 8.53569 35.4464C8.58715 35.2443 8.6552 35.0455 8.75147 34.86C8.77471 34.8133 8.8577 34.6212 8.93074 34.6212C8.98053 34.6212 9.04029 34.7665 9.05689 34.7999C9.21458 35.114 9.28263 35.4481 9.59469 35.6536C9.67768 35.7087 9.82375 35.677 9.8669 35.5817C10.0445 35.1925 10.0794 34.7732 10.1574 34.3572C10.2354 33.9379 10.3416 33.5219 10.4943 33.1243C10.7666 32.416 11.223 31.7644 11.8787 31.3702C12.0994 31.2382 11.8986 30.8924 11.6778 31.0244Z" fill="#201D35"/>
<path d="M52.9665 32.9824C52.578 33.7358 52.095 34.4491 51.456 35.0038C50.9647 35.4298 50.3754 35.7539 49.748 35.8992C49.4193 37.949 48.8135 39.9537 48.0234 41.8715C47.4258 43.3216 46.7204 44.7366 45.7759 45.9845C45.2066 46.7413 44.5526 47.4296 43.8505 48.0627C43.638 49.3858 43.2778 52.0755 43.5069 53.9165C43.7094 55.5453 44.3932 57.6603 45.4058 59.269C45.356 59.4027 45.0041 60.2764 44.1592 61.3071C42.7865 62.9794 40.1108 65.066 35.2955 65.066C30.4819 65.066 27.8045 62.9811 26.4335 61.3071C25.5853 60.2747 25.2367 59.3993 25.1869 59.269C25.1852 59.269 25.1852 59.269 25.1869 59.2674C26.1214 57.7772 26.7787 55.856 27.031 54.289C27.0509 54.1637 27.0692 54.0384 27.0841 53.9181C27.3132 52.0772 26.9547 49.3875 26.7422 48.0661C26.0384 47.4313 25.3877 46.743 24.8167 45.9862C23.8739 44.7366 23.1668 43.3216 22.5693 41.8732C21.7792 39.9554 21.1733 37.949 20.8463 35.9009C20.2172 35.7572 19.628 35.4314 19.1367 35.0054C18.4976 34.4508 18.0129 33.7375 17.6278 32.984C16.8626 31.4955 16.4543 29.7915 16.6635 28.1293C16.705 27.8035 16.7797 27.4661 16.9075 27.1587C17.0817 26.731 17.354 26.3618 17.7656 26.163C17.9499 26.0745 18.1474 26.0277 18.3499 26.0194C18.4511 26.0143 18.5524 26.0177 18.6553 26.0294C18.9076 26.0611 19.1599 26.1413 19.3906 26.2583C19.5267 24.444 20.6306 22.7851 22.0697 21.6725C23.5635 20.5198 25.3894 19.8866 27.2202 19.4423C29.0511 18.9996 30.9217 18.7272 32.731 18.1993C35.6773 17.339 38.4227 15.7954 40.6967 13.7255C41.593 12.9086 42.4279 11.9931 42.9442 10.8939C43.0471 10.675 43.1367 10.4495 43.2114 10.2173C44.8032 11.1695 46.1444 12.5277 47.215 14.053C48.3952 15.7319 49.2616 17.6163 49.9787 19.5425C50.7837 21.7009 51.4112 24.0263 51.1423 26.2917C51.5439 26.0745 52.017 25.9626 52.4552 26.0411C52.5847 26.0645 52.7108 26.1046 52.832 26.1614C53.5358 26.5005 53.8362 27.3475 53.9342 28.1276C54.1383 29.7899 53.73 31.4939 52.9665 32.9824Z" fill="#FFB8AE"/>
<path d="M52.4503 26.041C52.0121 25.9641 51.539 26.0744 51.1373 26.2916C51.4062 24.0263 50.7788 21.7008 49.9737 19.5424C49.2567 17.6162 48.3902 15.7318 47.2101 14.0529C46.1394 12.5276 44.7983 11.1694 43.2065 10.2172C43.1318 10.4477 43.0438 10.6733 42.9392 10.8938C42.423 11.993 41.5881 12.9102 40.6918 13.7254C38.4177 15.7969 35.6723 17.3389 32.726 18.1992C30.9184 18.7272 29.0461 18.9978 27.2153 19.4422C25.3844 19.8849 23.5602 20.5197 22.0647 21.6724C20.6256 22.7833 19.5218 24.4439 19.3857 26.2582C19.155 26.1412 18.9027 26.061 18.6504 26.0293C18.5474 26.0176 18.4462 26.0126 18.3449 26.0193C18.1424 26.0276 17.9449 26.0744 17.7607 26.1629C17.3507 26.3601 17.0768 26.7309 16.9025 27.1586C15.553 22.5829 16.222 17.5694 17.7358 13.0221C18.3881 11.0642 19.1998 9.143 20.3833 7.45738C23.2565 3.37447 28.1066 1.04567 33.0165 0.262167C34.8756 -0.0351971 36.7911 -0.132091 38.6368 0.252144C40.3747 0.61299 42.0528 1.42991 43.2596 2.73296C44.0978 2.05136 45.3809 2.11151 46.332 2.64275C47.3163 3.19572 48.0051 4.15296 48.5828 5.12691C51.5639 10.1454 52.344 16.1678 52.5515 22.0115C52.603 23.3547 52.6229 24.7095 52.4503 26.041Z" fill="#201D35"/>
<path d="M42.3999 4.64087C42.4563 6.73077 41.4239 8.75385 39.92 10.1956C38.4145 11.6373 36.4774 12.5478 34.4856 13.1475C32.4954 13.7472 30.4339 14.058 28.3939 14.4522C27.2137 14.6794 26.0319 14.9384 24.9214 15.3961C22.82 16.2665 21.0241 17.8619 19.9086 19.8549C18.8662 21.7143 18.423 23.9061 18.6538 26.0277C18.5509 26.016 18.4496 26.011 18.3484 26.0177C17.2047 23.2228 17.3558 19.9317 18.6455 17.1953C20.0281 14.2584 22.6524 11.9798 25.6817 10.8554C30.1467 9.19489 35.3404 9.92827 39.5382 7.66797C40.7798 6.99807 41.9434 6.00073 42.3401 4.64254H42.3999V4.64087Z" fill="#2D2A49"/>
<path d="M29.813 36.7627C30.4404 38.9862 29.2901 41.2666 27.2419 41.8513C25.1919 42.4377 23.0241 41.1096 22.395 38.886C21.7676 36.6625 22.9179 34.3821 24.9678 33.7974C27.0161 33.211 29.1856 34.5375 29.813 36.7627Z" fill="#F9A49B"/>
<path d="M45.9005 33.7974C47.9487 34.3821 49.099 36.6625 48.4716 38.886C47.8442 41.1096 45.6731 42.4377 43.6248 41.8513C41.5748 41.2666 40.4245 38.9862 41.0536 36.7627C41.6811 34.5375 43.8522 33.211 45.9005 33.7974Z" fill="#F9A49B"/>
<path d="M36.1768 34.768C36.62 35.9424 38.3944 39.6411 35.297 39.9201C32.1981 39.6428 33.9725 35.9424 34.414 34.768C34.6547 34.1315 35.0198 33.8776 35.297 33.7773C35.5726 33.8776 35.9361 34.1298 36.1768 34.768Z" fill="#F9A49B"/>
<path d="M35.2954 52.2476C37.9578 51.9836 40.4875 50.7156 42.632 49.0735C43.0503 48.7527 43.4587 48.4169 43.8504 48.0627C39.5032 57.2409 27.0309 54.289 27.0309 54.289C27.0508 54.1637 27.0691 54.0384 27.084 53.9181C27.3131 52.0772 26.9546 49.3875 26.7421 48.0661C27.1338 48.4186 27.5422 48.7544 27.9605 49.0751C30.105 50.714 32.633 51.9853 35.2954 52.2476Z" fill="#EA918B"/>
<path d="M38.391 38.6855C38.1038 38.6755 37.825 38.749 37.6424 38.9127C37.5527 38.9929 37.4631 39.1032 37.3652 39.2118C37.2673 39.322 37.156 39.429 37.0349 39.5242C36.7925 39.7213 36.4987 39.8566 36.2016 39.9418C35.9028 40.0254 35.5974 40.0538 35.297 40.0588L34.9003 40.0354C34.731 40.0187 34.5617 39.9869 34.394 39.9402C34.0969 39.8566 33.8031 39.723 33.5608 39.5242C33.4379 39.429 33.3284 39.3204 33.2304 39.2118C33.1325 39.1032 33.0429 38.9929 32.9533 38.9127C32.7707 38.749 32.4935 38.6739 32.2047 38.6855C32.4669 38.5603 32.7989 38.5419 33.096 38.6939C33.2421 38.7758 33.3516 38.871 33.4645 38.9528C33.5757 39.0364 33.6836 39.1149 33.7965 39.1784C34.243 39.444 34.7642 39.5175 35.2986 39.5225H35.3982C35.8979 39.5108 36.3825 39.4306 36.8008 39.18C36.9137 39.1166 37.0216 39.0364 37.1328 38.9545C37.2457 38.8727 37.3552 38.7774 37.5013 38.6956C37.7967 38.5452 38.1304 38.5619 38.391 38.6855Z" fill="#CC553E"/>
<path d="M40.6022 42.812C40.5939 42.8354 40.5856 42.8571 40.5789 42.8788C40.5789 42.8805 40.5789 42.8805 40.5789 42.8805C39.6428 43.6473 38.5539 44.2237 37.3953 44.5628C35.6491 45.0723 33.7469 45.0339 32.0206 44.4525C31.9542 44.4291 31.8878 44.4074 31.8214 44.3824C31.6588 44.3222 31.4994 44.2537 31.3467 44.1719C31.9576 44.1585 32.5103 43.7576 33.0863 43.522C33.4614 43.3683 33.8714 43.2831 34.2747 43.3316C34.6764 43.3817 35.0682 43.5805 35.3055 43.9113C35.3354 43.6607 35.5611 43.4836 35.7819 43.3633C36.2367 43.1161 36.7529 42.9841 37.2708 42.9807C37.8518 42.9774 38.4261 43.1378 39.0087 43.1511C39.5548 43.1662 40.1042 43.0459 40.6022 42.812Z" fill="#EA918B"/>
<path d="M40.5771 42.8806C40.2866 43.7092 39.8915 44.5061 39.3338 45.1793C38.7396 45.896 37.9462 46.4707 37.0465 46.7029C36.5419 46.8332 36.0157 46.8533 35.4962 46.8199C34.7177 46.7697 33.9359 46.5893 33.2603 46.1951C32.5864 45.8008 32.0254 45.176 31.8046 44.4242L31.8196 44.3841C31.886 44.4092 31.9524 44.4326 32.0188 44.4543C33.745 45.0357 35.6472 45.0741 37.3934 44.5646C38.5537 44.2238 39.6409 43.6474 40.5771 42.8806Z" fill="#EA918B"/>
<path d="M30.6495 43.9681C31.6139 44.3038 32.5899 44.5477 33.5808 44.6597C33.8281 44.6914 34.0771 44.7048 34.3244 44.7248C34.5734 44.7332 34.8207 44.7465 35.068 44.7399C35.5627 44.7349 36.059 44.7115 36.5487 44.6363C37.04 44.5728 37.5247 44.4759 38.0027 44.3473C38.4824 44.2237 38.9438 44.0566 39.3737 43.8327C39.802 43.6072 40.1771 43.2965 40.5091 42.9223C40.8444 42.5531 41.1332 42.1304 41.4386 41.7178C41.2361 42.1889 41.0071 42.65 40.7149 43.0843C40.5672 43.2998 40.3995 43.5036 40.212 43.6941C40.0244 43.8845 39.8086 44.0482 39.5846 44.1919C39.1364 44.4843 38.6384 44.6747 38.1438 44.8317C37.6458 44.9821 37.1346 45.089 36.62 45.1642C35.5876 45.2945 34.5352 45.2745 33.5194 45.0673C32.5019 44.8752 31.5209 44.5043 30.6495 43.9681Z" fill="#CC553E"/>
<path d="M23.318 29.6111C23.3097 29.9652 23.4342 30.3227 23.6616 30.595C24.0915 30.0655 24.9115 29.6395 25.8825 29.4273C26.905 29.2034 28.0819 29.2201 29.0944 29.4574C30.0322 29.6779 30.8223 30.0822 31.3169 30.5817C30.9949 30.0721 30.4654 29.7213 29.9193 29.4624C28.7026 28.886 27.3266 28.6755 25.9838 28.7641C25.0426 28.8242 24.0749 29.0464 23.318 29.6111Z" fill="#201D35"/>
<path d="M30.2214 28.7659C30.3874 29.0298 30.5285 29.3255 30.5899 29.6713C29.8396 28.679 28.8869 27.9306 27.8096 27.4812C27.1921 27.2222 26.5215 27.0619 25.8111 27.1588C25.1024 27.254 24.3438 27.6332 23.7628 28.3131L23.7496 28.3031C24.1745 27.6232 24.7471 27.0652 25.3613 26.7361C25.8244 26.5373 27.3017 26.4705 28.042 26.8931C28.8669 27.3576 29.677 27.8972 30.2214 28.7659Z" fill="#EA918B"/>
<path d="M26.7027 28.908C26.5119 28.8846 26.316 28.7944 26.1251 28.6791C25.9342 28.5622 25.7483 28.4302 25.5724 28.2849C25.2221 27.9942 24.9084 27.6484 24.6495 27.2625C24.852 27.6834 25.1159 28.0777 25.4346 28.4302C25.594 28.6056 25.7666 28.771 25.9525 28.9247C26.1384 29.0767 26.3542 29.2237 26.6181 29.2989L26.7027 28.908Z" fill="#201D35"/>
<path d="M26.0786 28.9078C25.1856 28.7808 24.3175 28.2914 23.7216 27.5413C24.2079 28.3665 25.0279 29.0164 25.9939 29.2987L26.0786 28.9078Z" fill="#201D35"/>
<path d="M25.1506 28.9545C25.0377 29.0164 24.8385 28.9913 24.636 28.9412C24.4318 28.8961 24.231 28.8393 24.0351 28.7691C23.6434 28.6288 23.2666 28.4266 22.9595 28.1243C23.2152 28.4701 23.5704 28.7441 23.9538 28.9512C24.1463 29.0565 24.3455 29.1467 24.548 29.2269C24.6476 29.2669 24.7539 29.3087 24.875 29.3354C24.9945 29.3622 25.1373 29.3722 25.2817 29.3304L25.1506 28.9545Z" fill="#201D35"/>
<path d="M24.5017 29.3504C24.1315 29.3488 23.7663 29.3287 23.4095 29.2452C23.2319 29.2051 23.0576 29.1466 22.8899 29.0681C22.7239 28.9879 22.5546 28.8994 22.4484 28.739C22.5247 28.9161 22.6858 29.0431 22.8385 29.1533C22.9962 29.2636 23.1671 29.3588 23.3464 29.434C23.7049 29.5877 24.0867 29.6779 24.4635 29.7464L24.5017 29.3504Z" fill="#201D35"/>
<path d="M27.0826 28.8227C26.9265 28.7208 26.7788 28.6105 26.6477 28.4819C26.5166 28.3532 26.4004 28.2029 26.3224 28.0225C26.334 28.2179 26.3971 28.415 26.485 28.5971C26.573 28.7809 26.6875 28.953 26.8104 29.1134L27.0826 28.8227Z" fill="#201D35"/>
<path d="M29.4529 29.5544C29.9575 29.6697 30.4687 29.5344 30.8223 29.2454C30.4007 29.4191 29.8861 29.4993 29.5458 29.3005L29.4529 29.5544Z" fill="#201D35"/>
<path d="M32.5667 25.4364C32.5966 25.7872 32.5966 26.1413 32.5617 26.4938C32.5551 26.5573 32.5451 26.6241 32.4987 26.6676C32.4339 26.726 32.3343 26.7077 32.2497 26.686C30.7027 26.2833 29.1374 25.9626 27.5589 25.7204C26.6775 25.5834 25.7878 25.4748 24.8965 25.4631C24.4466 25.4581 23.9885 25.4798 23.5619 25.6268C23.0357 25.8089 22.5926 26.1697 22.171 26.5423C22.6988 25.7053 23.454 24.9936 24.3852 24.6863C25.001 24.4824 25.6617 24.4674 26.3107 24.4741C27.1755 24.4841 28.0403 24.5309 28.8984 24.6311C29.5673 24.708 30.2396 24.8182 30.867 25.0638C30.8405 24.9469 30.8587 24.8216 30.9185 24.7197C31.111 24.84 31.277 25.0053 31.3982 25.1991C31.3816 25.1156 31.3683 25.0287 31.3899 24.9485C31.4131 24.8684 31.4878 24.7948 31.5725 24.8049C31.6372 24.8132 31.687 24.865 31.7285 24.9168C31.8447 25.0655 31.9376 25.2342 32.0007 25.413C32.1235 25.2944 32.248 25.1741 32.3725 25.0555C32.5103 25.1056 32.5518 25.286 32.5667 25.4364Z" fill="#201D35"/>
<path d="M46.5976 24.2484C48.2442 24.5808 50.1381 27.0199 50.1962 27.0967C50.1281 27.0549 47.9753 25.6884 46.5976 25.4913C45.1983 25.2908 38.8609 26.9781 38.8609 26.9781C38.6319 26.1896 38.7331 24.8113 38.7331 24.8113C38.7331 24.8113 44.9244 23.9092 46.5976 24.2484Z" fill="#201D35"/>
<path d="M41.1096 27.5762C40.3859 28.0757 39.8182 28.7973 39.4962 29.6193C39.9942 28.8107 40.7378 28.1558 41.6092 27.7883C42.6218 27.3606 43.7986 27.3322 44.8211 27.7332C45.7523 28.099 46.544 28.8207 46.9872 29.7229C46.7781 29.1749 46.5308 28.6403 46.1855 28.1692C45.7971 27.6396 45.2809 27.1919 44.6634 26.9764C44.3696 26.8745 44.0592 26.8261 43.7488 26.8127C42.8176 26.7726 41.8765 27.0466 41.1096 27.5762Z" fill="#EA918B"/>
<path d="M47.6232 27.3022C47.5419 27.4894 47.3742 27.6046 47.2016 27.6848C47.0273 27.765 46.8381 27.8235 46.6522 27.8719C46.2787 27.9655 45.8919 27.9922 45.5334 27.927L45.5002 28.3263C45.9301 28.328 46.3434 28.2244 46.7169 28.0607C46.9045 27.9772 47.0837 27.8853 47.253 27.77C47.4174 27.6581 47.5751 27.501 47.6232 27.3022Z" fill="#201D35"/>
<path d="M48.2722 28.3414C47.8788 28.5535 47.4257 28.5819 47.0074 28.5101C46.5841 28.4366 46.1874 28.2662 45.794 28.0791L45.6513 28.4533C46.0795 28.5819 46.5294 28.7006 46.9891 28.7089C47.4456 28.7206 47.9154 28.612 48.2722 28.3414Z" fill="#201D35"/>
<path d="M48.224 29.1415C47.8954 29.2367 47.5518 29.1999 47.2464 29.093C46.9376 28.9861 46.6604 28.8107 46.3915 28.6152L46.1924 28.961C46.5094 29.1081 46.848 29.2384 47.2016 29.2868C47.5518 29.3386 47.9203 29.3018 48.224 29.1415Z" fill="#201D35"/>
<path d="M41.3852 27.8134C41.0018 27.9487 40.5204 27.912 40.1204 27.6714C40.4374 28.0155 40.9288 28.231 41.4533 28.2076L41.3852 27.8134Z" fill="#201D35"/>
<path d="M45.3341 28.1843C46.0246 27.9471 46.5425 27.3774 46.7267 26.7375C46.4196 27.3289 45.832 27.7215 45.2411 27.795L45.3341 28.1843Z" fill="#201D35"/>
<path d="M43.4765 31.1129C44.4813 31.1129 45.2958 30.2931 45.2958 29.2819C45.2958 28.2707 44.4813 27.4509 43.4765 27.4509C42.4718 27.4509 41.6573 28.2707 41.6573 29.2819C41.6573 30.2931 42.4718 31.1129 43.4765 31.1129Z" fill="#201D35"/>
<path d="M46.33 30.5148C46.4811 30.4563 46.6288 30.3878 46.7716 30.306C46.8429 30.2659 46.9127 30.2208 46.9824 30.1707C47.0521 30.1189 47.1201 30.0654 47.1799 29.9785L47.2081 29.9368L47.1849 29.8733C47.0421 29.469 46.8346 29.1065 46.5807 28.7657C46.3267 28.4282 46.0196 28.1242 45.6678 27.8769C45.3159 27.6314 44.9275 27.4225 44.5092 27.3073L44.3531 27.2588C44.3017 27.2438 44.2469 27.2371 44.1955 27.2254L43.8768 27.1636C43.7705 27.1486 43.6626 27.1452 43.5547 27.1352C43.4468 27.1302 43.3406 27.1118 43.2327 27.1218C42.3713 27.1269 41.4982 27.3941 40.8093 27.9037C40.4641 28.1543 40.1537 28.4483 39.8947 28.7791C39.6341 29.1082 39.4167 29.4623 39.2557 29.8533L39.2275 29.9201L39.2706 29.9552C39.3652 30.0337 39.4582 30.1022 39.5594 30.1673C39.6607 30.2291 39.7636 30.2876 39.8732 30.3294C39.7835 30.2542 39.6989 30.1757 39.6225 30.0905C39.5445 30.0069 39.4698 29.9201 39.4034 29.8315L39.4183 29.9351C39.8732 29.2953 40.4574 28.7473 41.1081 28.3698C41.7571 27.9805 42.4924 27.7968 43.2327 27.7901C43.3257 27.7817 43.4186 27.7984 43.5099 27.8018C43.6029 27.8085 43.6958 27.8101 43.7871 27.8218L44.061 27.8686C44.1058 27.8769 44.1523 27.882 44.1971 27.892L44.3299 27.9304C44.6901 28.0156 45.0287 28.1726 45.3524 28.3597C45.6744 28.5485 45.9748 28.7857 46.2454 29.058C46.3134 29.1265 46.3782 29.1967 46.4446 29.2669C46.506 29.3404 46.5707 29.4139 46.6305 29.4907C46.7483 29.6428 46.8678 29.8048 46.9625 29.9668L46.9691 29.8616C46.9492 29.9134 46.901 29.9752 46.8529 30.032C46.8031 30.0905 46.7483 30.1456 46.6902 30.2007C46.579 30.3076 46.4562 30.4129 46.33 30.5148Z" fill="#201D35"/>
<path d="M42.9852 29.2369C43.3198 29.2369 43.5911 28.9639 43.5911 28.6271C43.5911 28.2903 43.3198 28.0173 42.9852 28.0173C42.6506 28.0173 42.3794 28.2903 42.3794 28.6271C42.3794 28.9639 42.6506 29.2369 42.9852 29.2369Z" fill="white"/>
<path d="M70 77.9528H0C0 77.9528 3.64507 62.7271 9.58076 61.8717C15.5165 61.018 22.7717 61.9903 25.1802 59.2539C25.1802 59.2539 25.1819 59.2589 25.1869 59.2689C25.1852 59.2706 25.1852 59.2706 25.1869 59.2706C25.2367 59.4009 25.5852 60.2763 26.4334 61.3087C27.8045 62.981 30.4802 65.0675 35.2955 65.0675C40.1091 65.0675 42.7864 62.9827 44.1592 61.3087C45.004 60.278 45.3559 59.4043 45.4057 59.2706C45.409 59.2606 45.4124 59.2539 45.4124 59.2539C47.8208 61.992 55.0761 61.018 61.0118 61.8717C66.9475 62.7271 70 77.9528 70 77.9528Z" fill="#FF6489"/>
<path d="M21.0337 28.4886C21.0238 28.4886 21.0155 28.4869 21.0055 28.4819C20.9756 28.4685 20.959 28.4335 20.969 28.4017C20.969 28.4017 20.9972 28.3065 21.0536 28.1461C21.0653 28.111 21.1034 28.0927 21.1383 28.1043C21.1532 28.1094 21.1665 28.1211 21.1732 28.1327C21.1898 28.1311 21.2047 28.1344 21.2196 28.1444C21.2495 28.1662 21.2561 28.2079 21.2362 28.238C21.1416 28.3716 21.0902 28.4552 21.0902 28.4552C21.0769 28.4769 21.0553 28.4886 21.0337 28.4886Z" fill="#FF6489"/>
<path d="M21.3061 27.7251C21.2978 27.7251 21.2895 27.7234 21.2812 27.7201C21.2463 27.7067 21.2297 27.6683 21.2446 27.6332C21.3127 27.4628 21.3824 27.2924 21.4555 27.127C21.4704 27.0936 21.5102 27.0786 21.5434 27.0936C21.5766 27.1086 21.5916 27.1487 21.5766 27.1822C21.5052 27.3459 21.4339 27.5129 21.3675 27.6817C21.3575 27.7084 21.3326 27.7251 21.3061 27.7251ZM21.7476 26.7294C21.7376 26.7294 21.7277 26.7278 21.7177 26.7227C21.6845 26.706 21.6712 26.6659 21.6878 26.6325C21.7708 26.4638 21.8571 26.3018 21.9435 26.1481C21.9617 26.1163 22.0015 26.1046 22.0347 26.123C22.0663 26.1414 22.0779 26.1815 22.0596 26.2149C21.975 26.3669 21.8887 26.5273 21.8073 26.6927C21.7957 26.7161 21.7708 26.7294 21.7476 26.7294ZM22.2837 25.7822C22.2704 25.7822 22.2588 25.7789 22.2472 25.7705C22.2157 25.7505 22.2074 25.7087 22.229 25.6786C22.3335 25.5182 22.4414 25.3679 22.5476 25.2309C22.5709 25.2025 22.6124 25.1975 22.6406 25.2192C22.6688 25.2426 22.6738 25.2844 22.6522 25.3128C22.5476 25.4464 22.4414 25.5951 22.3402 25.7505C22.3269 25.7705 22.3053 25.7822 22.2837 25.7822ZM22.9576 24.9302C22.941 24.9302 22.9244 24.9235 22.9112 24.9102C22.8846 24.8834 22.8846 24.8417 22.9112 24.8149C23.0489 24.6763 23.19 24.5543 23.3311 24.4541C23.361 24.4324 23.4025 24.439 23.4241 24.4691C23.4456 24.4992 23.439 24.541 23.4091 24.5627C23.2747 24.6596 23.1386 24.7748 23.0074 24.9102C22.9925 24.9235 22.9742 24.9302 22.9576 24.9302ZM31.896 24.7615C31.8911 24.7615 31.8861 24.7615 31.8828 24.7598C31.7217 24.7247 31.5441 24.6896 31.3533 24.6529C31.3167 24.6462 31.2935 24.6111 31.3001 24.5744C31.3068 24.5376 31.3416 24.5142 31.3781 24.5209C31.5707 24.5577 31.75 24.5944 31.911 24.6295C31.9475 24.6378 31.9691 24.6729 31.9624 24.7097C31.9541 24.7398 31.9276 24.7615 31.896 24.7615ZM30.8321 24.556C30.8287 24.556 30.8238 24.556 30.8204 24.5543C30.6495 24.5242 30.4702 24.4958 30.286 24.4658C30.2494 24.4608 30.2245 24.4257 30.2312 24.3889C30.2362 24.3522 30.271 24.3288 30.3075 24.3338C30.4918 24.3622 30.671 24.3923 30.8437 24.4223C30.8802 24.429 30.9034 24.4624 30.8984 24.4992C30.8918 24.5343 30.8636 24.556 30.8321 24.556ZM29.7614 24.3889C29.7581 24.3889 29.7548 24.3889 29.7515 24.3889C29.5755 24.3639 29.3963 24.3388 29.2153 24.3154C29.1788 24.3104 29.1539 24.277 29.1572 24.2402C29.1622 24.2035 29.1954 24.1784 29.2319 24.1818C29.4145 24.2052 29.5938 24.2302 29.7697 24.2553C29.8063 24.2603 29.8312 24.2937 29.8262 24.3305C29.8212 24.3639 29.793 24.3889 29.7614 24.3889ZM23.8423 24.3154C23.8158 24.3154 23.7909 24.2987 23.7809 24.272C23.7677 24.2369 23.7859 24.1985 23.8191 24.1851C23.9668 24.1283 24.1478 24.0799 24.3536 24.0431C24.3884 24.0364 24.425 24.0598 24.4316 24.0966C24.4382 24.1333 24.415 24.1684 24.3785 24.1734C24.181 24.2102 24.0083 24.2553 23.8672 24.3087C23.8573 24.3138 23.8506 24.3154 23.8423 24.3154ZM28.6858 24.2503C28.6825 24.2503 28.6809 24.2503 28.6775 24.2503C28.4983 24.2302 28.319 24.2102 28.1397 24.1935C28.1032 24.1901 28.0767 24.1567 28.08 24.12C28.0833 24.0832 28.1165 24.0582 28.153 24.0598C28.334 24.0782 28.5132 24.0966 28.6925 24.1166C28.729 24.12 28.7556 24.1534 28.7506 24.1901C28.7473 24.2252 28.719 24.2503 28.6858 24.2503ZM27.6069 24.1434C27.6053 24.1434 27.6036 24.1434 27.6019 24.1434C27.421 24.1283 27.2418 24.1166 27.0625 24.1049C27.026 24.1033 26.9978 24.0715 27.0011 24.0348C27.0027 23.998 27.0326 23.9696 27.0708 23.973C27.2501 23.9846 27.431 23.9963 27.6119 24.0114C27.6484 24.0147 27.675 24.0465 27.6733 24.0832C27.67 24.1183 27.6418 24.1434 27.6069 24.1434ZM24.9013 24.1049C24.8681 24.1049 24.8383 24.0782 24.8349 24.0448C24.8316 24.008 24.8582 23.9763 24.8947 23.973C25.064 23.9579 25.2466 23.9462 25.4391 23.9412H25.4408C25.4757 23.9412 25.5055 23.9696 25.5072 24.0064C25.5089 24.0431 25.479 24.0749 25.4425 24.0749C25.2532 24.0815 25.0723 24.0916 24.9063 24.1066C24.9063 24.1049 24.9047 24.1049 24.9013 24.1049ZM26.5264 24.0782H26.5247C26.3404 24.0715 26.1612 24.0665 25.9852 24.0665C25.9487 24.0665 25.9188 24.0364 25.9188 23.9997C25.9188 23.9629 25.9487 23.9329 25.9852 23.9329C26.1628 23.9345 26.3438 23.9379 26.5297 23.9446C26.5662 23.9462 26.5944 23.9763 26.5944 24.013C26.5911 24.0515 26.5612 24.0782 26.5264 24.0782Z" fill="#FF6489"/>
<path d="M32.7259 25.2227C32.6943 25.2227 32.6661 25.1993 32.6611 25.1675C32.6429 25.0656 32.6279 24.9888 32.618 24.9453C32.5582 24.927 32.4868 24.9052 32.4038 24.8835C32.369 24.8735 32.3474 24.8368 32.3574 24.8017C32.3673 24.7666 32.4022 24.7449 32.4387 24.7549C32.5416 24.7833 32.6296 24.8084 32.6976 24.8317C32.7192 24.8384 32.7358 24.8568 32.7408 24.8802C32.7408 24.8802 32.764 24.9821 32.7923 25.1458C32.7989 25.1826 32.774 25.216 32.7391 25.2227C32.7342 25.2227 32.7308 25.2227 32.7259 25.2227Z" fill="#FF6489"/>
<path d="M32.8271 26.235C32.7906 26.235 32.7607 26.2049 32.7607 26.1682C32.759 26.0128 32.7491 25.8441 32.7308 25.6653C32.7275 25.6286 32.754 25.5952 32.7906 25.5918C32.8237 25.5885 32.8603 25.6152 32.8636 25.652C32.8818 25.8341 32.8918 26.0061 32.8935 26.1665C32.8935 26.2049 32.8636 26.235 32.8271 26.235Z" fill="#FF6489"/>
<path d="M32.749 27.0066C32.744 27.0066 32.7407 27.0066 32.7357 27.005C32.7357 27.005 32.6428 26.9866 32.4768 26.9532C32.4402 26.9465 32.417 26.9114 32.4236 26.8747C32.4303 26.8379 32.4651 26.8145 32.5017 26.8212C32.588 26.8379 32.656 26.8513 32.6992 26.8596C32.7125 26.7995 32.7241 26.7343 32.734 26.6658C32.739 26.6291 32.7706 26.604 32.8087 26.609C32.8453 26.614 32.8702 26.6475 32.8652 26.6842C32.8519 26.7811 32.8353 26.873 32.8137 26.9548C32.8054 26.9866 32.7789 27.0066 32.749 27.0066Z" fill="#FF6489"/>
<path d="M21.5019 27.8454C21.4869 27.8454 21.472 27.8404 21.4604 27.8303C21.4321 27.8069 21.4272 27.7652 21.4504 27.7368C21.5649 27.5965 21.6844 27.4595 21.804 27.3308C21.8289 27.3041 21.872 27.3024 21.8986 27.3275C21.9251 27.3525 21.9268 27.3943 21.9019 27.4227C21.784 27.5497 21.6662 27.6833 21.5533 27.822C21.54 27.837 21.5201 27.8454 21.5019 27.8454ZM22.2305 27.0669C22.2123 27.0669 22.194 27.0602 22.1807 27.0452C22.1559 27.0184 22.1575 26.975 22.1857 26.9516C22.3218 26.8263 22.4613 26.7094 22.599 26.6058C22.6273 26.5841 22.6704 26.5891 22.692 26.6192C22.7136 26.6492 22.7086 26.691 22.6787 26.7127C22.5443 26.8146 22.4082 26.9282 22.2754 27.0518C22.2637 27.0619 22.2471 27.0669 22.2305 27.0669ZM31.9673 26.8564C31.964 26.8564 31.959 26.8564 31.9557 26.8547C31.7997 26.8246 31.6237 26.7929 31.4329 26.7578C31.3963 26.7511 31.3731 26.7161 31.3797 26.6793C31.3864 26.6426 31.4212 26.6192 31.4561 26.6258C31.6486 26.6609 31.8246 26.6927 31.9806 26.7227C32.0171 26.7294 32.0404 26.7645 32.0337 26.8013C32.0271 26.833 31.9989 26.8564 31.9673 26.8564ZM30.92 26.6643C30.9166 26.6643 30.9117 26.6643 30.9083 26.6626C30.7407 26.6325 30.5647 26.6025 30.3838 26.5724C30.3473 26.5657 30.3241 26.5323 30.329 26.4955C30.3357 26.4588 30.3705 26.4354 30.4054 26.4404C30.5863 26.4721 30.7623 26.5022 30.9299 26.5323C30.9664 26.539 30.9897 26.5741 30.983 26.6091C30.9797 26.6425 30.9515 26.6643 30.92 26.6643ZM29.8709 26.4855C29.8676 26.4855 29.8643 26.4855 29.8593 26.4838C29.6883 26.4554 29.5124 26.427 29.3348 26.3986C29.2983 26.3936 29.2734 26.3586 29.28 26.3218C29.2866 26.285 29.3198 26.26 29.3564 26.2667C29.534 26.2951 29.7099 26.3235 29.8825 26.3519C29.9191 26.3586 29.944 26.392 29.9373 26.4287C29.9307 26.4621 29.9025 26.4855 29.8709 26.4855ZM23.0804 26.4254C23.0572 26.4254 23.0356 26.4137 23.024 26.392C23.0057 26.3602 23.0157 26.3185 23.0472 26.3001C23.2065 26.2049 23.3692 26.1213 23.5286 26.0528C23.5618 26.0395 23.6016 26.0545 23.6149 26.0879C23.6298 26.1213 23.6132 26.1614 23.58 26.1748C23.4256 26.2399 23.2696 26.3201 23.1153 26.4137C23.1036 26.422 23.092 26.4254 23.0804 26.4254ZM28.8186 26.3201C28.8152 26.3201 28.8119 26.3201 28.8086 26.3201C28.6343 26.2934 28.4584 26.2683 28.2824 26.2433C28.2459 26.2383 28.221 26.2049 28.226 26.1681C28.231 26.1313 28.2658 26.1063 28.3007 26.1113C28.4766 26.1364 28.6526 26.1614 28.8285 26.1882C28.865 26.1932 28.8899 26.2282 28.885 26.2633C28.88 26.2967 28.8518 26.3201 28.8186 26.3201ZM27.7645 26.1714C27.7612 26.1714 27.7579 26.1714 27.7562 26.1714C27.5786 26.1481 27.4027 26.1263 27.2284 26.1046C27.1919 26.0996 27.1653 26.0662 27.1703 26.0311C27.1753 25.9944 27.2085 25.9693 27.2434 25.9726C27.4176 25.9944 27.5936 26.0161 27.7712 26.0395C27.8077 26.0445 27.8326 26.0779 27.8293 26.1146C27.826 26.1464 27.7977 26.1714 27.7645 26.1714ZM26.7089 26.0445C26.7072 26.0445 26.7039 26.0445 26.7022 26.0445C26.5213 26.0261 26.3454 26.0094 26.1744 25.9944C26.1379 25.991 26.1113 25.9593 26.1146 25.9225C26.118 25.8858 26.1528 25.859 26.186 25.8624C26.3586 25.8774 26.5362 25.8941 26.7172 25.9125C26.7537 25.9158 26.7802 25.9493 26.7769 25.986C26.7703 26.0194 26.7421 26.0445 26.7089 26.0445ZM24.0581 26.0161C24.0282 26.0161 24 25.996 23.9933 25.9643C23.985 25.9292 24.0066 25.8925 24.0431 25.8841C24.0996 25.8707 24.156 25.859 24.2141 25.849C24.3187 25.8306 24.4415 25.8173 24.5809 25.8089C24.6174 25.8073 24.649 25.8357 24.6506 25.8724C24.6523 25.9092 24.6241 25.9409 24.5876 25.9426C24.4531 25.9509 24.3353 25.9626 24.2357 25.981C24.1809 25.991 24.1261 26.001 24.073 26.0144C24.068 26.0161 24.063 26.0161 24.0581 26.0161ZM25.6482 25.9559C25.6466 25.9559 25.6466 25.9559 25.6449 25.9559C25.4557 25.9442 25.2764 25.9376 25.1154 25.9359C25.0789 25.9359 25.049 25.9042 25.0507 25.8674C25.0507 25.8306 25.0855 25.8056 25.1187 25.8022C25.2814 25.8056 25.4607 25.8123 25.6532 25.824C25.6897 25.8256 25.7179 25.8574 25.7163 25.8941C25.7113 25.9292 25.6831 25.9559 25.6482 25.9559Z" fill="#FF6489"/>
<path d="M21.2463 29.4239L20.0877 27.2572L20.1159 27.2154C20.1973 27.0935 22.1194 24.2451 23.4124 23.8592C24.6872 23.4783 32.8438 23.2244 33.1907 23.2144H35.0846V27.6264H33.2223C33.1459 27.6163 25.5703 26.614 23.9984 26.7092C22.4663 26.8028 21.3276 29.2485 21.316 29.2736L21.2463 29.4239ZM20.2819 27.2689L21.2363 29.0547C21.5152 28.5034 22.5676 26.6274 23.9867 26.5422C25.5669 26.4453 32.8538 27.4092 33.2372 27.4593H34.917V23.3814H33.1924C33.1094 23.3848 24.7138 23.6454 23.4589 24.0196C22.3053 24.3637 20.5259 26.9114 20.2819 27.2689Z" fill="#00AAD8"/>
<path d="M33.2769 23.2968L33.1109 23.2983L33.1504 27.5433L33.3164 27.5417L33.2769 23.2968Z" fill="#00AAD8"/>
<path d="M35.0681 24.678H33.2057V24.845H35.0681V24.678Z" fill="#00AAD8"/>
<path d="M35.0663 26.9231H33.2255V27.0902H35.0663V26.9231Z" fill="#00AAD8"/>
<path d="M35.083 27.543H34.917V29.5944H35.083V27.543Z" fill="#00AAD8"/>
<path d="M35.083 22.3992H34.917V23.2963H35.083V22.3992Z" fill="#00AAD8"/>
<path d="M44.2555 34.4625C44.1692 34.4625 44.0829 34.4608 43.9966 34.4575C43.96 34.4558 43.9318 34.4257 43.9318 34.389C43.9335 34.3522 43.96 34.3255 43.9999 34.3238C44.1725 34.3305 44.3501 34.3305 44.5227 34.3238C44.5642 34.3255 44.5908 34.3506 44.5925 34.3873C44.5941 34.4241 44.5659 34.4558 44.5294 34.4575C44.4397 34.4608 44.3485 34.4625 44.2555 34.4625ZM43.472 34.4174C43.4687 34.4174 43.4671 34.4174 43.4637 34.4174C43.2878 34.3973 43.1102 34.3706 42.9359 34.3372C42.8994 34.3305 42.8762 34.2954 42.8828 34.2587C42.8894 34.2219 42.9243 34.1985 42.9608 34.2052C43.1318 34.2386 43.3044 34.2654 43.4787 34.2837C43.5152 34.2871 43.5418 34.3205 43.5368 34.3572C43.5351 34.3923 43.5052 34.4174 43.472 34.4174ZM45.0539 34.4157C45.0207 34.4157 44.9925 34.3907 44.9875 34.3572C44.9842 34.3205 45.0091 34.2871 45.0456 34.2837C45.2166 34.2637 45.3909 34.237 45.5635 34.2036C45.5983 34.1969 45.6349 34.2203 45.6415 34.257C45.6481 34.2938 45.6249 34.3288 45.5884 34.3355C45.4141 34.3689 45.2365 34.3973 45.0605 34.4174C45.0589 34.4157 45.0572 34.4157 45.0539 34.4157ZM42.4363 34.2186C42.4313 34.2186 42.4247 34.2186 42.418 34.2169C42.2471 34.1701 42.0761 34.115 41.9084 34.0549C41.8736 34.0432 41.8553 34.0048 41.8686 33.9697C41.8802 33.9346 41.9184 33.9179 41.9533 33.9296C42.1176 33.988 42.2852 34.0415 42.4529 34.0883C42.4877 34.0983 42.5093 34.1351 42.4994 34.1701C42.4911 34.1985 42.4645 34.2186 42.4363 34.2186ZM46.0913 34.2136C46.0614 34.2136 46.0349 34.1935 46.0266 34.1651C46.0166 34.13 46.0382 34.0933 46.0731 34.0833C46.2407 34.0365 46.4084 33.983 46.5727 33.9246C46.6059 33.9129 46.6457 33.9296 46.6573 33.9647C46.669 33.9997 46.6524 34.0382 46.6175 34.0499C46.4515 34.11 46.2805 34.1651 46.1096 34.2119C46.1029 34.2136 46.0963 34.2136 46.0913 34.2136ZM41.4404 33.8594C41.4321 33.8594 41.4221 33.8577 41.4138 33.8527C41.2511 33.7792 41.0901 33.699 40.9358 33.6138C40.9042 33.5955 40.8909 33.5554 40.9092 33.5236C40.9275 33.4919 40.9673 33.4802 40.9988 33.4969C41.1515 33.5804 41.3092 33.6589 41.4686 33.7308C41.5018 33.7458 41.5167 33.7859 41.5018 33.8193C41.4902 33.8444 41.4669 33.8594 41.4404 33.8594ZM47.0839 33.8544C47.059 33.8544 47.0341 33.8394 47.0242 33.8143C47.0092 33.7809 47.0242 33.7408 47.0574 33.7258C47.2151 33.6539 47.3727 33.5754 47.5254 33.4919C47.557 33.4735 47.5985 33.4852 47.6151 33.5186C47.6333 33.5504 47.6217 33.5921 47.5885 33.6088C47.4325 33.694 47.2731 33.7742 47.1105 33.8477C47.1022 33.8527 47.0922 33.8544 47.0839 33.8544ZM40.5125 33.3532C40.5009 33.3532 40.4876 33.3499 40.476 33.3432C40.3266 33.2463 40.1805 33.1427 40.0394 33.0341C40.0096 33.0124 40.0046 32.9707 40.0262 32.9406C40.0477 32.9122 40.0892 32.9055 40.1191 32.9272C40.2569 33.0325 40.4013 33.1344 40.5474 33.2296C40.5789 33.2496 40.5872 33.2914 40.5673 33.3215C40.5557 33.3415 40.5341 33.3532 40.5125 33.3532ZM48.0101 33.3449C47.9885 33.3449 47.967 33.3348 47.9537 33.3148C47.9338 33.2831 47.9421 33.243 47.9736 33.2229C48.118 33.1277 48.2624 33.0258 48.4019 32.9189C48.4301 32.8972 48.4732 32.9022 48.4948 32.9306C48.5164 32.9606 48.5114 33.0024 48.4832 33.0241C48.3421 33.1327 48.196 33.2363 48.0466 33.3332C48.035 33.3415 48.0217 33.3449 48.0101 33.3449ZM39.6726 32.7084C39.6577 32.7084 39.6411 32.7034 39.6278 32.6917C39.495 32.5731 39.3655 32.4478 39.2427 32.3191C39.2178 32.2924 39.2178 32.2506 39.2444 32.2239C39.2709 32.1988 39.3124 32.1989 39.339 32.2256C39.4601 32.3525 39.5863 32.4745 39.7158 32.5898C39.7423 32.6148 39.7456 32.6566 39.7207 32.6833C39.7091 32.7017 39.6909 32.7084 39.6726 32.7084ZM48.8484 32.7C48.8301 32.7 48.8118 32.6917 48.7986 32.6783C48.7737 32.6516 48.777 32.6081 48.8035 32.5848C48.933 32.4678 49.0608 32.3442 49.1803 32.2189C49.2052 32.1922 49.2484 32.1922 49.2749 32.2172C49.3015 32.2423 49.3015 32.2857 49.2766 32.3124C49.1538 32.4411 49.0243 32.5664 48.8932 32.685C48.8799 32.695 48.865 32.7 48.8484 32.7ZM38.9389 31.9433C38.9207 31.9433 38.9008 31.9349 38.8875 31.9199C38.773 31.7812 38.6651 31.6375 38.5638 31.4939C38.5422 31.4638 38.5505 31.422 38.5804 31.4003C38.6103 31.3786 38.6518 31.3853 38.6734 31.417C38.773 31.559 38.8792 31.6993 38.9921 31.8347C39.0153 31.8631 39.012 31.9048 38.9838 31.9282C38.9688 31.9382 38.9539 31.9433 38.9389 31.9433ZM49.5804 31.9349C49.5654 31.9349 49.5505 31.9299 49.5389 31.9199C49.5107 31.8965 49.5073 31.8547 49.5306 31.8263C49.6418 31.691 49.748 31.5507 49.8476 31.407C49.8692 31.3769 49.9107 31.3702 49.9406 31.3903C49.9704 31.412 49.9771 31.4538 49.9572 31.4838C49.8542 31.6292 49.7463 31.7729 49.6335 31.9115C49.6185 31.9265 49.6003 31.9349 49.5804 31.9349ZM38.3298 31.0762C38.3065 31.0762 38.285 31.0645 38.2733 31.0445C38.182 30.8925 38.0974 30.7337 38.0177 30.5734C38.0011 30.54 38.0144 30.4999 38.0476 30.4832C38.0808 30.4665 38.1206 30.4798 38.1372 30.5132C38.2152 30.6703 38.2999 30.8256 38.3879 30.9743C38.4061 31.0061 38.3962 31.0461 38.3646 31.0662C38.353 31.0729 38.3414 31.0762 38.3298 31.0762ZM50.1895 31.0662C50.1779 31.0662 50.1663 31.0629 50.1563 31.0562C50.1248 31.0378 50.1148 30.996 50.1331 30.9643C50.2227 30.8139 50.3057 30.6586 50.3837 30.5015C50.4003 30.4681 50.4402 30.4548 50.4734 30.4715C50.5066 30.4882 50.5199 30.5283 50.5033 30.5617C50.4252 30.7221 50.3389 30.8808 50.2476 31.0328C50.2344 31.0545 50.2111 31.0662 50.1895 31.0662ZM37.8584 30.1257C37.8318 30.1257 37.8069 30.1106 37.797 30.0839C37.7306 29.9185 37.6691 29.7498 37.616 29.5794C37.6044 29.5443 37.6243 29.5059 37.6592 29.4958C37.694 29.4841 37.7322 29.5042 37.7422 29.5393C37.7953 29.7063 37.855 29.8734 37.9198 30.0338C37.9331 30.0689 37.9181 30.1073 37.8833 30.1206C37.875 30.124 37.8667 30.1257 37.8584 30.1257ZM50.6593 30.1123C50.651 30.1123 50.6427 30.1106 50.6344 30.1073C50.6012 30.0939 50.5846 30.0538 50.5979 30.0204C50.6626 29.8584 50.7224 29.6913 50.7755 29.5242C50.7871 29.4892 50.8236 29.4691 50.8585 29.4808C50.8933 29.4925 50.9132 29.5293 50.9016 29.5643C50.8485 29.7347 50.7871 29.9051 50.7207 30.0705C50.7091 30.0973 50.6842 30.1123 50.6593 30.1123ZM37.538 29.1133C37.5081 29.1133 37.4799 29.0932 37.4733 29.0615C37.4334 28.8894 37.3986 28.7123 37.3704 28.5353C37.3654 28.4985 37.3903 28.4651 37.4251 28.4584C37.4617 28.4534 37.4949 28.4785 37.5015 28.5135C37.5281 28.6873 37.5629 28.861 37.6011 29.0297C37.6094 29.0648 37.5878 29.1016 37.5513 29.1099C37.5496 29.1133 37.543 29.1133 37.538 29.1133ZM50.9763 29.0982C50.9713 29.0982 50.9664 29.0982 50.9614 29.0966C50.9265 29.0882 50.9033 29.0531 50.9116 29.0164C50.9514 28.8443 50.9846 28.6706 51.0112 28.4985C51.0162 28.4618 51.051 28.4367 51.0875 28.4434C51.124 28.4484 51.1489 28.4835 51.1423 28.5202C51.1157 28.6956 51.0825 28.8727 51.041 29.0481C51.0344 29.0782 51.0062 29.0982 50.9763 29.0982ZM37.377 28.0642C37.3421 28.0642 37.3139 28.0374 37.3106 28.0023C37.2973 27.8236 37.289 27.6432 37.289 27.4661C37.289 27.4293 37.3189 27.3993 37.3554 27.3993C37.3919 27.3993 37.4218 27.4293 37.4218 27.4661C37.4218 27.6415 37.4285 27.8186 37.4417 27.9923C37.4451 28.0291 37.4168 28.0608 37.3803 28.0642C37.3803 28.0625 37.3787 28.0642 37.377 28.0642ZM51.1373 28.0491C51.1357 28.0491 51.134 28.0491 51.1323 28.0491C51.0958 28.0458 51.0676 28.014 51.0709 27.9773C51.0842 27.8035 51.0908 27.6265 51.0908 27.451V27.4226C51.0908 27.3859 51.1207 27.3558 51.1572 27.3558C51.1938 27.3558 51.2236 27.3859 51.2236 27.4226V27.451C51.2236 27.6298 51.217 27.8085 51.2037 27.9873C51.2004 28.0224 51.1705 28.0491 51.1373 28.0491ZM37.3753 27C37.3737 27 37.372 27 37.3704 27C37.3338 26.9966 37.3056 26.9649 37.309 26.9282C37.3222 26.7511 37.3421 26.5706 37.3687 26.3952C37.3737 26.3585 37.4085 26.3334 37.4434 26.3384C37.4799 26.3434 37.5048 26.3785 37.4998 26.4153C37.4733 26.589 37.455 26.7644 37.4417 26.9382C37.4384 26.9733 37.4085 27 37.3753 27ZM51.134 26.9566C51.0991 26.9566 51.0709 26.9298 51.0676 26.8947C51.0543 26.7193 51.0328 26.5439 51.0062 26.3718C51.0012 26.3351 51.0244 26.3017 51.061 26.295C51.0958 26.29 51.1307 26.3134 51.1373 26.3501C51.1639 26.5255 51.1855 26.7043 51.2004 26.883C51.2037 26.9198 51.1755 26.9515 51.139 26.9549C51.1373 26.9566 51.1357 26.9566 51.134 26.9566ZM37.5314 25.9509C37.5264 25.9509 37.5214 25.9509 37.5164 25.9492C37.4799 25.9408 37.4583 25.9058 37.4666 25.869C37.5065 25.6953 37.553 25.5215 37.6061 25.3511C37.6177 25.316 37.6542 25.296 37.6891 25.3077C37.7239 25.3194 37.7438 25.3561 37.7322 25.3912C37.6808 25.5583 37.6343 25.7287 37.5944 25.8991C37.5895 25.9291 37.5629 25.9509 37.5314 25.9509ZM50.9697 25.9074C50.9398 25.9074 50.9116 25.8874 50.9049 25.8556C50.8651 25.6852 50.817 25.5148 50.7638 25.3478C50.7522 25.3127 50.7721 25.2743 50.807 25.2642C50.8419 25.2526 50.8784 25.2726 50.89 25.3077C50.9431 25.4764 50.9913 25.6502 51.0328 25.8256C51.0411 25.8606 51.0195 25.8974 50.983 25.9058C50.9796 25.9074 50.9747 25.9074 50.9697 25.9074ZM37.8484 24.9351C37.8401 24.9351 37.8318 24.9335 37.8235 24.9301C37.7887 24.9168 37.7737 24.8767 37.787 24.8433C37.8534 24.6779 37.9264 24.5125 38.0044 24.3521C38.021 24.3187 38.0609 24.3053 38.0924 24.322C38.1256 24.3387 38.1389 24.3788 38.1223 24.4122C38.0459 24.5693 37.9729 24.7313 37.9082 24.8934C37.8999 24.9201 37.875 24.9351 37.8484 24.9351ZM50.6477 24.895C50.6211 24.895 50.5962 24.88 50.5862 24.8533C50.5199 24.6912 50.4468 24.5292 50.3705 24.3738C50.3539 24.3404 50.3671 24.3003 50.4003 24.2836C50.4335 24.2669 50.4734 24.2803 50.49 24.3137C50.568 24.4724 50.6427 24.6361 50.7107 24.8015C50.724 24.8349 50.7091 24.875 50.6742 24.8884C50.6643 24.8934 50.656 24.895 50.6477 24.895ZM38.3148 23.9812C38.3032 23.9812 38.2916 23.9779 38.2816 23.9712C38.2501 23.9528 38.2401 23.9111 38.2584 23.8793C38.348 23.7256 38.446 23.5736 38.5472 23.4283C38.5688 23.3982 38.6103 23.3915 38.6402 23.4116C38.67 23.4333 38.6767 23.4751 38.6568 23.5051C38.5572 23.6488 38.4609 23.7975 38.3729 23.9478C38.3596 23.9695 38.3381 23.9812 38.3148 23.9812ZM50.1746 23.9462C50.1514 23.9462 50.1298 23.9345 50.1182 23.9144C50.0285 23.7641 49.9323 23.6171 49.831 23.4734C49.8094 23.4433 49.8161 23.4015 49.8476 23.3798C49.8775 23.3581 49.919 23.3648 49.9406 23.3949C50.0435 23.5402 50.1414 23.6906 50.2327 23.8443C50.251 23.876 50.241 23.9161 50.2095 23.9361C50.1995 23.9428 50.1879 23.9462 50.1746 23.9462ZM38.9223 23.1109C38.9074 23.1109 38.8925 23.1059 38.8808 23.0958C38.8526 23.0724 38.8476 23.0307 38.8709 23.0023C38.9838 22.8653 39.1016 22.73 39.2244 22.6013C39.2493 22.5746 39.2925 22.5729 39.3191 22.5997C39.3456 22.6247 39.3456 22.6682 39.3207 22.6949C39.1995 22.8219 39.0834 22.9538 38.9738 23.0891C38.9605 23.1025 38.9406 23.1109 38.9223 23.1109ZM49.5638 23.0791C49.5455 23.0791 49.5256 23.0708 49.5123 23.0557C49.4011 22.9221 49.2832 22.7901 49.1621 22.6631C49.1372 22.6364 49.1372 22.5947 49.1637 22.5679C49.1903 22.5429 49.2318 22.5429 49.2584 22.5696C49.3812 22.6982 49.5024 22.8319 49.6152 22.9689C49.6385 22.9973 49.6351 23.039 49.6069 23.0624C49.5936 23.0741 49.5787 23.0791 49.5638 23.0791ZM39.6527 22.3441C39.6344 22.3441 39.6162 22.3374 39.6029 22.3223C39.578 22.2956 39.5813 22.2522 39.6079 22.2288C39.7407 22.1102 39.8784 21.9949 40.0179 21.8863C40.0461 21.8646 40.0892 21.8696 40.1108 21.898C40.1324 21.9281 40.1274 21.9699 40.0992 21.9916C39.9614 22.0985 39.8253 22.2104 39.6958 22.3274C39.6842 22.3374 39.6676 22.3441 39.6527 22.3441ZM48.8301 22.3173C48.8152 22.3173 48.7986 22.3123 48.7869 22.3006C48.6575 22.1854 48.5197 22.0718 48.3819 21.9665C48.3521 21.9448 48.3471 21.903 48.3687 21.873C48.3902 21.8429 48.4334 21.8379 48.4616 21.8596C48.6027 21.9665 48.7421 22.0818 48.8749 22.2004C48.9031 22.2255 48.9048 22.2672 48.8799 22.2939C48.8666 22.309 48.8484 22.3173 48.8301 22.3173ZM40.4909 21.6975C40.4693 21.6975 40.4478 21.6875 40.4345 21.6675C40.4146 21.6374 40.4229 21.5956 40.4544 21.5756C40.6021 21.4787 40.7565 21.3851 40.9125 21.2999C40.9441 21.2832 40.9856 21.2933 41.0022 21.3267C41.0204 21.3584 41.0088 21.4002 40.9756 21.4169C40.8229 21.5004 40.6718 21.5923 40.5274 21.6875C40.5158 21.6942 40.5025 21.6975 40.4909 21.6975ZM47.9869 21.6742C47.9753 21.6742 47.962 21.6708 47.9504 21.6641C47.8043 21.5689 47.6533 21.4787 47.4989 21.3952C47.4674 21.3768 47.4541 21.3367 47.4723 21.305C47.4889 21.2732 47.5304 21.2599 47.562 21.2782C47.718 21.3634 47.8724 21.4553 48.0217 21.5522C48.0533 21.5723 48.0616 21.614 48.0417 21.6441C48.03 21.6641 48.0101 21.6742 47.9869 21.6742ZM41.4155 21.1863C41.3906 21.1863 41.3657 21.1713 41.3557 21.1463C41.3408 21.1128 41.3557 21.0727 41.3889 21.0577C41.5499 20.9842 41.7159 20.9157 41.8819 20.8556C41.9167 20.8439 41.9549 20.8606 41.9665 20.8957C41.9798 20.9307 41.9616 20.9692 41.9267 20.9809C41.764 21.041 41.6014 21.1078 41.442 21.1797C41.4337 21.1847 41.4238 21.1863 41.4155 21.1863ZM47.0574 21.1696C47.0491 21.1696 47.0391 21.168 47.0308 21.1646C46.8715 21.0928 46.7088 21.0276 46.5445 20.9692C46.5096 20.9575 46.4913 20.9191 46.5046 20.884C46.5162 20.8489 46.5561 20.8305 46.5893 20.8439C46.7569 20.904 46.9229 20.9708 47.0856 21.0427C47.1188 21.0577 47.1337 21.0978 47.1188 21.1312C47.1072 21.1546 47.0839 21.1696 47.0574 21.1696ZM42.4081 20.8238C42.3782 20.8238 42.3516 20.8038 42.3433 20.7754C42.3334 20.7403 42.355 20.7035 42.3898 20.6935C42.5608 20.6451 42.7351 20.605 42.9094 20.5699C42.9442 20.5632 42.9807 20.5866 42.9874 20.6234C42.994 20.6601 42.9708 20.6952 42.9342 20.7019C42.7633 20.7353 42.5923 20.7771 42.4247 20.8222C42.4197 20.8238 42.413 20.8238 42.4081 20.8238ZM46.0631 20.8121C46.0581 20.8121 46.0515 20.8121 46.0465 20.8105C45.8789 20.7654 45.7079 20.7253 45.5369 20.6935C45.5004 20.6868 45.4772 20.6518 45.4838 20.615C45.4904 20.5783 45.5253 20.5549 45.5618 20.5615C45.7361 20.595 45.9104 20.6351 46.0814 20.6818C46.1162 20.6919 46.1378 20.7286 46.1278 20.7637C46.1195 20.7938 46.0913 20.8121 46.0631 20.8121ZM43.4438 20.62C43.4106 20.62 43.3824 20.595 43.3774 20.5615C43.3741 20.5248 43.399 20.4914 43.4355 20.488C43.6115 20.468 43.7907 20.453 43.9667 20.4463C44.0049 20.4429 44.0347 20.473 44.0364 20.5098C44.0381 20.5465 44.0098 20.5783 43.9733 20.5799C43.799 20.5866 43.6248 20.6016 43.4521 20.6217C43.4488 20.62 43.4455 20.62 43.4438 20.62ZM45.0257 20.615C45.024 20.615 45.0207 20.615 45.019 20.615C44.8464 20.595 44.6705 20.5833 44.4978 20.5766C44.4613 20.5749 44.4331 20.5448 44.4331 20.5081C44.4348 20.4713 44.468 20.4413 44.5012 20.4429C44.6788 20.4496 44.858 20.463 45.0323 20.4814C45.0688 20.4847 45.0954 20.5181 45.0904 20.5549C45.0871 20.59 45.0589 20.615 45.0257 20.615Z" fill="#00AAD8"/>
<path d="M50.1962 29.3271L49.4559 30.7504L48.714 29.3271L49.4559 27.7935L50.1962 29.3271Z" fill="white"/>
<path d="M50.5762 25.6986L50.0716 26.6692L49.5654 25.6986L50.0716 24.6528L50.5762 25.6986Z" fill="white"/>
<path d="M52.3026 27.5446L51.798 28.5135L51.2934 27.5446L51.798 26.4988L52.3026 27.5446Z" fill="white"/>
<path d="M38.1472 25.1874L37.4053 26.6091L36.6633 25.1874L37.4053 23.6538L38.1472 25.1874Z" fill="white"/>
<path d="M38.5271 21.559L38.0208 22.5279L37.5162 21.559L38.0208 20.5132L38.5271 21.559Z" fill="white"/>
<path d="M40.2536 23.4032L39.749 24.3738L39.2427 23.4032L39.749 22.3574L40.2536 23.4032Z" fill="white"/>
<path d="M48.3538 24.1716H59.4351V23.2979H57.6623V21.8462H52.0785L48.5081 23.3681L48.3538 24.1716Z" fill="#969595"/>
<path d="M57.4163 24.1716H54.5878V41.1047H57.4163V24.1716Z" fill="#AAAAAA"/>
<path d="M55.1904 31.3787H49.1269V32.219L54.2442 33.4051V35.2494C54.2442 35.2494 53.4757 35.1258 53.4757 36.0229C53.4757 36.92 54.2326 36.8832 54.2326 36.8832H55.192V31.3787H55.1904Z" fill="#969595"/>
<path d="M57.9146 27.9387H57.4166V37.0752H57.9146V27.9387Z" fill="#969595"/>
<path d="M57.2669 41.1047H54.7389V51.5776H57.2669V41.1047Z" fill="#969595"/>
<path d="M56.0952 25.291H54.9383C54.8337 25.291 54.7341 25.3679 54.7391 25.4597C54.7441 25.5516 54.8271 25.6285 54.9383 25.6285H56.0952C56.1998 25.6285 56.2994 25.5516 56.2944 25.4597C56.2894 25.3695 56.2064 25.291 56.0952 25.291Z" fill="#6D6969"/>
<path d="M56.7774 26.001H54.9317C54.676 26.001 54.6744 26.3368 54.9317 26.3368H56.7774C57.0331 26.3368 57.0347 26.001 56.7774 26.001Z" fill="#6D6969"/>
<path d="M56.0952 26.761H54.9383C54.8337 26.761 54.7341 26.8378 54.7391 26.9297C54.7441 27.0216 54.8271 27.0984 54.9383 27.0984H56.0952C56.1998 27.0984 56.2994 27.0216 56.2944 26.9297C56.2894 26.8378 56.2064 26.761 56.0952 26.761Z" fill="#6D6969"/>
<path d="M56.7774 27.4695H54.9317C54.676 27.4695 54.6744 27.8053 54.9317 27.8053H56.7774C57.0331 27.8069 57.0347 27.4695 56.7774 27.4695Z" fill="#6D6969"/>
<path d="M56.0952 28.2295H54.9383C54.8337 28.2295 54.7341 28.3063 54.7391 28.3982C54.7441 28.4901 54.8271 28.5669 54.9383 28.5669H56.0952C56.1998 28.5669 56.2994 28.4901 56.2944 28.3982C56.2894 28.3063 56.2064 28.2295 56.0952 28.2295Z" fill="#6D6969"/>
<path d="M56.7774 28.9395H54.9317C54.676 28.9395 54.6744 29.2752 54.9317 29.2752H56.7774C57.0331 29.2752 57.0347 28.9395 56.7774 28.9395Z" fill="#6D6969"/>
<path d="M56.0952 29.698H54.9383C54.8337 29.698 54.7341 29.7748 54.7391 29.8667C54.7441 29.9586 54.8271 30.0355 54.9383 30.0355H56.0952C56.1998 30.0355 56.2994 29.9586 56.2944 29.8667C56.2894 29.7748 56.2064 29.698 56.0952 29.698Z" fill="#6D6969"/>
<path d="M56.7774 30.408H54.9317C54.676 30.408 54.6744 30.7437 54.9317 30.7437H56.7774C57.0331 30.7437 57.0347 30.408 56.7774 30.408Z" fill="#6D6969"/>
<path d="M56.0952 37.3325H54.9383C54.8337 37.3325 54.7341 37.4094 54.7391 37.5013C54.7441 37.5931 54.8271 37.67 54.9383 37.67H56.0952C56.1998 37.67 56.2994 37.5931 56.2944 37.5013C56.2894 37.4094 56.2064 37.3325 56.0952 37.3325Z" fill="#6D6969"/>
<path d="M56.7774 38.0425H54.9317C54.676 38.0425 54.6744 38.3783 54.9317 38.3783H56.7774C57.0331 38.3783 57.0347 38.0425 56.7774 38.0425Z" fill="#6D6969"/>
<path d="M56.0952 38.801H54.9383C54.8337 38.801 54.7341 38.8779 54.7391 38.9698C54.7441 39.0616 54.8271 39.1385 54.9383 39.1385H56.0952C56.1998 39.1385 56.2994 39.0616 56.2944 38.9698C56.2894 38.8779 56.2064 38.801 56.0952 38.801Z" fill="#6D6969"/>
<path d="M56.7774 39.511H54.9317C54.676 39.511 54.6744 39.8468 54.9317 39.8468H56.7774C57.0331 39.8468 57.0347 39.511 56.7774 39.511Z" fill="#6D6969"/>
<path d="M56.0952 40.2693H54.9383C54.8337 40.2693 54.7341 40.3461 54.7391 40.438C54.7441 40.5299 54.8271 40.6067 54.9383 40.6067H56.0952C56.1998 40.6067 56.2994 40.5299 56.2944 40.438C56.2894 40.3478 56.2064 40.2693 56.0952 40.2693Z" fill="#6D6969"/>
<path d="M59.4332 23.946H48.3535V24.1716H59.4332V23.946Z" fill="#6D6969"/>
<path d="M55.1904 31.3787H49.1269V31.6576H55.1904V31.3787Z" fill="#6D6969"/>
</svg>
