<svg width="95" height="67" viewBox="0 0 95 67" fill="none" xmlns="http://www.w3.org/2000/svg">
<path d="M71.1458 12.2489C70.3934 12.0601 69.6686 11.9981 68.9765 12.0779C65.3438 11.9266 63.209 12.4878 62.2273 13.5664C60.9192 13.8923 59.762 14.1139 58.7761 14.0327C53.2572 13.5805 56.6031 6.41915 35.9051 1.5732C32.6322 0.807786 28.9908 0.216517 25.3388 0.211958C15.1307 0.196914 4.95558 4.03401 3.61539 14.6281C3.42189 16.1571 3.4127 17.8251 3.61355 19.6432C3.75464 20.9278 4.00191 22.2868 4.36315 23.7237C5.03279 26.391 7.93333 31.5023 9.41646 34.7395C15.6473 48.3396 8.49588 47.524 2.76788 51.6027C2.53257 51.7705 2.29771 51.9419 2.06515 52.1183C1.04346 52.8924 0.471721 54.1948 0.189067 55.7133C-0.863417 61.3703 2.61438 66.7656 7.23979 66.7569L23.7004 66.7264L25.2304 66.72L74.9292 66.5157L91.3218 66.4483C91.3218 66.4483 95.2458 57.7739 94.9876 47.2828C94.9954 47.2883 95 47.2915 95 47.2915C95 47.2915 95.2936 15.0753 71.1458 12.2489Z" fill="#FCECDB"/>
<path d="M80.4795 10.3278C80.4795 10.3278 76.2911 11.4648 74.2142 10.3506C74.2142 10.3506 74.6733 9.51273 75.7226 9.17629C76.0655 9.02813 75.9625 8.79883 75.9791 8.53214C76.0388 7.56842 76.1381 7.03231 76.1381 7.03231L78.847 5.60542L79.4546 5.2854C79.353 5.72714 79.3006 6.14472 79.2863 6.53586C79.285 6.56686 79.2836 6.59741 79.2827 6.62795C79.2257 8.95747 80.4795 10.3278 80.4795 10.3278Z" fill="#FFB27D"/>
<path d="M79.3083 6.59745C79.3083 6.59745 79.2996 6.60794 79.2826 6.628C79.0836 6.86277 77.7434 8.36488 75.979 8.53219C76.0387 7.56847 76.138 7.03236 76.138 7.03236L78.8469 5.60547C79.0863 6.02442 79.2329 6.39459 79.2858 6.53591C79.301 6.57603 79.3083 6.59745 79.3083 6.59745Z" fill="#E8945B"/>
<path d="M75.7121 7.99019C75.7121 7.99019 79.4799 8.1265 79.5295 5.79789C79.5787 3.46928 80.0985 1.9184 77.6948 1.73286C75.2911 1.54731 74.8049 2.42624 74.5976 3.1994C74.3908 3.97302 74.7332 7.89492 75.7121 7.99019Z" fill="#FFB27D"/>
<path d="M78.777 5.29533C78.777 5.29533 79.2031 4.7419 78.8809 4.46883C78.5587 4.19576 78.4567 4.68765 78.232 4.70133C78.0072 4.71501 77.5223 4.11872 77.4162 3.53338C77.31 2.94849 75.2845 4.121 74.3869 3.95142C73.4898 3.78183 72.5867 2.73651 73.8524 1.94921C74.5965 1.4865 78.3078 -0.881313 80.0543 0.816365C82.2801 2.9804 80.0534 5.83053 79.7615 6.25677C79.4701 6.68302 79.2601 6.59503 79.2601 6.59503C79.2601 6.59503 78.5532 5.86335 78.777 5.29533Z" fill="#2C3A64"/>
<path d="M79.8596 0.957793C79.8821 0.780913 79.9341 0.311818 79.832 0C79.832 0 79.7493 0.478213 79.6335 0.707973C79.5181 0.937734 79.8596 0.957793 79.8596 0.957793Z" fill="#2C3A64"/>
<path d="M80.3204 0.528348C80.3204 0.528348 79.8502 0.489599 79.7514 0.843814L79.8768 1.08907C79.8768 1.08907 79.9357 0.626817 80.3204 0.528348Z" fill="#2C3A64"/>
<path d="M71.1862 25.5059L82.3595 26.3529C82.3595 26.3529 82.3798 24.4418 82.4036 21.9026C82.4257 19.4733 82.451 16.4677 82.4639 14.0123C82.4749 11.8114 82.4753 10.0508 82.456 9.5434C82.456 9.5434 81.7322 9.22565 79.7573 9.12627C79.7573 9.12627 78.3481 10.8221 76.9537 10.3257C75.5593 9.82923 75.9573 8.96899 75.9573 8.96899C75.819 8.97219 75.6815 8.97583 75.545 8.9813C75.3286 8.99042 75.1153 9.00227 74.9071 9.01777C74.1612 9.0743 73.4699 9.1787 72.8913 9.34874C69.6001 10.3166 71.1862 25.5059 71.1862 25.5059Z" fill="#79C8CC"/>
<path d="M80.0268 66.6344C80.4625 66.2642 80.2593 63.3826 80.2593 63.3826C80.2593 63.3826 77.9567 62.4094 77.6479 63.7733C77.339 65.1373 75.5149 65.7495 74.4767 65.9168C73.784 66.0281 73.5538 66.3996 73.477 66.6344H80.0268Z" fill="#2C3A64"/>
<path d="M68.6382 66.6343C69.0739 66.2642 68.8129 64.1908 68.8129 64.1908C68.8129 64.1908 67.3463 62.3942 66.7272 63.6388C66.1035 64.8924 64.1259 65.7495 63.0876 65.9163C62.395 66.0276 62.1648 66.3991 62.088 66.6339H68.6382V66.6343Z" fill="#2C3A64"/>
<path d="M71.1573 30.4014C71.1573 30.4014 69.4806 56.5481 66.5746 63.8156C66.5746 63.8156 68.5279 65.0378 69.6015 64.2264C69.6015 64.2264 76.3057 50.5392 75.37 47.4297C74.7431 45.3454 81.854 30.5947 81.854 30.5947L71.1573 30.4014Z" fill="#233862"/>
<path d="M82.3715 29.0661C82.4248 29.0593 82.4699 29.104 82.463 29.1564C82.2966 30.4132 80.7078 42.7205 81.854 46.0548C83.2227 50.0355 80.5161 63.7354 80.5161 63.7354C80.5161 63.7354 78.4819 64.5915 77.1256 63.7673C77.1256 63.7673 76.2648 48.9824 75.6839 46.0356C75.1025 43.0888 72.4189 30.3275 72.4189 30.3275L82.3715 29.0661Z" fill="#2B478B"/>
<path d="M82.4035 21.902C82.4256 19.4726 82.4508 16.4671 82.4637 14.0117C81.5725 14.3121 80.0908 15.0652 79.7433 16.8117C79.4023 18.5235 80.9576 20.993 82.4035 21.902Z" fill="#599DAD"/>
<path d="M63.4005 15.5936C63.4005 15.5936 63.8376 15.559 64.5403 15.4951C66.0239 15.3602 68.6891 15.0921 70.9154 14.7407C70.9159 14.7407 70.9159 14.7407 70.9159 14.7407C72.6996 14.4589 74.2011 14.1225 74.5867 13.7555C75.681 12.7148 75.1782 8.99983 75.1782 8.99983C75.1782 8.99983 74.0273 8.9857 72.8908 9.34903C69.8225 10.3292 63.4731 12.5762 62.7465 13.7519C61.8089 15.2681 63.4005 15.5936 63.4005 15.5936Z" fill="#79C8CC"/>
<path d="M81.6616 9.33447C81.6616 9.33447 83.6062 9.68322 84.0525 10.6155C84.4987 11.5477 87.3616 18.4255 87.1575 20.9442C87.1575 20.9442 86.6947 21.8026 86.0706 22.2485C86.0706 22.2485 83.131 21.7625 82.9218 19.7298C82.9218 19.7298 83.074 19.4385 82.9062 19.1709C82.7385 18.9033 79.1605 15.5622 79.1389 14.5588C79.1168 13.555 81.6616 9.33447 81.6616 9.33447Z" fill="#79C8CC"/>
<path d="M69.7471 38.9886L70.8046 18.2764C70.7977 17.1873 71.2702 16.3399 71.4743 15.4869C71.6025 14.9522 71.9853 14.8847 72.3149 14.9139C72.5755 14.288 74.4001 9.91249 74.907 9.01669C75.1157 9.00119 75.3289 8.98934 75.5449 8.98022C75.3537 9.48169 73.8518 12.3414 73.3186 15.0001L74.0917 15.0128L78.4983 15.0858C78.5916 14.6604 79.7829 9.26834 80.237 9.15574L80.7596 9.20315C80.7596 9.20315 79.5513 12.2429 79.3973 15.1003L79.5917 15.1035C79.8877 15.1085 80.1276 15.3442 80.1336 15.6383C80.1786 17.9714 82.4242 19.5009 82.4242 19.5009L82.4716 29.0952C82.2353 30.2176 81.9683 31.6135 81.6935 33.0759C81.2486 35.436 80.7821 37.9693 80.3868 39.8078C80.1874 40.7374 78.4436 40.6084 77.4854 40.6084H71.2936C70.4048 40.6097 69.6988 39.8689 69.7471 38.9886Z" fill="#F99746"/>
<path d="M81.6925 33.0768H81.693C81.9683 31.6144 82.2348 30.2185 82.4711 29.0961L82.4237 19.5018C82.4237 19.5018 80.1781 17.9719 80.1331 15.6392C80.1336 15.6392 75.7012 30.156 81.6925 33.0768Z" fill="#ED7D2B"/>
<path d="M73.8068 25.2331C73.8707 25.5827 74.0633 26.2191 74.5445 26.251C75.0257 26.2829 78.0595 25.5189 78.0595 25.5189C81.2776 25.0854 84.0701 23.3644 85.6843 22.1623C84.8795 21.9494 83.0829 21.3025 82.9207 19.7297C82.087 20.5567 77.3292 23.8673 77.3292 23.8673C77.0645 23.8198 75.7477 23.5987 75.0578 23.7697C74.288 23.9612 73.7429 24.8834 73.8068 25.2331Z" fill="#FFB27D"/>
<path d="M64.5407 15.4946C66.0243 15.3597 68.6895 15.0917 70.9158 14.7402C70.8837 14.7224 69.8827 14.1767 68.7612 14.3449C67.621 14.5159 65.4034 14.6654 64.7577 14.313C64.3881 14.1111 64.2866 14.8282 64.5407 15.4946Z" fill="#599DAD"/>
<path d="M62.1097 15.5936C62.1097 13.6726 63.5648 13.1542 63.5648 13.1542C63.5648 13.1542 64.1504 12.8506 64.9147 13.7979C65.7893 14.8825 66.6952 19.862 66.6952 19.862C66.6952 19.862 67.5739 20.6493 67.4861 21.3782C67.3988 22.1072 67.1309 23.2587 66.6952 23.1032C66.259 22.9478 65.7337 22.2913 65.5811 21.8268C65.4538 21.4384 65.4979 20.73 65.5158 20.5075C65.3637 20.3119 62.1097 16.1188 62.1097 15.5936Z" fill="#FFB27D"/>
<path d="M61.6242 52.4374C61.8577 52.4374 62.0847 52.3162 62.2079 52.1001C64.8542 47.4593 65.357 36.1741 65.3773 35.6959C65.3924 35.3294 65.1056 35.0194 64.7357 35.0043C64.3657 34.9879 64.0536 35.2738 64.0385 35.6407C64.0339 35.7547 63.5292 47.0837 61.0414 51.4464C60.8594 51.7659 60.9725 52.1712 61.2946 52.3517C61.3994 52.4096 61.5125 52.4374 61.6242 52.4374Z" fill="#163560"/>
<path d="M66.2315 50.5028C66.527 50.5028 66.7977 50.3072 66.8782 50.0109C66.9563 49.7223 68.7878 42.8897 68.1609 37.9749C67.9688 36.4682 66.7747 35.2706 65.2571 35.0632C64.1022 34.9055 62.2693 34.818 60.0949 35.2989C59.7337 35.3787 59.5062 35.7338 59.5866 36.0921C59.667 36.4504 60.0251 36.6761 60.3863 36.5963C62.3658 36.1587 64.0282 36.2371 65.0742 36.3802C65.9925 36.5056 66.7155 37.23 66.8317 38.1417C67.426 42.7994 65.6032 49.5974 65.5844 49.6653C65.4883 50.0196 65.6997 50.3843 66.0573 50.4795C66.1152 50.4955 66.1741 50.5028 66.2315 50.5028Z" fill="#1C468A"/>
<path d="M61.2138 66.576C61.2606 66.576 61.3084 66.571 61.3558 66.5609C61.7175 66.4834 61.9473 66.1297 61.8691 65.7709L59.1019 53.073C58.884 51.9337 57.8798 51.1082 56.7097 51.1082H49.3377C48.7554 51.1082 48.1919 51.3156 47.7502 51.6921C47.3104 52.0673 47.0195 52.587 46.9312 53.1555L44.8396 65.5193C44.7785 65.8812 45.0243 66.2241 45.3893 66.2847C45.7546 66.3453 46.0998 66.1014 46.1609 65.7395L48.2549 53.3606C48.3367 52.8259 48.7921 52.4375 49.3372 52.4375H56.7092C57.2368 52.4375 57.6895 52.8113 57.7856 53.326L57.7897 53.3456L60.5593 66.0526C60.6273 66.3631 60.9049 66.576 61.2138 66.576Z" fill="#163560"/>
<path d="M51.5242 65.3838C51.5237 65.5871 51.4226 65.7271 51.2512 65.8206C51.2507 65.821 51.2498 65.8215 51.2484 65.8215C50.9308 65.9947 50.4239 65.8616 49.8177 65.8356C49.74 65.8324 48.9348 66.1748 47.794 66.2714C46.4938 66.3813 46.0149 65.9869 45.9382 65.8073C45.8738 65.6551 46.4313 65.4818 47.055 65.2844C47.0853 65.2749 47.1152 65.2648 47.146 65.2557C47.2287 65.2297 47.3124 65.2024 47.3951 65.1755C48.1374 64.9307 48.8677 64.6407 49.0501 63.8954C49.2436 63.1054 48.6622 60.8998 48.6622 60.8998L50.7226 60.6792C50.7226 60.6792 50.9212 62.9846 51.0508 63.703C51.1206 64.0864 51.2957 64.3914 51.3982 64.7201C51.4056 64.7433 51.4125 64.7661 51.4189 64.7894C51.4718 64.9822 51.5246 65.18 51.5242 65.3838Z" fill="#D38957"/>
<path d="M51.5241 65.3839C51.5237 65.5873 51.4226 65.7272 51.2511 65.8207C51.2507 65.8211 51.2497 65.8216 51.2484 65.8216C50.7883 66.1152 49.9707 65.7067 48.6401 66.3157C48.5827 66.3422 48.1364 66.3112 47.8257 66.3071C47.4222 66.3016 46.8394 66.3376 46.7034 66.3157C46.0751 66.2154 45.9818 65.9082 45.9386 65.807C45.8743 65.6547 46.4318 65.4815 47.0554 65.2841C47.2301 65.3511 48.0638 65.6383 49.0501 65.4528C49.9174 65.2909 50.7791 64.8629 51.3987 64.7197C51.406 64.743 51.4129 64.7658 51.4193 64.789C51.4717 64.9823 51.5246 65.1802 51.5241 65.3839Z" fill="#2F5791"/>
<path d="M51.3164 65.7432L51.0126 66.3066H50.3522V65.8941L51.3164 65.7432Z" fill="#2F5791"/>
<path d="M62.1679 45.7308L55.4987 45.1003C55.4987 45.1003 45.2914 45.1459 44.3405 46.4826C44.3405 46.4826 42.5182 47.7358 44.5781 52.9145C46.638 58.0937 49.0574 63.2697 49.0574 63.2697C49.0574 63.2697 49.6737 63.437 50.5189 63.3718C50.8526 63.3463 51.3025 63.2328 51.3025 63.2328C51.3025 63.2328 50.8374 55.5043 49.8074 52.4969C48.7775 49.49 48.4604 50.0744 50.2827 50.2417C52.105 50.409 57.9681 51.7452 60.6623 51.411C63.3565 51.0769 62.1679 45.7308 62.1679 45.7308Z" fill="#B74B42"/>
<path d="M52.8092 65.3838C52.8087 65.5871 52.7076 65.7271 52.5362 65.8206C52.5357 65.821 52.5348 65.8215 52.5334 65.8215C52.2158 65.9947 51.6956 65.615 49.3227 66.172C48.0533 66.4702 47.3 65.9869 47.2232 65.8073C47.1589 65.6551 47.7164 65.4818 48.34 65.2844C48.3704 65.2749 48.4002 65.2648 48.431 65.2557C48.5138 65.2297 48.5974 65.2024 48.6806 65.1755C49.4229 64.9307 50.1532 64.6407 50.3356 63.8954C50.5291 63.1054 49.9477 60.8998 49.9477 60.8998L52.0081 60.6792C52.0081 60.6792 52.2067 62.9846 52.3363 63.703C52.4061 64.0864 52.5812 64.3914 52.6837 64.7201C52.6911 64.7433 52.698 64.7661 52.7044 64.7894C52.7573 64.9822 52.8097 65.18 52.8092 65.3838Z" fill="#E49963"/>
<path d="M63.1006 46.2008L56.8464 45.677C56.8464 45.677 46.6391 45.7212 45.6882 47.0159C45.6882 47.0159 44.1458 47.9742 46.2057 52.9901C48.2656 58.0061 50.3522 63.5259 50.3522 63.5259C50.3522 63.5259 50.8146 63.5888 51.3735 63.5436C52.0767 63.4871 52.311 63.2605 52.311 63.2605C52.311 63.2605 52.1658 56.3969 51.1358 53.4843C50.1059 50.5717 49.7097 50.8685 51.532 51.0303C53.3543 51.1922 58.4784 52.4595 62.01 51.7889C64.6766 51.282 63.1006 46.2008 63.1006 46.2008Z" fill="#C65447"/>
<path d="M47.2236 65.8079C47.265 65.905 47.3537 66.1954 47.9264 66.3053H49.9495C50.6467 65.9912 51.2015 65.9556 51.6372 65.9488C52.0251 65.9429 52.3178 65.9593 52.5329 65.8221C52.5343 65.8221 52.5352 65.8212 52.5357 65.8207C52.5458 65.8148 52.5564 65.8093 52.566 65.8029C52.7195 65.7095 52.8087 65.575 52.8092 65.384C52.8096 65.1802 52.7568 64.9823 52.7039 64.79C52.6975 64.7667 52.691 64.7435 52.6832 64.7202C52.0637 64.8634 51.2024 65.2919 50.3347 65.4533C49.3484 65.6388 48.5147 65.3521 48.34 65.2846C47.7168 65.4824 47.1593 65.6552 47.2236 65.8079Z" fill="#365DA4"/>
<path d="M52.6018 65.7441L52.298 66.3071H51.6375V65.8946L52.6018 65.7441Z" fill="#365DA4"/>
<path d="M60.2483 21.501C60.7323 21.247 61.333 21.4052 61.72 21.5032C61.6391 21.3806 61.4479 21.3049 61.4479 21.3049C61.6979 21.3154 62.1938 21.6582 62.1938 21.6582C62.1938 21.6582 64.4509 21.0082 64.8811 23.8656C64.8811 23.8656 64.757 23.6326 64.5764 23.36C64.8269 25.0044 63.818 27.2258 62.0058 27.3083C60.8274 27.3626 55.286 24.1013 60.2483 21.501Z" fill="#163560"/>
<path d="M58.4836 30.4945C58.4712 30.4973 59.4584 31.2722 60.3275 31.2066C61.1447 31.1451 61.846 30.2438 61.8359 30.2397C61.5197 30.112 61.5123 29.6457 61.8938 27.7214L61.7394 27.7219L59.1449 27.7342C59.1449 27.7342 59.0498 28.5251 58.9087 29.26C58.7906 29.8777 58.6389 30.4558 58.4836 30.4945Z" fill="#E49963"/>
<path d="M59.1451 27.7347C59.1451 27.7347 59.05 28.5256 58.9089 29.2605C60.3148 29.4889 61.3002 28.3652 61.7391 27.7219L59.1451 27.7347Z" fill="#D68D5D"/>
<path d="M62.0503 27.5017C62.0503 27.5017 63.0067 26.4933 63.3735 25.5451C63.6354 24.8681 63.7811 22.2004 61.0755 22.0709C61.0755 22.0709 60.296 21.9993 59.4839 22.343C58.8377 22.6166 57.8518 23.2853 58.333 25.7297L58.4236 26.5416L62.0503 27.5017Z" fill="#163560"/>
<path d="M58.5429 28.3408C58.5429 28.3408 61.8405 29.0283 62.2404 26.9846C62.6402 24.9409 63.3352 23.6535 61.2467 23.1279C59.1583 22.6027 58.5953 23.3034 58.2943 23.9535C57.9937 24.6035 57.6954 28.1092 58.5429 28.3408Z" fill="#E49963"/>
<path d="M58.6144 22.8358C59.2445 22.3197 59.6044 22.5271 59.7855 22.7528C60.7065 21.8301 63.289 23.4763 63.289 23.4763C63.2251 24.9852 63.5064 26.3483 63.5064 26.3483C63.5064 26.3483 62.8317 26.6022 61.5103 25.9817C60.4707 25.4935 59.9771 23.7967 59.814 23.0961C59.5837 23.2319 59.0906 23.5533 58.8897 23.9221C58.6236 24.4113 58.3409 25.4684 58.033 25.3718C58.0335 25.3718 57.6681 23.6112 58.6144 22.8358Z" fill="#163560"/>
<path d="M59.5197 27.2428C59.5197 27.2428 59.4076 27.4908 58.7641 27.3258C58.7641 27.3258 58.2236 27.1876 58.2963 26.9054C58.2958 26.9054 58.8652 26.8038 59.5197 27.2428Z" fill="white"/>
<path d="M54.9807 36.3433C55.0739 43.0114 53.7609 43.7805 54.3349 44.5441C54.3381 44.5477 54.9011 44.9288 54.9048 44.9334C55.5096 45.697 55.6746 44.9439 57.7663 46.3616C58.7622 47.0372 60.0358 47.9235 61.1816 48.5229C61.6136 48.7481 62.0263 48.9332 62.4009 49.0508C63.1179 49.2765 63.6896 49.2546 63.9635 48.7978C64.76 47.4694 63.008 43.201 64.1336 40.7329C64.1432 40.712 64.1524 40.6901 64.1616 40.6687C64.2508 40.4508 64.3096 40.1927 64.3418 39.9033C64.5063 38.4372 63.9957 36.1633 63.3918 34.1898C62.7249 32.0125 61.9454 30.2004 61.836 30.2392C58.7457 31.341 58.759 29.9355 58.759 29.9355C58.759 29.9355 54.9489 34.069 54.9807 36.3433Z" fill="#A8D29F"/>
<path d="M54.7016 44.8011C54.7048 44.8048 54.6984 44.7965 54.7016 44.8011C55.3064 45.5647 55.6746 44.9438 57.7657 46.3616C58.7617 47.0372 60.0352 47.9234 61.181 48.5229C61.7822 48.7494 62.2266 48.9327 62.4003 49.0508C63.1173 49.2764 63.6891 49.2545 63.963 48.7978C64.7595 47.4693 63.0075 43.201 64.133 40.7329C64.1427 40.7119 64.1519 40.69 64.1611 40.6686C64.2645 40.4233 64.321 40.1694 64.3412 39.9032C64.4235 38.7813 63.8416 37.4355 63.2575 35.5259C62.5157 36.0538 58.0337 34.4195 57.8871 41.0082C57.8425 43.0282 55.2848 43.3382 54.7016 44.8011Z" fill="#82B479"/>
<path d="M54.8629 45.1701C54.8629 45.1701 53.8895 44.7347 53.3862 44.8341C52.8825 44.9335 51.8557 45.2348 51.8921 45.5088C51.9284 45.7828 53.0084 46.1315 53.525 45.9637C54.0421 45.796 54.3243 46.188 54.9314 46.1083C55.539 46.0285 54.8629 45.1701 54.8629 45.1701Z" fill="#E49963"/>
<path d="M61.8361 30.2395C61.8361 30.2395 65.5887 31.0095 65.9128 32.9392C66.2368 34.8689 64.7982 41.1572 63.4424 42.8722C62.0866 44.5872 55.9845 46.0871 55.342 46.0711C54.6994 46.0547 54.4958 45.0285 54.5418 44.9305C54.5878 44.8325 61.3646 41.2471 61.4335 40.7533C61.5029 40.2596 61.8361 30.2395 61.8361 30.2395Z" fill="#A8D29F"/>
<path d="M67.9715 66.6895C68.0188 66.6895 68.0671 66.6845 68.1154 66.674C68.4766 66.5956 68.7055 66.2414 68.6264 65.8826L65.8008 53.0721C65.583 51.9333 64.5787 51.1082 63.409 51.1082H56.0371C55.4547 51.1082 54.8913 51.3156 54.4496 51.6921C54.0098 52.0673 53.7188 52.587 53.6306 53.1555L51.539 65.5193C51.4778 65.8812 51.7237 66.2241 52.0886 66.2847C52.4536 66.3453 52.7992 66.1014 52.8603 65.7395L54.9542 53.3606C55.0361 52.8259 55.4911 52.4375 56.0366 52.4375H63.4086C63.9362 52.4375 64.3889 52.8113 64.485 53.326L64.4891 53.347L67.3166 66.1671C67.3864 66.4775 67.6636 66.6895 67.9715 66.6895Z" fill="#1C468A"/>
<path d="M64.7021 52.9964C64.8638 52.9964 65.0261 52.9385 65.1548 52.8218C66.3801 51.7077 67.0212 50.3104 67.0598 48.6693C67.0901 47.3801 66.7362 46.2376 66.4338 45.5069C66.1916 44.9211 65.6217 44.5422 64.9824 44.5422H60.5905C59.7034 44.5422 58.8578 44.8194 58.1454 45.3437C57.433 45.8679 56.9201 46.59 56.6632 47.4325L55.3961 51.5805C55.289 51.9315 55.4889 52.3026 55.8428 52.4093C56.1972 52.5155 56.5708 52.3172 56.6784 51.9662L57.9455 47.8182C58.3012 46.6539 59.3643 45.8716 60.5909 45.8716H64.9829C65.0762 45.8716 65.1594 45.9263 65.1943 46.0115C65.6438 47.0979 66.4508 49.8409 64.2493 51.8426C63.9768 52.0906 63.9584 52.5109 64.2084 52.7813C64.3403 52.924 64.521 52.9964 64.7021 52.9964Z" fill="#1C468A"/>
<path d="M58.8521 29.5398C58.8521 29.5398 59.7092 30.2446 61.6074 29.5398C61.6074 29.5398 62.578 30.251 63.4789 30.4958C64.3797 30.7406 69.1627 32.5135 68.9628 42.9758C68.7629 53.4381 69.9634 64.1895 73.0459 66.576H42.3837C42.3837 66.576 45.3858 60.1481 43.9449 54.9466C42.5041 49.7451 41.2232 44.544 49.5888 44.306C53.1512 44.1077 54.2721 31.5776 55.9933 30.2391C56.8739 29.7746 58.8521 29.5398 58.8521 29.5398Z" fill="white"/>
<path d="M68.068 43.7202C68.068 43.7202 66.4405 55.9709 71.7245 66.576H67.2816C67.2811 66.576 66.333 52.5838 68.068 43.7202Z" fill="#BED4F4"/>
<path d="M64.1294 30.986C64.1294 30.986 62.3503 30.6386 61.8939 30.0232C61.6475 29.725 61.6678 30.986 64.1294 30.986Z" fill="#BED4F4"/>
<path d="M63.5488 31.9486C63.5488 31.9486 61.277 30.9525 61.157 30.2395C61.1171 29.9532 63.5488 31.9486 63.5488 31.9486Z" fill="#BED4F4"/>
<path d="M56.8138 30.8072C56.8138 30.8072 58.8852 30.5292 59.1756 30.1321C59.4656 29.735 57.3841 30.7772 56.8138 30.8072Z" fill="#BED4F4"/>
<path d="M59.281 31.9488C59.281 31.9488 60.2604 30.789 60.1887 30.3208C60.117 29.8527 59.6161 31.4719 59.281 31.9488Z" fill="#BED4F4"/>
<path d="M61.7394 33.9732C61.7394 33.9732 60.3766 31.0351 60.6166 30.5386C60.8569 30.0427 61.7394 33.9732 61.7394 33.9732Z" fill="#BED4F4"/>
<path d="M51.5298 44.6503C51.5298 44.6503 57.8406 44.2532 60.0857 45.8415C60.0857 45.8415 62.8957 42.2683 62.6802 37.3978C62.4646 32.5277 62.6907 44.0417 51.5298 44.6503Z" fill="#BED4F4"/>
<path d="M56.7007 35.333C56.7007 35.333 56.248 39.0388 55.367 41.315C55.367 41.315 56.647 39.4888 56.7007 35.333Z" fill="#BED4F4"/>
<path d="M47.2184 51.4534C47.2184 51.4534 50.5095 55.2649 50.1892 62.253C50.1892 62.2526 52.3332 56.297 47.2184 51.4534Z" fill="#BED4F4"/>
<path d="M64.3723 52.1677C64.3723 52.1677 64.1591 59.7567 64.9597 63.3868C65.36 65.27 65.9584 54.6181 65.9584 54.6181C65.9584 54.6181 66.0802 63.8805 67.5615 63.9995C69.0423 64.1185 69.0023 66.5761 69.0023 66.5761H42.3837C42.3837 66.5761 45.6661 63.7611 45.5862 58.5203C45.9865 61.0614 45.138 65.523 46.2668 65.3493C47.3951 65.1757 47.7881 58.3612 46.5472 55.7012C46.5472 55.7012 48.8691 61.339 48.7289 64.9523C48.5887 68.5651 54.4666 64.4759 54.1894 61.1407C54.1894 61.1407 55.1068 66.0646 57.1116 66.0245C59.1163 65.9844 56.6745 54.6176 56.6745 54.6176C56.6745 54.6176 59.1117 66.0646 60.9552 66.0245C62.7986 65.9844 64.3723 52.1677 64.3723 52.1677Z" fill="#BED4F4"/>
<path d="M70.9975 19.9431C71.0196 19.9846 71.072 20.0005 71.1138 19.9787C71.1556 19.9568 71.1717 19.9048 71.1497 19.8633L70.8693 19.3386L70.9263 19.3085L71.2067 19.8332C71.2287 19.8747 71.2811 19.8907 71.3229 19.8688C71.3648 19.8469 71.3808 19.7949 71.3588 19.7534L71.055 19.185C70.9419 18.9734 70.6772 18.8928 70.4635 19.0049L65.2594 21.742C65.2176 21.7639 65.2015 21.8158 65.2236 21.8573C65.2456 21.8988 65.298 21.9148 65.3399 21.8929L67.0845 20.9752C67.3295 20.8462 67.6333 20.9387 67.7633 21.1817L67.9564 21.5428C67.9784 21.5842 68.0308 21.6002 68.0726 21.5783C68.1145 21.5564 68.1305 21.5045 68.1085 21.463L67.8281 20.9383L67.8787 20.9118L68.159 21.4365C68.1811 21.478 68.2335 21.494 68.2753 21.4721C68.3171 21.4502 68.3332 21.3982 68.3112 21.3568L68.0308 20.832L68.0814 20.8056L68.3617 21.3303C68.3838 21.3718 68.4362 21.3878 68.478 21.3659C68.5198 21.344 68.5359 21.292 68.5139 21.2505L68.2335 20.7258L68.2841 20.6994L68.5644 21.2241C68.5865 21.2656 68.6389 21.2815 68.6807 21.2597C68.7225 21.2378 68.7386 21.1858 68.7165 21.1443L68.4362 20.6196L68.4867 20.5932L68.7671 21.1179C68.7892 21.1594 68.8415 21.1753 68.8834 21.1534C68.9252 21.1316 68.9413 21.0796 68.9192 21.0381L68.6389 20.5134L68.6894 20.487L68.9698 21.0117C68.9918 21.0531 69.0442 21.0691 69.0861 21.0472C69.1279 21.0253 69.144 20.9734 69.1219 20.9319L68.8415 20.4072L68.8921 20.3807L69.1725 20.9054C69.1945 20.9469 69.2469 20.9629 69.2887 20.941C69.3306 20.9191 69.3466 20.8671 69.3246 20.8257L69.0442 20.301L69.0948 20.2745L69.3751 20.7992C69.3972 20.8407 69.4496 20.8567 69.4914 20.8348C69.5332 20.8129 69.5493 20.7609 69.5273 20.7194L69.2469 20.1947L69.2975 20.1683L69.5778 20.693C69.5999 20.7345 69.6523 20.7504 69.6941 20.7286C69.7359 20.7067 69.752 20.6547 69.73 20.6132L69.4496 20.0885L69.5002 20.0621L69.7805 20.5868C69.8026 20.6283 69.855 20.6442 69.8968 20.6223C69.9386 20.6005 69.9547 20.5485 69.9326 20.507L69.6523 19.9823L69.7028 19.9559L69.9832 20.4806C70.0053 20.5221 70.0576 20.538 70.0995 20.5161C70.1413 20.4942 70.1574 20.4423 70.1353 20.4008L69.855 19.8761L69.9055 19.8496L70.1859 20.3743C70.2079 20.4158 70.2603 20.4318 70.3022 20.4099C70.344 20.388 70.3601 20.3361 70.338 20.2946L70.0577 19.7699L70.1082 19.7434L70.3886 20.2681C70.4111 20.3096 70.463 20.3256 70.5048 20.3037C70.5467 20.2818 70.5628 20.2298 70.5407 20.1884L70.2603 19.6636L70.3109 19.6372L70.5912 20.1619C70.6133 20.2034 70.6657 20.2194 70.7075 20.1975C70.7493 20.1756 70.7654 20.1236 70.7434 20.0821L70.463 19.5574L70.5136 19.531L70.7939 20.0557C70.816 20.0972 70.8684 20.1131 70.9102 20.0913C70.952 20.0694 70.9681 20.0174 70.9461 19.9759L70.6657 19.4512L70.7163 19.4248L70.9975 19.9431Z" fill="#AA413E"/>
<path d="M67.1614 20.4009L65.494 21.107C65.494 21.107 65.3823 21.8515 65.9623 22.4956C66.5418 23.1393 67.4928 21.293 67.4928 21.293C67.4928 21.293 67.5134 20.8764 67.1614 20.4009Z" fill="#FFB27D"/>
<path d="M44.3828 10.3555H25.632V40.1473H44.3828V10.3555Z" fill="#AA413E"/>
<path d="M45.3941 10.3555H26.6433V40.1473H45.3941V10.3555Z" fill="#C45446"/>
<path d="M43.188 12.6636H28.8494V37.8397H43.188V12.6636Z" fill="#AFCDFB"/>
<g opacity="0.5">
<path d="M40.8453 7.95499L40.406 7.42798L13.1358 29.7882L13.575 30.3152L40.8453 7.95499Z" fill="white"/>
<path d="M43.0732 10.6255L41.4917 8.72827L14.2215 31.092L15.8029 32.9893L43.0732 10.6255Z" fill="white"/>
<path d="M46.8511 14.8626L46.2946 14.1951L18.8785 36.6785L19.4349 37.346L46.8511 14.8626Z" fill="white"/>
<path d="M47.5819 15.7409L47.4648 15.6003L20.0486 38.0838L20.1658 38.2243L47.5819 15.7409Z" fill="white"/>
<path d="M51.5366 20.7801L48.7252 17.4072L21.4549 39.771L24.2664 43.1439L51.5366 20.7801Z" fill="white"/>
</g>
<path d="M29.1201 12.1175C29.4526 12.1175 29.7222 11.8501 29.7222 11.5203C29.7222 11.1905 29.4526 10.9231 29.1201 10.9231C28.7876 10.9231 28.518 11.1905 28.518 11.5203C28.518 11.8501 28.7876 12.1175 29.1201 12.1175Z" fill="#F99746"/>
<path d="M29.176 11.0759C29.2266 11.1493 29.1471 11.2902 28.9986 11.3909C28.8502 11.4912 28.6889 11.5131 28.6383 11.4397C28.5877 11.3663 28.6673 11.2254 28.8157 11.1247C28.9642 11.0244 29.1255 11.0025 29.176 11.0759Z" fill="white"/>
<path d="M27.7411 16.6763C28.0736 16.6763 28.3431 16.409 28.3431 16.0791C28.3431 15.7493 28.0736 15.4819 27.7411 15.4819C27.4085 15.4819 27.139 15.7493 27.139 16.0791C27.139 16.409 27.4085 16.6763 27.7411 16.6763Z" fill="#F99746"/>
<path d="M27.7968 15.6347C27.8474 15.7081 27.7679 15.849 27.6194 15.9497C27.471 16.05 27.3096 16.0719 27.2591 15.9985C27.2085 15.9251 27.288 15.7843 27.4365 15.6835C27.5849 15.5832 27.7463 15.5613 27.7968 15.6347Z" fill="white"/>
<path d="M27.7411 21.2349C28.0736 21.2349 28.3431 20.9675 28.3431 20.6377C28.3431 20.3079 28.0736 20.0405 27.7411 20.0405C27.4085 20.0405 27.139 20.3079 27.139 20.6377C27.139 20.9675 27.4085 21.2349 27.7411 21.2349Z" fill="#F99746"/>
<path d="M27.7968 20.1933C27.8474 20.2667 27.7679 20.4076 27.6194 20.5083C27.471 20.6086 27.3096 20.6305 27.2591 20.5571C27.2085 20.4837 27.288 20.3429 27.4365 20.2421C27.5849 20.1418 27.7463 20.1199 27.7968 20.1933Z" fill="white"/>
<path d="M27.7411 25.7938C28.0736 25.7938 28.3431 25.5264 28.3431 25.1966C28.3431 24.8667 28.0736 24.5994 27.7411 24.5994C27.4085 24.5994 27.139 24.8667 27.139 25.1966C27.139 25.5264 27.4085 25.7938 27.7411 25.7938Z" fill="#F99746"/>
<path d="M27.7968 24.7522C27.8474 24.8256 27.7679 24.9664 27.6194 25.0672C27.471 25.1675 27.3096 25.1893 27.2591 25.1159C27.2085 25.0426 27.288 24.9017 27.4365 24.8009C27.5849 24.7006 27.7463 24.6788 27.7968 24.7522Z" fill="white"/>
<path d="M27.7411 30.3526C28.0736 30.3526 28.3431 30.0852 28.3431 29.7554C28.3431 29.4256 28.0736 29.1582 27.7411 29.1582C27.4085 29.1582 27.139 29.4256 27.139 29.7554C27.139 30.0852 27.4085 30.3526 27.7411 30.3526Z" fill="#F99746"/>
<path d="M27.7968 29.311C27.8474 29.3844 27.7679 29.5252 27.6194 29.626C27.471 29.7263 27.3096 29.7486 27.2591 29.6752C27.2085 29.6018 27.288 29.461 27.4365 29.3602C27.5849 29.2595 27.7463 29.2376 27.7968 29.311Z" fill="white"/>
<path d="M28.3431 34.314C28.3431 34.644 28.0738 34.9112 27.7411 34.9112C27.4088 34.9112 27.139 34.6436 27.139 34.314C27.139 33.9844 27.4083 33.7168 27.7411 33.7168C28.0738 33.7168 28.3431 33.9844 28.3431 34.314Z" fill="#F99746"/>
<path d="M27.7968 33.8696C27.8474 33.943 27.7679 34.0838 27.6194 34.1846C27.471 34.2849 27.3096 34.3067 27.2591 34.2338C27.2085 34.1604 27.288 34.0195 27.4365 33.9188C27.5849 33.818 27.7463 33.7962 27.7968 33.8696Z" fill="white"/>
<path d="M44.287 16.6763C44.6195 16.6763 44.889 16.409 44.889 16.0791C44.889 15.7493 44.6195 15.4819 44.287 15.4819C43.9544 15.4819 43.6849 15.7493 43.6849 16.0791C43.6849 16.409 43.9544 16.6763 44.287 16.6763Z" fill="#F99746"/>
<path d="M44.3427 15.6347C44.3933 15.7081 44.3138 15.849 44.1653 15.9497C44.0169 16.05 43.8555 16.0719 43.805 15.9985C43.7544 15.9251 43.8339 15.7843 43.9824 15.6835C44.1308 15.5832 44.2922 15.5613 44.3427 15.6347Z" fill="white"/>
<path d="M44.287 21.2349C44.6195 21.2349 44.889 20.9675 44.889 20.6377C44.889 20.3079 44.6195 20.0405 44.287 20.0405C43.9544 20.0405 43.6849 20.3079 43.6849 20.6377C43.6849 20.9675 43.9544 21.2349 44.287 21.2349Z" fill="#F99746"/>
<path d="M44.3427 20.1933C44.3933 20.2667 44.3138 20.4076 44.1653 20.5083C44.0169 20.6086 43.8555 20.6305 43.805 20.5571C43.7544 20.4837 43.8339 20.3429 43.9824 20.2421C44.1308 20.1418 44.2922 20.1199 44.3427 20.1933Z" fill="white"/>
<path d="M44.287 25.7938C44.6195 25.7938 44.889 25.5264 44.889 25.1966C44.889 24.8667 44.6195 24.5994 44.287 24.5994C43.9544 24.5994 43.6849 24.8667 43.6849 25.1966C43.6849 25.5264 43.9544 25.7938 44.287 25.7938Z" fill="#F99746"/>
<path d="M44.3427 24.7522C44.3933 24.8256 44.3138 24.9664 44.1653 25.0672C44.0169 25.1675 43.8555 25.1893 43.805 25.1159C43.7544 25.0426 43.8339 24.9017 43.9824 24.8009C44.1308 24.7006 44.2922 24.6788 44.3427 24.7522Z" fill="white"/>
<path d="M44.287 30.3526C44.6195 30.3526 44.889 30.0852 44.889 29.7554C44.889 29.4256 44.6195 29.1582 44.287 29.1582C43.9544 29.1582 43.6849 29.4256 43.6849 29.7554C43.6849 30.0852 43.9544 30.3526 44.287 30.3526Z" fill="#F99746"/>
<path d="M44.3427 29.311C44.3933 29.3844 44.3138 29.5252 44.1653 29.626C44.0169 29.7263 43.8555 29.7486 43.805 29.6752C43.7544 29.6018 43.8339 29.461 43.9824 29.3602C44.1308 29.2595 44.2922 29.2376 44.3427 29.311Z" fill="white"/>
<path d="M44.889 34.314C44.889 34.644 44.6197 34.9112 44.287 34.9112C43.9547 34.9112 43.6849 34.6436 43.6849 34.314C43.6849 33.9844 43.9542 33.7168 44.287 33.7168C44.6197 33.7168 44.889 33.9844 44.889 34.314Z" fill="#F99746"/>
<path d="M44.3427 33.8696C44.3933 33.943 44.3138 34.0838 44.1653 34.1846C44.0169 34.2849 43.8555 34.3067 43.805 34.2338C43.7544 34.1604 43.8339 34.0195 43.9824 33.9188C44.1308 33.818 44.2922 33.7962 44.3427 33.8696Z" fill="white"/>
<path d="M33.7162 12.1175C34.0487 12.1175 34.3183 11.8501 34.3183 11.5203C34.3183 11.1905 34.0487 10.9231 33.7162 10.9231C33.3837 10.9231 33.1141 11.1905 33.1141 11.5203C33.1141 11.8501 33.3837 12.1175 33.7162 12.1175Z" fill="#F99746"/>
<path d="M33.772 11.0759C33.8225 11.1493 33.743 11.2902 33.5946 11.3909C33.4461 11.4912 33.2848 11.5131 33.2342 11.4397C33.1837 11.3663 33.2632 11.2254 33.4117 11.1247C33.5601 11.0244 33.7214 11.0025 33.772 11.0759Z" fill="white"/>
<path d="M38.3118 12.1175C38.6443 12.1175 38.9139 11.8501 38.9139 11.5203C38.9139 11.1905 38.6443 10.9231 38.3118 10.9231C37.9793 10.9231 37.7097 11.1905 37.7097 11.5203C37.7097 11.8501 37.9793 12.1175 38.3118 12.1175Z" fill="#F99746"/>
<path d="M38.3676 11.0759C38.4181 11.1493 38.3386 11.2902 38.1902 11.3909C38.0417 11.4912 37.8804 11.5131 37.8298 11.4397C37.7793 11.3663 37.8588 11.2254 38.0072 11.1247C38.1557 11.0244 38.317 11.0025 38.3676 11.0759Z" fill="white"/>
<path d="M42.9079 12.1175C43.2404 12.1175 43.51 11.8501 43.51 11.5203C43.51 11.1905 43.2404 10.9231 42.9079 10.9231C42.5754 10.9231 42.3058 11.1905 42.3058 11.5203C42.3058 11.8501 42.5754 12.1175 42.9079 12.1175Z" fill="#F99746"/>
<path d="M42.9635 11.0759C43.0141 11.1493 42.9345 11.2902 42.7861 11.3909C42.6376 11.4912 42.4763 11.5131 42.4258 11.4397C42.3752 11.3663 42.4547 11.2254 42.6032 11.1247C42.7516 11.0244 42.913 11.0025 42.9635 11.0759Z" fill="white"/>
<path d="M29.7222 38.9185C29.7222 39.2485 29.4529 39.5157 29.1201 39.5157C28.7878 39.5157 28.518 39.2481 28.518 38.9185C28.518 38.5889 28.7874 38.3213 29.1201 38.3213C29.4529 38.3213 29.7222 38.5889 29.7222 38.9185Z" fill="#F99746"/>
<path d="M29.176 38.4741C29.2266 38.5475 29.1471 38.6883 28.9986 38.7891C28.8502 38.8894 28.6889 38.9112 28.6383 38.8383C28.5877 38.7649 28.6673 38.624 28.8157 38.5233C28.9642 38.4225 29.1255 38.4007 29.176 38.4741Z" fill="white"/>
<path d="M34.3183 38.9185C34.3183 39.2485 34.0489 39.5157 33.7162 39.5157C33.3839 39.5157 33.1141 39.2481 33.1141 38.9185C33.1141 38.5889 33.3834 38.3213 33.7162 38.3213C34.0489 38.3213 34.3183 38.5889 34.3183 38.9185Z" fill="#F99746"/>
<path d="M33.772 38.4741C33.8225 38.5475 33.743 38.6883 33.5946 38.7891C33.4461 38.8894 33.2848 38.9112 33.2342 38.8383C33.1837 38.7649 33.2632 38.624 33.4117 38.5233C33.5601 38.4225 33.7214 38.4007 33.772 38.4741Z" fill="white"/>
<path d="M38.9139 38.9185C38.9139 39.2485 38.6446 39.5157 38.3118 39.5157C37.9795 39.5157 37.7097 39.2481 37.7097 38.9185C37.7097 38.5889 37.9791 38.3213 38.3118 38.3213C38.6446 38.3213 38.9139 38.5889 38.9139 38.9185Z" fill="#F99746"/>
<path d="M38.3676 38.4741C38.4181 38.5475 38.3386 38.6883 38.1902 38.7891C38.0417 38.8894 37.8804 38.9112 37.8298 38.8383C37.7793 38.7649 37.8588 38.624 38.0072 38.5233C38.1557 38.4225 38.317 38.4007 38.3676 38.4741Z" fill="white"/>
<path d="M43.51 38.9185C43.51 39.2485 43.2406 39.5157 42.9079 39.5157C42.5756 39.5157 42.3058 39.2481 42.3058 38.9185C42.3058 38.5889 42.5751 38.3213 42.9079 38.3213C43.2406 38.3213 43.51 38.5889 43.51 38.9185Z" fill="#F99746"/>
<path d="M42.9635 38.4741C43.0141 38.5475 42.9345 38.6883 42.7861 38.7891C42.6376 38.8894 42.4763 38.9112 42.4258 38.8383C42.3752 38.7649 42.4547 38.624 42.6032 38.5233C42.7516 38.4225 42.913 38.4007 42.9635 38.4741Z" fill="white"/>
<path d="M21.1227 54.4539C21.1227 54.4539 23.0985 52.1677 21.2445 50.7157C21.2445 50.7157 19.8905 49.9024 18.7861 49.9685C18.7861 49.9685 20.3506 52.5706 19.8445 52.8296C19.3385 53.0885 18.3122 49.8053 18.3122 49.8053C18.3122 49.8053 15.2306 49.509 14.2393 49.9817C14.2393 49.9817 16.8737 52.1198 16.319 52.2474C15.7642 52.3746 12.9188 50.2758 12.9188 50.2758C12.9188 50.2758 10.0509 50.7599 10.204 52.4954C10.357 54.2309 11.3452 54.7666 11.7795 54.7206C12.2138 54.6745 14.7545 53.7126 14.8101 54.0655C14.8652 54.4183 13.3361 55.5721 12.2653 55.6259C12.2653 55.6259 14.2875 57.8378 15.6309 57.1996C16.9748 56.5614 17.0897 55.5493 17.9271 55.17C18.7649 54.7903 19.4796 54.7917 19.134 55.1787C18.7879 55.5657 17.2722 55.9418 16.7928 56.7825C16.3139 57.6231 15.8842 58.1898 17.2745 57.9823C18.6648 57.7749 20.9246 56.7656 21.0239 55.6104C21.1227 54.4539 21.1227 54.4539 21.1227 54.4539Z" fill="#599DAD"/>
<path d="M11.6128 52.542C11.6128 52.542 19.4026 52.2443 21.1229 54.4539C21.1229 54.4539 21.5034 55.584 22.674 56.6134L22.8565 57.1067C22.8565 57.1067 21.5066 55.6948 21.0236 55.6096C21.0236 55.6096 21.7792 52.8716 11.6128 52.542Z" fill="#599DAD"/>
<path d="M22.6741 56.613C22.6741 56.613 24.3461 57.8393 24.4624 60.0312L24.1591 60.0581C24.1591 60.0581 23.625 57.7919 22.6599 56.9061C21.6943 56.0199 22.6741 56.613 22.6741 56.613Z" fill="#599DAD"/>
<path d="M28.0298 51.5786C28.0298 51.5786 24.8871 49.833 26.3537 47.4638C26.3537 47.4638 27.527 46.0091 28.7841 45.6349C28.7841 45.6349 28.1135 49.1679 28.7841 49.2509C29.4546 49.3338 29.245 45.2606 29.245 45.2606C29.245 45.2606 32.5555 43.6814 33.8544 43.8059C33.8544 43.8059 31.8013 47.2555 32.4714 47.1725C33.142 47.0896 35.4464 43.598 35.4464 43.598C35.4464 43.598 38.8406 42.9748 39.3852 44.9697C39.9298 46.9646 39.0501 47.9621 38.5469 48.087C38.0441 48.2115 34.8177 48.17 34.9013 48.5857C34.985 49.0015 37.1639 49.6666 38.3791 49.2923C38.3791 49.2923 37.038 52.576 35.2782 52.4096C33.5184 52.2432 32.9733 51.1628 31.8841 51.0794C30.7948 50.9964 29.9983 51.2872 30.5429 51.5781C31.0876 51.8689 32.9315 51.6734 33.8112 52.4155C34.6913 53.1577 35.4037 53.6149 33.7693 53.9473C32.135 54.2796 29.2018 54.0722 28.6154 52.8249C28.0298 51.5785 28.0298 51.5786 28.0298 51.5786Z" fill="#86D1CD"/>
<path d="M37.8357 45.5933C37.8357 45.5933 29.0362 48.4197 28.0301 51.5784C28.0301 51.5784 28.072 52.9917 27.1923 54.6127V55.2359C27.1923 55.2359 28.1142 53.1161 28.6171 52.8253C28.6171 52.8253 26.6477 50.0823 37.8357 45.5933Z" fill="#6BB7BF"/>
<path d="M27.1925 54.6128C27.1925 54.6128 25.8353 56.657 26.6093 59.1451L26.9586 59.0521C26.9586 59.0521 26.6198 56.3114 27.3295 54.9333C28.0391 53.5547 27.1925 54.6128 27.1925 54.6128Z" fill="#6BB7BF"/>
<path d="M23.0303 49.1712C23.0303 49.1712 27.1731 46.8699 25.2396 43.7472C25.2396 43.7472 23.693 41.8298 22.0357 41.3365C22.0357 41.3365 22.9195 45.9937 22.0357 46.1032C21.1519 46.2126 21.4281 40.8433 21.4281 40.8433C21.4281 40.8433 17.0647 38.7613 15.3522 38.9259C15.3522 38.9259 18.0588 43.4732 17.175 43.3638C16.2912 43.2544 13.2532 38.6519 13.2532 38.6519C13.2532 38.6519 8.77899 37.8299 8.0611 40.4599C7.3432 43.0898 8.50277 44.4046 9.16598 44.5691C9.82872 44.7337 14.0819 44.6785 13.9716 45.2265C13.8613 45.7745 10.9888 46.6511 9.38705 46.1579C9.38705 46.1579 11.1547 50.4864 13.4747 50.2671C15.7948 50.0478 16.5127 48.6232 17.9489 48.5138C19.3852 48.4044 20.4345 48.7878 19.7166 49.1712C18.9987 49.5546 16.5683 49.297 15.4083 50.2749C14.2482 51.2532 13.3093 51.8558 15.4634 52.2939C17.6176 52.732 21.4842 52.4585 22.2577 50.8146C23.0303 49.1712 23.0303 49.1712 23.0303 49.1712Z" fill="#86D1CD"/>
<path d="M10.1053 41.2817C10.1053 41.2817 21.7047 45.0071 23.0306 49.1711C23.0306 49.1711 22.9755 51.0338 24.1355 53.1705V53.9924C24.1355 53.9924 22.9203 51.1984 22.2576 50.8145C22.2571 50.8145 24.8534 47.1985 10.1053 41.2817Z" fill="#6BB7BF"/>
<path d="M24.135 53.1706C24.135 53.1706 25.9238 55.8648 24.9039 59.1448L24.4439 59.0222C24.4439 59.0222 24.8906 55.4094 23.9549 53.5927C23.0191 51.776 24.135 53.1706 24.135 53.1706Z" fill="#6BB7BF"/>
<path d="M15.0549 58.2085C15.0549 62.6537 18.688 66.2574 23.1696 66.2574C24.1053 66.2574 25.0038 66.1006 25.8403 65.8111C29.0102 64.7161 31.2847 61.7256 31.2847 58.2085H15.0549Z" fill="#ED7D2B"/>
<path d="M20.3965 58.2085C20.3965 61.2241 21.125 64.2958 23.5994 65.6744C24.0108 65.9037 25.3882 65.6552 25.84 65.8116C29.0098 64.7166 31.2844 61.726 31.2844 58.209H20.3965V58.2085Z" fill="#F99746"/>
<path d="M23.1697 66.2574C23.4997 66.2984 21.8396 66.2574 22.1811 66.2574C26.6626 66.2574 30.2958 62.6537 30.2958 58.208H28.28C28.28 62.3154 27.176 65.765 23.1697 66.2574Z" fill="#FFB176"/>
<path d="M14.9429 66.6672H31.397C31.397 66.3927 31.2849 66.1443 31.1038 65.9647C30.9227 65.7851 30.6723 65.6738 30.3956 65.6738H15.9439C15.391 65.6743 14.9429 66.1188 14.9429 66.6672Z" fill="#ED7D2B"/>
<path d="M22.6523 66.6672H31.3971C31.3971 66.3927 31.2849 66.1443 31.1039 65.9647C30.9228 65.7851 30.6723 65.6738 30.3956 65.6738H23.6533C23.1009 65.6743 22.6523 66.1188 22.6523 66.6672Z" fill="#F99746"/>
<path d="M31.5514 58.2085H14.8702V58.4556H31.5514V58.2085Z" fill="#DB6A1F"/>
<path d="M77.5098 28.251H71.3755C71.3195 28.251 71.2744 28.2961 71.2744 28.3513C71.2744 28.4064 71.3199 28.4516 71.3755 28.4516H76.9849V31.3578C76.9849 32.4364 76.1269 33.323 75.0404 33.3673L72.5627 33.468L75.1985 33.5045C76.3884 33.5045 77.3531 32.5476 77.3531 31.3678V28.4516H77.5103C77.5663 28.4516 77.6114 28.4064 77.6114 28.3513C77.6114 28.2961 77.5659 28.251 77.5098 28.251Z" fill="#ED7D2B"/>
</svg>
