<svg width="84" height="55" viewBox="0 0 84 55" fill="none" xmlns="http://www.w3.org/2000/svg">
<g clip-path="url(#clip0_40_3440)">
<path d="M28.98 50.6101L29 50.9901C29 50.9901 29.24 50.98 29.49 50.96C29.74 50.94 29.98 50.92 29.98 50.92L29.94 50.55C29.94 50.55 29.7 50.57 29.46 50.59C29.22 50.59 28.98 50.6101 28.98 50.6101Z" fill="#F268B4"/>
<path d="M27.54 50.6501V51.0201L28.52 51.0001L28.5 50.6301L27.54 50.6501Z" fill="#F268B4"/>
<path d="M26.1 50.6201L26.08 50.9901L27.06 51.0201V50.6401L26.1 50.6201Z" fill="#F268B4"/>
<path d="M24.66 50.51L24.63 50.88L25.6 50.96L25.63 50.59L24.66 50.51Z" fill="#F268B4"/>
<path d="M23.24 50.3201L23.18 50.6901L24.15 50.8301L24.2 50.4501L23.24 50.3201Z" fill="#F268B4"/>
<path d="M21.84 50.02L21.75 50.38C21.75 50.38 21.99 50.43 22.23 50.49C22.47 50.55 22.71 50.59 22.71 50.59L22.78 50.22C22.78 50.22 22.54 50.18 22.31 50.12C22.07 50.08 21.84 50.02 21.84 50.02Z" fill="#F268B4"/>
<path d="M20.48 49.6001L20.35 49.9501C20.35 49.9501 20.58 50.0301 20.82 50.1101C21.05 50.1901 21.29 50.2601 21.29 50.2601L21.4 49.9001C21.4 49.9001 21.17 49.8401 20.94 49.7601C20.7 49.6801 20.48 49.6001 20.48 49.6001Z" fill="#F268B4"/>
<path d="M19.19 49.01L19.01 49.34C19.01 49.34 19.89 49.79 19.9 49.77L20.04 49.42C20.04 49.44 19.19 49.01 19.19 49.01Z" fill="#F268B4"/>
<path d="M18.03 48.21L17.79 48.49C17.79 48.49 17.98 48.65 18.18 48.8C18.38 48.96 18.59 49.08 18.59 49.08L18.79 48.76C18.79 48.76 18.58 48.64 18.4 48.49C18.21 48.37 18.03 48.21 18.03 48.21Z" fill="#F268B4"/>
<path d="M17.11 47.1799L16.8 47.3899C16.77 47.4099 17.42 48.1899 17.43 48.1699L17.7 47.9099C17.68 47.9099 17.08 47.1899 17.11 47.1799Z" fill="#F268B4"/>
<path d="M16.52 45.9199L16.16 46.0299C16.17 46.0299 16.21 46.2799 16.32 46.4999C16.42 46.7299 16.53 46.9599 16.53 46.9599L16.86 46.7799C16.86 46.7799 16.76 46.5699 16.67 46.3599C16.56 46.1499 16.53 45.9199 16.52 45.9199Z" fill="#F268B4"/>
<path d="M16.3 44.5498L15.92 44.5598C15.92 44.5598 15.9 44.8098 15.96 45.0598C16 45.3098 16.03 45.5598 16.03 45.5598L16.4 45.4798C16.4 45.4798 16.37 45.2498 16.33 45.0198C16.28 44.7898 16.3 44.5498 16.3 44.5498Z" fill="#F268B4"/>
<path d="M16.39 43.1398L16.02 43.0798C16.02 43.0798 15.99 43.3298 15.96 43.5798C15.93 43.8298 15.91 44.0698 15.91 44.0698L16.29 44.0898C16.28 44.0898 16.31 43.8498 16.33 43.6198C16.36 43.3798 16.39 43.1398 16.39 43.1398Z" fill="#F268B4"/>
<path d="M16.73 41.7699L16.37 41.6599C16.37 41.6599 16.3 41.8999 16.22 42.1299C16.17 42.3699 16.11 42.6099 16.11 42.6099L16.48 42.6899C16.48 42.6899 16.53 42.4599 16.58 42.2199C16.66 41.9899 16.73 41.7699 16.73 41.7699Z" fill="#F268B4"/>
<path d="M17.18 40.39L16.82 40.27L16.52 41.19L16.87 41.32L17.18 40.39Z" fill="#F268B4"/>
<path d="M17.64 39.0101L17.27 38.9001L16.97 39.8201L17.33 39.9401L17.64 39.0101Z" fill="#F268B4"/>
<path d="M18.01 37.6L17.65 37.51L17.4 38.45L17.76 38.55L18.01 37.6Z" fill="#F268B4"/>
<path d="M18.33 36.1801L17.96 36.1101C17.96 36.1101 17.79 37.0601 17.77 37.0601L18.14 37.1501C18.15 37.1501 18.33 36.1801 18.33 36.1801Z" fill="#F268B4"/>
<path d="M18.57 34.7402L18.19 34.6902C18.19 34.6902 18.16 34.9302 18.14 35.1702C18.1 35.4102 18.05 35.6402 18.05 35.6402L18.42 35.7002C18.42 35.7002 18.46 35.4602 18.51 35.2202C18.54 34.9902 18.57 34.7402 18.57 34.7402Z" fill="#F268B4"/>
<path d="M18.7 33.29L18.33 33.27C18.36 33.27 18.25 34.23 18.25 34.23L18.63 34.27C18.62 34.26 18.73 33.29 18.7 33.29Z" fill="#F268B4"/>
<path d="M18.7 31.8201L18.33 31.8401C18.36 31.8401 18.33 32.8001 18.33 32.8001L18.71 32.8101C18.71 32.8001 18.73 31.8201 18.7 31.8201Z" fill="#F268B4"/>
<path d="M18.54 30.3599L18.17 30.4199C18.17 30.4199 18.18 30.4799 18.2 30.5699C18.22 30.6599 18.24 30.7799 18.24 30.8999C18.26 31.1399 18.28 31.3799 18.28 31.3799L18.66 31.3499C18.66 31.3499 18.64 31.1099 18.62 30.8599C18.61 30.7399 18.6 30.6199 18.58 30.5199C18.56 30.4199 18.54 30.3599 18.54 30.3599Z" fill="#F268B4"/>
<path d="M18.21 28.9299L17.85 29.0399C17.85 29.0399 17.92 29.2699 17.99 29.4999C18.03 29.7299 18.08 29.9699 18.08 29.9699L18.45 29.8899C18.45 29.8899 18.4 29.6499 18.35 29.4099C18.29 29.1599 18.21 28.9299 18.21 28.9299Z" fill="#F268B4"/>
<path d="M17.72 27.5398L17.37 27.6898C17.37 27.6898 17.74 28.5698 17.71 28.5798L18.07 28.4598C18.1 28.4598 17.72 27.5398 17.72 27.5398Z" fill="#F268B4"/>
<path d="M17.08 26.22L16.75 26.4L17.19 27.26L17.53 27.1L17.08 26.22Z" fill="#F268B4"/>
<path d="M16.35 24.96L16.03 25.16C16.03 25.16 16.16 25.36 16.28 25.57C16.4 25.78 16.53 25.99 16.53 25.99L16.86 25.8C16.86 25.8 16.74 25.59 16.61 25.38C16.48 25.17 16.35 24.96 16.35 24.96Z" fill="#F268B4"/>
<path d="M15.56 23.74L15.24 23.95L15.77 24.76L16.09 24.56L15.56 23.74Z" fill="#F268B4"/>
<path d="M14.7604 22.5251L14.4426 22.7334L14.9743 23.5447L15.2921 23.3364L14.7604 22.5251Z" fill="#F268B4"/>
<path d="M13.99 21.3098L13.67 21.5098L14.19 22.3398L14.5 22.1298L13.99 21.3098Z" fill="#F268B4"/>
<path d="M13.26 20.0698L12.93 20.2498L13.42 21.0998L13.74 20.9098L13.26 20.0698Z" fill="#F268B4"/>
<path d="M12.66 18.7898L12.31 18.9198C12.31 18.9198 12.38 19.1598 12.49 19.3798C12.6 19.6098 12.7 19.8298 12.7 19.8298L13.04 19.6598C13.04 19.6598 12.94 19.4498 12.83 19.2298C12.73 19.0098 12.66 18.7898 12.66 18.7898Z" fill="#F268B4"/>
<path d="M12.31 17.4299L11.94 17.4899C11.91 17.4999 12.15 18.4599 12.15 18.4599L12.51 18.3499C12.51 18.3499 12.28 17.4299 12.31 17.4299Z" fill="#F268B4"/>
<path d="M12.23 16.03L11.86 16C11.83 16 11.87 17 11.87 17L12.24 16.97C12.24 16.97 12.2 16.02 12.23 16.03Z" fill="#F268B4"/>
<path d="M12.46 14.6398L12.1 14.5398C12.1 14.5398 12.02 14.7798 11.98 15.0298C11.94 15.2798 11.89 15.5198 11.89 15.5198L12.26 15.5698C12.26 15.5698 12.3 15.3398 12.34 15.0998C12.38 14.8698 12.46 14.6398 12.46 14.6398Z" fill="#F268B4"/>
<path d="M12.98 13.3399L12.65 13.1599C12.65 13.1599 12.54 13.3799 12.43 13.6099C12.34 13.8399 12.25 14.0699 12.25 14.0699L12.6 14.1999C12.6 14.1999 12.69 13.9799 12.77 13.7599C12.88 13.5499 12.98 13.3399 12.98 13.3399Z" fill="#F268B4"/>
<path d="M13.76 12.1699L13.47 11.9299C13.47 11.9299 13.32 12.1299 13.17 12.3299C13.02 12.5299 12.89 12.7399 12.89 12.7399L13.21 12.9399C13.21 12.9399 13.33 12.7299 13.47 12.5499C13.62 12.3599 13.76 12.1699 13.76 12.1699Z" fill="#F268B4"/>
<path d="M14.77 11.1901L14.54 10.9001C14.53 10.8801 13.79 11.5601 13.81 11.5701L14.08 11.8301C14.06 11.8101 14.76 11.1701 14.77 11.1901Z" fill="#F268B4"/>
<path d="M15.96 10.4401L15.8 10.1001C15.8 10.1001 15.57 10.2001 15.36 10.3401C15.15 10.4701 14.94 10.6001 14.94 10.6001L15.15 10.9101C15.15 10.9101 15.35 10.7901 15.55 10.6601C15.74 10.5401 15.96 10.4401 15.96 10.4401Z" fill="#F268B4"/>
<path d="M17.28 9.9701L17.19 9.6001C17.19 9.6001 16.95 9.6601 16.71 9.7301C16.47 9.8101 16.24 9.9001 16.24 9.9001L16.38 10.2501C16.38 10.2501 16.6 10.1601 16.82 10.0901C17.05 10.0301 17.28 9.9701 17.28 9.9701Z" fill="#F268B4"/>
<path d="M18.67 9.83L18.68 9.45C18.68 9.42 17.68 9.49 17.68 9.51L17.73 9.88C17.73 9.87 18.67 9.8 18.67 9.83Z" fill="#F268B4"/>
<path d="M20.04 10.06L20.15 9.69998C20.15 9.69998 19.91 9.60998 19.66 9.56998C19.41 9.52998 19.16 9.47998 19.16 9.47998L19.12 9.84998C19.12 9.84998 19.35 9.88998 19.58 9.92998C19.82 9.97998 20.04 10.06 20.04 10.06Z" fill="#F268B4"/>
<path d="M21.3 10.6401L21.5 10.3201C21.5 10.3201 21.28 10.1901 21.07 10.0701C20.84 9.97012 20.61 9.87012 20.61 9.87012L20.47 10.2201C20.47 10.2201 20.68 10.3201 20.9 10.4101C21.1 10.5201 21.3 10.6401 21.3 10.6401Z" fill="#F268B4"/>
<path d="M22.39 11.5201L22.66 11.2501C22.66 11.2501 22.48 11.0801 22.3 10.9101C22.12 10.7401 21.91 10.6001 21.91 10.6001L21.68 10.9001C21.68 10.9001 21.88 11.0301 22.05 11.1901C22.22 11.3601 22.39 11.5201 22.39 11.5201Z" fill="#F268B4"/>
<path d="M23.28 12.6201L23.59 12.4101C23.59 12.4101 23.45 12.2001 23.31 12.0001C23.15 11.8101 22.99 11.6201 22.99 11.6201L22.71 11.8701C22.71 11.8701 22.86 12.0501 23.02 12.2301C23.14 12.4201 23.28 12.6201 23.28 12.6201Z" fill="#F268B4"/>
<path d="M23.98 13.8501L24.32 13.6901C24.34 13.6801 23.85 12.8201 23.85 12.8201L23.53 13.0101C23.53 13.0101 24 13.8401 23.98 13.8501Z" fill="#F268B4"/>
<path d="M24.57 15.1701L24.91 15.0201L24.52 14.1301L24.17 14.2801L24.57 15.1701Z" fill="#F268B4"/>
<path d="M25.22 16.4802L25.55 16.3002C25.55 16.3002 25.44 16.0902 25.32 15.8802C25.21 15.6702 25.1 15.4502 25.1 15.4502L24.76 15.6102C24.76 15.6102 24.86 15.8302 24.98 16.0502C25.1 16.2602 25.22 16.4802 25.22 16.4802Z" fill="#F268B4"/>
<path d="M25.99 17.7302L26.3 17.5102C26.3 17.5102 26.16 17.3102 26.04 17.1102C25.91 16.9102 25.78 16.7102 25.78 16.7102L25.46 16.9002C25.46 16.9002 25.59 17.1102 25.73 17.3202C25.86 17.5202 25.99 17.7302 25.99 17.7302Z" fill="#F268B4"/>
<path d="M26.94 18.8601L27.21 18.6001C27.21 18.6001 27.05 18.4301 26.88 18.2501C26.73 18.0601 26.59 17.8701 26.59 17.8701L26.3 18.1001C26.3 18.1001 26.45 18.2901 26.6 18.4901C26.77 18.6801 26.94 18.8601 26.94 18.8601Z" fill="#F268B4"/>
<path d="M28.04 19.8499L28.26 19.5499C28.24 19.5699 27.53 18.9399 27.53 18.9399L27.27 19.2099C27.27 19.2099 28.02 19.8699 28.04 19.8499Z" fill="#F268B4"/>
<path d="M29.3 20.6201L29.46 20.2801C29.46 20.2801 28.62 19.8301 28.64 19.8101L28.43 20.1301C28.42 20.1501 29.3 20.6201 29.3 20.6201Z" fill="#F268B4"/>
<path d="M30.69 21.13L30.79 20.77C30.79 20.77 30.56 20.7 30.33 20.64C30.1 20.57 29.89 20.47 29.89 20.47L29.75 20.82C29.75 20.82 29.98 20.92 30.22 21C30.45 21.06 30.69 21.13 30.69 21.13Z" fill="#F268B4"/>
<path d="M32.15 21.3799L32.18 20.9999C32.18 20.9999 31.94 20.9799 31.71 20.9599C31.48 20.9199 31.24 20.8699 31.24 20.8699L31.17 21.2399C31.17 21.2399 31.41 21.2899 31.66 21.3299C31.91 21.3499 32.15 21.3799 32.15 21.3799Z" fill="#F268B4"/>
<path d="M33.63 21.37L33.6 21C33.6 21 33.36 21.03 33.12 21.03C32.88 21.03 32.64 21.03 32.64 21.03L32.63 21.4C32.63 21.4 32.88 21.4 33.13 21.4C33.38 21.4 33.63 21.37 33.63 21.37Z" fill="#F268B4"/>
<path d="M35.08 21.16L35 20.79C35 20.79 34.77 20.85 34.53 20.88C34.29 20.92 34.06 20.95 34.06 20.95L34.11 21.32C34.11 21.32 34.35 21.28 34.6 21.25C34.84 21.22 35.08 21.16 35.08 21.16Z" fill="#F268B4"/>
<path d="M36.5 20.7799L36.39 20.4199C36.39 20.4199 36.16 20.4899 35.93 20.5599C35.7 20.6299 35.47 20.6899 35.47 20.6899L35.56 21.0499C35.56 21.0499 35.8 20.9899 36.04 20.9199C36.27 20.8599 36.5 20.7799 36.5 20.7799Z" fill="#F268B4"/>
<path d="M37.88 20.2699L37.73 19.9199C37.73 19.9199 37.51 20.0099 37.28 20.0999C37.06 20.1899 36.83 20.2699 36.83 20.2699L36.95 20.6199C36.95 20.6199 37.19 20.5399 37.41 20.4499C37.65 20.3599 37.88 20.2699 37.88 20.2699Z" fill="#F268B4"/>
<path d="M39.2 19.6601L39.03 19.3301C39.03 19.3301 38.81 19.4401 38.6 19.5401C38.38 19.6401 38.16 19.7401 38.16 19.7401L38.31 20.0801C38.31 20.0801 38.53 19.9801 38.75 19.8801C38.98 19.7701 39.2 19.6601 39.2 19.6601Z" fill="#F268B4"/>
<path d="M40.48 18.9599L40.29 18.6399C40.29 18.6399 40.08 18.7599 39.87 18.8799C39.66 18.9899 39.45 19.1099 39.45 19.1099L39.63 19.4399C39.63 19.4399 39.84 19.3199 40.06 19.2099C40.27 19.0799 40.48 18.9599 40.48 18.9599Z" fill="#F268B4"/>
<path d="M41.72 18.1899L41.51 17.8799C41.51 17.8799 41.31 18.0099 41.11 18.1399C40.9 18.2699 40.7 18.3999 40.7 18.3999L40.9 18.7199C40.9 18.7199 41.11 18.5899 41.31 18.4599C41.52 18.3199 41.72 18.1899 41.72 18.1899Z" fill="#F268B4"/>
<path d="M42.92 17.35L42.69 17.05L41.91 17.6101L42.12 17.92L42.92 17.35Z" fill="#F268B4"/>
<path d="M44.07 16.4599L43.83 16.1699C43.83 16.1699 43.64 16.3199 43.45 16.4699C43.26 16.6199 43.07 16.7599 43.07 16.7599L43.3 17.0599C43.3 17.0599 43.49 16.9099 43.69 16.7599C43.88 16.6099 44.07 16.4599 44.07 16.4599Z" fill="#F268B4"/>
<path d="M45.17 15.5L44.91 15.23C44.91 15.23 44.73 15.39 44.55 15.55C44.37 15.71 44.19 15.87 44.19 15.87L44.44 16.16C44.44 16.16 44.62 16 44.81 15.84C44.99 15.66 45.17 15.5 45.17 15.5Z" fill="#F268B4"/>
<path d="M46.25 14.56L46.02 14.26C46.02 14.26 45.83 14.42 45.64 14.57C45.45 14.73 45.27 14.9 45.27 14.9L45.52 15.18C45.52 15.18 45.69 15.01 45.88 14.86C46.06 14.71 46.25 14.56 46.25 14.56Z" fill="#F268B4"/>
<path d="M47.42 13.7599L47.23 13.4399C47.23 13.4399 47.02 13.5699 46.81 13.6999C46.6 13.8299 46.41 13.9799 46.41 13.9799L46.63 14.2799C46.63 14.2799 46.82 14.1399 47.02 14.0099C47.22 13.8799 47.42 13.7599 47.42 13.7599Z" fill="#F268B4"/>
<path d="M48.69 13.12L48.55 12.77C48.55 12.77 48.32 12.85 48.1 12.97C47.88 13.08 47.66 13.2 47.66 13.2L47.84 13.53C47.84 13.53 48.05 13.42 48.26 13.31C48.47 13.2 48.69 13.11 48.69 13.12Z" fill="#F268B4"/>
<path d="M50.03 12.6798L49.95 12.3098C49.94 12.2898 48.99 12.5798 48.99 12.5798L49.11 12.9298C49.12 12.9398 50.03 12.6598 50.03 12.6798Z" fill="#F268B4"/>
<path d="M51.43 12.5399V12.1699C51.43 12.1699 51.18 12.1799 50.93 12.1799C50.68 12.1699 50.43 12.2499 50.43 12.2399L50.48 12.6099C50.48 12.6199 50.71 12.5499 50.95 12.5599C51.19 12.5399 51.43 12.5399 51.43 12.5399Z" fill="#F268B4"/>
<path d="M52.8 12.7299L52.9 12.3699C52.9 12.3799 52.67 12.2699 52.41 12.2499C52.16 12.2199 51.91 12.1899 51.91 12.1899L51.88 12.5699C51.88 12.5699 52.11 12.5999 52.34 12.6299C52.59 12.6399 52.8 12.7399 52.8 12.7299Z" fill="#F268B4"/>
<path d="M54.1 13.26L54.28 12.93C54.28 12.93 54.05 12.82 53.83 12.71C53.72 12.66 53.6 12.6 53.52 12.56C53.43 12.53 53.37 12.51 53.37 12.51L53.24 12.86C53.24 12.86 53.3 12.88 53.38 12.9C53.46 12.94 53.56 12.99 53.67 13.04C53.89 13.15 54.1 13.26 54.1 13.26Z" fill="#F268B4"/>
<path d="M55.24 14.0699L55.49 13.7899C55.5 13.7799 55.31 13.6199 55.1 13.4799C54.9 13.3399 54.69 13.1899 54.69 13.1899L54.48 13.4999C54.48 13.4999 54.67 13.6399 54.86 13.7799C55.07 13.9099 55.25 14.0599 55.24 14.0699Z" fill="#F268B4"/>
<path d="M56.23 15.0899L56.52 14.8499C56.51 14.8599 56.39 14.6399 56.2 14.4699C56.02 14.2999 55.84 14.1199 55.84 14.1199L55.58 14.3899C55.58 14.3899 55.75 14.5599 55.92 14.7199C56.09 14.8899 56.22 15.0999 56.23 15.0899Z" fill="#F268B4"/>
<path d="M57.07 16.24L57.38 16.03C57.38 16.03 57.26 15.81 57.11 15.62C56.96 15.43 56.81 15.23 56.81 15.23L56.51 15.46C56.51 15.46 56.66 15.65 56.8 15.84C56.95 16.03 57.07 16.24 57.07 16.24Z" fill="#F268B4"/>
<path d="M57.82 17.4599L58.14 17.2799L57.63 16.4399L57.31 16.6399L57.82 17.4599Z" fill="#F268B4"/>
<path d="M58.6 18.7099L58.9 18.4899C58.88 18.5099 58.39 17.6799 58.39 17.6799L58.07 17.8799C58.07 17.8699 58.57 18.7199 58.6 18.7099Z" fill="#F268B4"/>
<path d="M59.54 19.8399L59.81 19.5799C59.78 19.6099 59.19 18.8499 59.19 18.8499L58.9 19.0799C58.9 19.0799 59.51 19.8599 59.54 19.8399Z" fill="#F268B4"/>
<path d="M60.66 20.8099L60.88 20.4999C60.88 20.4999 60.68 20.3699 60.5 20.2199C60.33 20.0599 60.16 19.8899 60.16 19.8899L59.9 20.1599C59.9 20.1599 60.08 20.3299 60.26 20.4999C60.45 20.6699 60.66 20.8099 60.66 20.8099Z" fill="#F268B4"/>
<path d="M61.94 21.55L62.09 21.21C62.09 21.21 61.23 20.81 61.26 20.77L61.06 21.09C61.04 21.12 61.94 21.55 61.94 21.55Z" fill="#F268B4"/>
<path d="M63.36 22.0101L63.44 21.6401C63.43 21.6801 62.53 21.3801 62.53 21.3801L62.4 21.7301C62.4 21.7401 63.35 22.0501 63.36 22.0101Z" fill="#F268B4"/>
<path d="M64.83 22.1602V21.7802C64.83 21.7802 64.59 21.7702 64.36 21.7702C64.12 21.7802 63.89 21.7102 63.89 21.7202L63.84 22.0902C63.84 22.0902 63.9 22.1002 63.99 22.1102C64.08 22.1302 64.21 22.1402 64.33 22.1402C64.58 22.1502 64.83 22.1602 64.83 22.1602Z" fill="#F268B4"/>
<path d="M66.31 22.0502L66.25 21.6802C66.25 21.7002 65.3 21.7802 65.3 21.7802L65.32 22.1602C65.32 22.1502 66.31 22.0702 66.31 22.0502Z" fill="#F268B4"/>
<path d="M67.74 21.7301L67.64 21.3701C67.64 21.3701 67.41 21.4301 67.17 21.4901C66.94 21.5501 66.71 21.6001 66.71 21.6001L66.78 21.9701C66.78 21.9701 67.02 21.9201 67.26 21.8601C67.5 21.7901 67.74 21.7301 67.74 21.7301Z" fill="#F268B4"/>
<path d="M69.13 21.2501L68.99 20.9001C68.99 20.9001 68.77 20.9901 68.54 21.0701C68.32 21.1501 68.08 21.2201 68.08 21.2201L68.2 21.5801C68.2 21.5801 68.44 21.5101 68.67 21.4201C68.9 21.3401 69.13 21.2501 69.13 21.2501Z" fill="#F268B4"/>
<path d="M70.47 20.6901L70.32 20.3501L69.43 20.7301L69.57 21.0801L70.47 20.6901Z" fill="#F268B4"/>
<path d="M71.8 20.2499L71.72 19.8799C71.72 19.8799 71.48 19.9199 71.24 19.9899C71 20.0699 70.76 20.1499 70.76 20.1499L70.9 20.4999C70.9 20.4999 71.12 20.4299 71.35 20.3499C71.57 20.2899 71.8 20.2499 71.8 20.2499Z" fill="#F268B4"/>
<path d="M73.21 20.0699L73.18 19.6899C73.18 19.6899 72.93 19.6999 72.69 19.7299C72.44 19.7599 72.2 19.7899 72.2 19.7899L72.26 20.1599C72.26 20.1599 72.5 20.1299 72.73 20.0999C72.97 20.0799 73.21 20.0699 73.21 20.0699Z" fill="#F268B4"/>
<path d="M74.64 20.0499L74.65 19.6799L73.67 19.6699L73.68 20.0399L74.64 20.0499Z" fill="#F268B4"/>
<path d="M76.06 20.2L76.12 19.83C76.12 19.83 75.88 19.78 75.63 19.76C75.38 19.74 75.14 19.72 75.14 19.72L75.11 20.09C75.11 20.09 75.35 20.11 75.59 20.13C75.82 20.15 76.06 20.2 76.06 20.2Z" fill="#F268B4"/>
<path d="M77.45 20.5L77.56 20.14C77.56 20.14 76.6 19.88 76.6 19.9L76.53 20.27C76.52 20.25 77.45 20.5 77.45 20.5Z" fill="#F268B4"/>
<path d="M78.77 20.99L78.93 20.65C78.94 20.62 78.01 20.28 78.01 20.28L77.89 20.63C77.89 20.64 78.79 20.97 78.77 20.99Z" fill="#F268B4"/>
<path d="M79.98 21.7099L80.2 21.4099C80.2 21.4099 80 21.2599 79.8 21.1199C79.58 20.9999 79.36 20.8899 79.36 20.8899L79.18 21.2199C79.18 21.2199 79.39 21.3299 79.6 21.4399C79.79 21.5699 79.98 21.7099 79.98 21.7099Z" fill="#F268B4"/>
<path d="M81.03 22.6499L81.31 22.3999C81.31 22.3999 81.14 22.2199 80.96 22.0399C80.79 21.8499 80.6 21.6899 80.6 21.6999L80.36 21.9899C80.37 21.9799 80.55 22.1299 80.7 22.3099C80.86 22.4799 81.03 22.6499 81.03 22.6499Z" fill="#F268B4"/>
<path d="M81.84 23.7898L82.17 23.6098L81.62 22.7798L81.32 22.9998L81.84 23.7898Z" fill="#F268B4"/>
<path d="M82.35 25.0998L82.71 24.9898C82.76 24.9698 82.36 24.0598 82.36 24.0598L82.02 24.2098C82.02 24.2198 82.4 25.0798 82.35 25.0998Z" fill="#F268B4"/>
<path d="M82.62 26.48L82.99 26.44C82.98 26.44 83 26.19 82.93 25.95C82.88 25.71 82.82 25.47 82.82 25.47L82.45 25.55C82.45 25.55 82.5 25.78 82.56 26.01C82.63 26.24 82.61 26.49 82.62 26.48Z" fill="#F268B4"/>
<path d="M82.68 27.8999L83.06 27.9199C83.1 27.9199 83.03 26.9299 83.03 26.9299L82.65 26.9499C82.65 26.9499 82.72 27.8999 82.68 27.8999Z" fill="#F268B4"/>
<path d="M82.48 29.2999L82.84 29.3799C82.84 29.3799 82.89 29.1399 82.95 28.8999C83.02 28.6599 83 28.3999 83.01 28.4099L82.64 28.3699C82.63 28.3699 82.64 28.6099 82.58 28.8399C82.53 29.0599 82.48 29.2999 82.48 29.2999Z" fill="#F268B4"/>
<path d="M82.06 30.64L82.4 30.79L82.74 29.85L82.37 29.75L82.06 30.64Z" fill="#F268B4"/>
<path d="M81.39 31.8901L81.7 32.0901C81.7 32.0901 81.86 31.8901 81.96 31.6701C82.07 31.4501 82.19 31.2301 82.19 31.2301L81.85 31.0601C81.85 31.0601 81.42 31.9101 81.39 31.8901Z" fill="#F268B4"/>
<path d="M80.53 33L80.81 33.25C80.81 33.25 80.98 33.07 81.14 32.88C81.3 32.69 81.43 32.48 81.43 32.48L81.12 32.26C81.12 32.26 80.99 32.46 80.84 32.64C80.68 32.83 80.53 33 80.53 33Z" fill="#F268B4"/>
<path d="M79.49 33.9601L79.72 34.2601C79.72 34.2601 79.91 34.1001 80.1 33.9501C80.2 33.8701 80.29 33.7901 80.37 33.7301C80.43 33.6601 80.47 33.6201 80.47 33.6201L80.21 33.3501C80.21 33.3501 80.17 33.3901 80.11 33.4601C80.04 33.5201 79.95 33.5901 79.86 33.6701C79.67 33.8101 79.49 33.9601 79.49 33.9601Z" fill="#F268B4"/>
<path d="M78.3 34.73L78.48 35.06L79.33 34.56L79.12 34.25L78.3 34.73Z" fill="#F268B4"/>
<path d="M77.01 35.2902L77.12 35.6502L78.04 35.2702L77.89 34.9302L77.01 35.2902Z" fill="#F268B4"/>
<path d="M75.63 35.6302L75.69 36.0002L76.66 35.7802L76.56 35.4102L75.63 35.6302Z" fill="#F268B4"/>
<path d="M74.21 35.7702L74.23 36.1402L75.21 36.0602L75.17 35.6802L74.21 35.7702Z" fill="#F268B4"/>
<path d="M72.79 35.72L72.76 36.09L73.75 36.14V35.77L72.79 35.72Z" fill="#F268B4"/>
<path d="M71.38 35.51L71.31 35.88L72.28 36.06L72.33 35.68L71.38 35.51Z" fill="#F268B4"/>
<path d="M69.99 35.1899L69.89 35.5499C69.89 35.5499 70.12 35.6199 70.36 35.6899C70.48 35.7299 70.6 35.7499 70.69 35.7699C70.78 35.7799 70.84 35.7999 70.84 35.7999L70.92 35.4299C70.92 35.4299 70.86 35.4199 70.77 35.3999C70.68 35.3899 70.56 35.3599 70.45 35.3199C70.22 35.2599 69.99 35.1899 69.99 35.1899Z" fill="#F268B4"/>
<path d="M68.61 34.78L68.49 35.13L69.43 35.42L69.54 35.06L68.61 34.78Z" fill="#F268B4"/>
<path d="M67.29 34.23L67.14 34.57L68.04 34.95L68.18 34.59L67.29 34.23Z" fill="#F268B4"/>
<path d="M65.98 33.6199L65.81 33.9599C65.81 33.9599 66.03 34.0699 66.24 34.1899C66.46 34.3099 66.69 34.3899 66.69 34.3899L66.85 34.0499C66.85 34.0499 66.62 33.9699 66.41 33.8499C66.2 33.7299 65.98 33.6199 65.98 33.6199Z" fill="#F268B4"/>
<path d="M64.71 32.95L64.53 33.2799L65.39 33.74L65.57 33.4L64.71 32.95Z" fill="#F268B4"/>
<path d="M66.49 53.45H14.62V34.47C14.62 34.47 16.46 31.04 17.57 30.48C19.04 29.74 24.18 30.48 24.18 30.48C24.18 30.48 32.93 30.34 36.28 30.48C37.38 30.52 39.46 32.58 40.56 32.62C41.82 32.66 43.85 30.48 45.11 30.48C49.72 30.48 57.07 30.88 61.65 30.48C65.42 30.15 66.49 34.28 66.49 34.28V53.45Z" fill="#B38CFF"/>
<path opacity="0.3" d="M27.24 30.48C26.85 33.75 26.09 36.79 24.37 40.21C24.24 40.65 24.17 41.11 24.17 41.59C24.17 44.69 26.97 47.21 30.42 47.21C33.88 47.21 36.68 44.69 36.68 41.59C36.68 41.59 36.85 37.42 35.41 30.48H27.24Z" fill="black"/>
<path opacity="0.3" d="M49.4 30.48C49.04 33.75 48.33 36.79 46.72 40.21C46.6 40.65 46.54 41.11 46.54 41.59C46.54 44.69 49.16 47.21 52.39 47.21C55.62 47.21 58.24 44.69 58.24 41.59C58.24 41.59 58.4 37.42 57.05 30.48H49.4Z" fill="black"/>
<path d="M48.33 7.30005C48.33 7.30005 59.11 25.52 47.94 40.1C47.78 40.4 47.65 40.7101 47.57 41.0601C47.05 43.2901 48.44 45.5201 50.67 46.0401C52.9 46.5601 55.13 45.17 55.65 42.94C55.64 42.93 61.03 19.5 48.33 7.30005Z" fill="#F4A517"/>
<path d="M9.40001 10.66C8.72001 10.66 8.17001 10.12 8.17001 9.44999C8.17001 8.77999 8.72001 8.23999 9.40001 8.23999C10.08 8.23999 10.63 8.77999 10.63 9.44999C10.63 10.12 10.08 10.66 9.40001 10.66ZM9.40001 8.56999C8.91001 8.56999 8.51001 8.96999 8.51001 9.44999C8.51001 9.92999 8.91001 10.33 9.40001 10.33C9.89001 10.33 10.29 9.92999 10.29 9.44999C10.29 8.95999 9.89001 8.56999 9.40001 8.56999Z" fill="#B38CFF"/>
<path d="M63.84 18.41C63.17 18.41 62.63 17.87 62.63 17.22C62.63 16.56 63.17 16.03 63.84 16.03C64.51 16.03 65.05 16.57 65.05 17.22C65.05 17.87 64.51 18.41 63.84 18.41ZM63.84 16.35C63.35 16.35 62.96 16.74 62.96 17.22C62.96 17.7 63.35 18.08 63.84 18.08C64.33 18.08 64.72 17.69 64.72 17.22C64.72 16.74 64.32 16.35 63.84 16.35Z" fill="#8196FC"/>
<path d="M42.09 7.94992C42.23 7.76992 42.3 7.16992 42.52 7.16992C42.74 7.16992 42.79 7.78992 42.95 7.94992C43.11 8.10992 43.74 8.14992 43.73 8.36992C43.72 8.58992 43.09 8.61992 42.95 8.79992C42.81 8.96992 42.74 9.58992 42.52 9.57992C42.3 9.56992 42.27 8.93992 42.1 8.79992C41.92 8.65992 41.31 8.58992 41.32 8.36992C41.33 8.14992 41.96 8.11992 42.09 7.94992Z" fill="#F4A517"/>
<path d="M16.68 0C16.68 0 34.8 18.96 25.42 39.71C25.32 40.11 25.26 40.53 25.26 40.97C25.26 43.81 27.56 46.11 30.4 46.11C33.24 46.11 35.54 43.81 35.54 40.97C35.54 40.96 35.45 11.15 16.68 0Z" fill="#F4A517"/>
<path opacity="0.3" d="M14.62 50.72C14.62 50.72 16.35 49.16 18.9 50.05C21.45 50.94 23.26 51.49 27.24 51.38C31.22 51.27 32.85 49.79 35.54 50.58C38.22 51.38 43.82 52.26 47.46 52.04C51.1 51.82 55.99 49.72 58.87 49.77C61.76 49.82 63.9 46.81 66.49 47.21V53.45H14.62V50.72Z" fill="black"/>
<path opacity="0.3" d="M34.07 40.8699C34.07 42.9099 32.42 44.5599 30.38 44.5599C28.34 44.5599 26.69 42.9099 26.69 40.8699C26.69 38.8299 28.34 37.1799 30.38 37.1799C32.42 37.1799 34.07 38.8299 34.07 40.8699Z" fill="black"/>
<path opacity="0.3" d="M54.41 42.2C54.41 43.85 53.08 45.18 51.43 45.18C49.78 45.18 48.45 43.85 48.45 42.2C48.45 40.55 49.78 39.22 51.43 39.22C53.08 39.22 54.41 40.55 54.41 42.2Z" fill="black"/>
<path d="M9.02001 18.0401L28.25 23.6601C29.11 23.9101 29.66 24.7101 29.64 25.5601L30.31 25.7601C30.64 25.8601 30.84 26.2101 30.74 26.5401C30.64 26.8701 30.29 27.0701 29.96 26.9701L29.33 26.7901C28.92 27.6201 27.97 28.0601 27.05 27.7901L7.81001 22.1701C6.78001 21.8701 6.19001 20.7901 6.49001 19.7701L6.61001 19.3601C6.91001 18.3301 7.99001 17.7401 9.02001 18.0401Z" fill="#A4DCFF"/>
<path d="M0.340019 17.9701C0.0400191 19.0001 0.630019 20.0701 1.66002 20.3701L7.01002 21.9301C8.04002 22.2301 9.11002 21.6401 9.41002 20.6101L9.50002 20.3001C9.80002 19.2701 9.21002 18.2001 8.18002 17.9001L2.83002 16.3401C1.80002 16.0401 0.730019 16.6301 0.430019 17.6601L0.340019 17.9701Z" fill="#F268B4"/>
<path opacity="0.2" d="M29.95 26.9702L29.32 26.7902C28.91 27.6202 27.96 28.0602 27.04 27.7902L7.81003 22.1702C7.24003 22.0002 6.81003 21.5902 6.59003 21.0802L7.00003 19.6902L30.7 26.6202C30.56 26.9002 30.25 27.0602 29.95 26.9702Z" fill="black"/>
<path d="M5.52001 20.7101C5.22001 21.7401 5.81001 22.8101 6.84001 23.1101L7.38001 23.2701C8.41001 23.5701 9.48001 22.9801 9.78001 21.9601L10.61 19.1201C10.91 18.0901 10.32 17.0201 9.29001 16.7101L8.75001 16.5501C7.72001 16.2501 6.65001 16.8401 6.34001 17.8701L5.52001 20.7101Z" fill="#F4A517"/>
<path d="M1.50001 52.4202C1.05001 51.9102 1.07001 51.8302 1.19001 51.6702C1.30001 51.5302 1.42001 51.3902 1.56001 51.2602L0.570015 50.6602C0.370015 51.0202 0.220015 51.3502 0.140015 51.6202C0.220015 51.7002 0.800015 52.4702 1.50001 52.4202Z" fill="#BE4719"/>
<path d="M0.150009 51.6101C0.150009 51.6001 0.140009 51.5901 0.140009 51.5901C-0.419991 52.4301 0.860009 52.9201 1.61001 53.0301C2.36001 53.1401 1.50001 52.4201 1.50001 52.4201C0.800009 52.4701 0.220009 51.7001 0.150009 51.6101Z" fill="#1D1B3A"/>
<path d="M0.270023 50.4601C0.140023 50.9401 1.21002 51.7101 1.51002 51.4601C4.10002 49.2601 6.87002 44.4801 7.90002 42.5201C7.95002 42.4301 7.99002 42.3501 8.03002 42.2801C8.55002 41.4401 8.84002 41.6101 10.59 37.7001C11.16 36.4401 11.5 34.2301 11.5 34.2301L9.76002 33.5101L5.87002 31.9001C4.48002 33.2201 3.90002 36.9701 3.60002 38.5101C3.35002 39.8201 3.06002 41.9301 2.79002 42.9501C1.84002 46.5101 1.14002 47.2301 0.270023 50.4601Z" fill="#EF60AE"/>
<path d="M11.62 53.3701C10.99 53.0901 10.98 53.0101 11.02 52.8101C11.06 52.6401 11.12 52.4601 11.18 52.2801L10.03 52.1401C10 52.5501 10 52.9101 10.05 53.1901C10.16 53.2601 11.01 53.7101 11.62 53.3701Z" fill="#BE4719"/>
<path d="M10.06 53.2002C10.05 53.1902 10.04 53.1802 10.04 53.1802C9.88001 54.1802 11.25 54.0902 11.98 53.8802C12.71 53.6602 11.63 53.3702 11.63 53.3702C11.01 53.7102 10.16 53.2602 10.06 53.2002Z" fill="#1D1B3A"/>
<path d="M7.56002 41.01C7.71002 41.47 7.88002 41.87 8.03002 42.28C8.55002 41.44 8.84002 41.61 10.59 37.7C11.16 36.44 11.5 34.23 11.5 34.23L9.76002 33.51L8.00002 33.64C7.29002 35.43 7.07002 39.55 7.56002 41.01Z" fill="#1D1B3A"/>
<path d="M7.74999 39.8602C8.06999 41.1502 8.78999 42.4902 8.78999 44.3002C8.78999 47.9902 9.13999 48.8102 9.68999 52.1102C9.74999 52.4902 10.56 52.7302 11 52.6502C11.07 52.6402 11.13 52.6202 11.17 52.5802C11.21 52.5602 11.24 52.5302 11.25 52.5002C12.68 49.4202 13.63 44.1902 13.76 41.9902C13.83 40.6902 13.8 40.8502 13.75 36.2102C13.74 34.8202 13.13 32.6702 13.13 32.6702L7.36999 32.8602C6.65999 34.6402 7.37999 38.3302 7.74999 39.8602Z" fill="#F268B4"/>
<path d="M10.99 52.65C11.06 52.64 11.12 52.62 11.16 52.58C12.03 50.15 12.41 47.56 12.73 45.32C13 43.42 13.31 41.27 13.32 39.15C13.33 36.83 12.95 34.79 12.21 33.07C12.2 33.04 12.16 33.02 12.12 33.04C12.09 33.05 12.07 33.09 12.08 33.13C12.82 34.82 13.19 36.86 13.19 39.15C13.18 41.26 12.88 43.41 12.6 45.31C12.27 47.57 11.89 50.2 10.99 52.65Z" fill="white"/>
<path d="M4.39001 34.9601C4.74001 33.7201 5.22001 32.5401 5.88001 31.9001L8.13001 32.8301L13.13 32.6701C13.13 32.6701 13.26 33.1301 13.4 33.7501C11.2 35.5201 7.45001 36.1601 4.39001 34.9601Z" fill="#1D1B3A"/>
<path d="M13.16 23.3401C14.04 24.4301 14.61 26.6201 13.4 33.3101C13.13 34.7801 4.13001 35.1401 4.31001 33.6501C4.87001 29.0301 6.77001 26.3301 8.74001 23.1201C9.28001 22.2601 11.43 21.1601 13.16 23.3401Z" fill="#F4A517"/>
<path d="M20.89 22.9301C20.89 22.9301 20.62 21.8601 20.43 22.1301C20.24 22.4001 20.58 22.7001 20.46 23.3301C20.34 23.9601 21.08 22.8501 21.08 22.8501L20.89 22.9301Z" fill="#BE4719"/>
<path d="M20.53 23.1802C20.53 23.1802 21.32 20.7002 21.58 21.4202C21.85 22.1402 22.01 22.7602 21.18 23.6602L20.53 23.1802Z" fill="#BE4719"/>
<path d="M11.49 23.8303C10.25 24.7103 10.27 25.5703 10.81 26.3303C11.64 27.4903 13.26 29.1803 15.95 29.0703C18.65 28.9603 21.33 23.5803 21.33 23.5803C21.33 23.5803 20.94 22.9003 20.33 22.9603C20.33 22.9603 17.84 26.7503 15.46 26.3103C14.31 26.0903 12.83 22.8703 11.49 23.8303Z" fill="#F28F19"/>
<path d="M13.96 16.7901C14.83 17.1401 15.76 18.1601 15.31 19.9501C14.85 21.7301 14.9 21.7801 15.32 22.5901C16.43 24.6701 12.44 23.4701 13.03 25.4801C14.67 31.0301 7.67 28.3901 6.66 26.5901C5.53 24.5701 5.71 21.7101 7.79 20.9801C8.48 20.7401 7.95 18.3701 9.49 18.3301C11.03 18.2901 10.59 15.4601 13.96 16.7901Z" fill="#1D1B3A"/>
<path d="M30.56 27.8701C30.56 27.8701 28.36 32.2901 30.38 32.5901C32.4 32.8801 32.05 29.8201 30.56 27.8701Z" fill="#7585F8"/>
<path d="M28.78 31.5C28.78 31.5 27.2 34.28 28.49 34.54C29.79 34.81 29.67 32.82 28.78 31.5Z" fill="#7585F8"/>
<path d="M47.01 22.78C47.15 22.6 47.22 22 47.44 22C47.66 22 47.71 22.62 47.86 22.78C48.02 22.94 48.65 22.98 48.64 23.21C48.63 23.43 48 23.46 47.86 23.64C47.72 23.81 47.65 24.43 47.44 24.42C47.22 24.4 47.19 23.78 47.01 23.64C46.83 23.5 46.21 23.43 46.23 23.21C46.25 22.98 46.88 22.95 47.01 22.78Z" fill="#F4A517"/>
<path d="M44.24 20.5701C44.27 20.9501 43.99 21.2801 43.61 21.3101C43.23 21.3401 42.9 21.0601 42.87 20.6901C42.83 20.3101 43.12 19.9801 43.5 19.9501C43.88 19.9101 44.21 20.1901 44.24 20.5701Z" fill="#B38CFF"/>
</g>
<defs>
<clipPath id="clip0_40_3440">
<rect width="83.07" height="54.02" fill="white"/>
</clipPath>
</defs>
</svg>
