<svg width="100" height="66" viewBox="0 0 100 66" fill="none" xmlns="http://www.w3.org/2000/svg">
<path d="M1.97026 63.4687H95.144C95.144 63.4687 105.842 42.2528 94.3559 27.1594C90.5574 22.1679 93.0008 9.34895 78.1633 6.03828C65.1011 3.12366 61.8268 11.0763 56.4024 11.3007C50.8002 11.5322 45.1412 4.34941 34.677 4.86975C22.107 5.49559 19.7106 13.9408 15.9193 18.8572C12.8103 22.8885 5.75095 22.4683 1.83609 32.0034C-2.37198 42.2528 1.97026 63.4687 1.97026 63.4687Z" fill="#E1E5ED"/>
<path d="M34.8941 17.9451L45.1424 19.498L54.2782 63.4685H6.23904L34.8941 17.9451Z" fill="#F2E8D0"/>
<path d="M59.7338 40.9956L57.596 15.8387L43.2507 11.4865L40.9806 14.4869L40.6731 14.2509L43.1059 11.0359L57.9585 15.5419L60.1194 40.9625L59.7338 40.9956Z" fill="#E1E5ED"/>
<path d="M45.1427 19.4982L34.7976 17.9443C34.7976 17.9443 37.0207 14.6667 38.1065 14.0266C38.7453 13.6502 43.2502 14.3735 43.5754 14.8875C44.4861 16.3306 45.1427 19.4982 45.1427 19.4982Z" fill="white"/>
<path d="M20.4545 34.2947C20.4545 34.2947 22.2537 37.947 24.2565 39.7619C25.2774 40.6872 28.6014 40.8821 32.3741 39.7833C33.7859 39.3721 36.2374 39.8897 36.1858 38.8589C36.1343 37.828 32.59 36.4789 28.9506 37.8826C25.3111 39.2862 22.5798 28.7454 22.5798 28.7454L20.4545 34.2947Z" fill="#D18D6F"/>
<path d="M1.76702 62.3976L1.69682 62.0087L95.9305 61.7163L95.7653 62.1061L1.76702 62.3976Z" fill="#E1E5ED"/>
<path d="M39.0511 42.7052L45.0132 45.5001C45.0132 45.5001 42.2907 44.4934 43.6902 43.3311C45.4015 41.9095 51.3839 38.7285 53.2667 36.522C54.9594 34.5372 56.9923 31.5358 56.9923 31.5358L68.2455 33.9507C68.2455 33.9507 75.6532 34.4701 76.4075 33.0584C77.1619 31.6467 77.5342 30.4567 77.5342 30.4567L71.1483 29.914C71.1483 29.914 57.1336 24.665 54.9389 26.6624C52.7443 28.6597 45.3668 38.2296 42.7252 41.2175C41.9095 42.1411 38.1297 40.4639 37.2839 40.7061C33.9563 41.6601 36.8929 42.3262 37.1666 42.3646C37.5291 42.4174 38.0409 42.37 39.0511 42.7052Z" fill="#D18D6F"/>
<path d="M34.1777 39.9693L37.1676 44.2894H39.1606C39.1606 44.2894 39.6031 43.3301 41.2646 42.5943C43.2958 41.6948 47.1209 39.5151 49.5288 37.9059C51.6942 36.4584 54.9951 32.8723 54.9951 32.8723L65.7365 38.065C65.7365 38.065 73.8203 37.7798 74.9274 36.6274C76.0345 35.4749 74.2042 31.6233 74.2042 31.6233L69.973 30.2411C69.973 30.2411 56.4531 27.5527 53.8018 28.875C51.1504 30.1973 42.067 38.0632 38.7181 40.217C37.6839 40.8822 34.4399 37.1513 33.5602 37.1459C32.0808 37.137 31.7921 37.1155 31.6472 37.2952C31.0697 38.0167 32.8494 38.0838 32.5722 38.0838C32.0737 38.0838 32.2043 39.0145 32.4567 39.1262C32.7908 39.2755 33.2963 39.3694 34.1777 39.9693Z" fill="#EA9E78"/>
<path d="M58.0017 29.4795C58.1199 29.4437 60.7197 29.3704 63.595 29.2676C64.0428 29.2515 62.1813 26.9404 62.6345 26.9225C63.1534 26.9028 66.4996 27.8541 66.9892 27.9677C70.3434 28.7464 70.8916 28.9305 71.2959 28.7947C72.3408 28.4442 74.3693 25.4196 74.3693 25.4196C74.3693 25.4196 75.8318 23.1201 77.2943 21.9399C78.7568 20.7598 84.2604 17.906 85.0058 17.7442C85.7513 17.5823 87.9335 18.9735 88.2765 19.8648C88.6195 20.7562 85.3968 26.2341 85.3968 26.2341C85.3968 26.2341 80.2558 33.5376 78.8448 33.5608C77.4338 33.5841 64.2543 34.159 62.9233 34.4111C61.5922 34.6632 56.5134 39.762 56.5134 39.762C56.5134 39.762 51.8024 31.3302 58.0017 29.4795Z" fill="#768BD1"/>
<path opacity="0.3" d="M88.2756 19.8639C87.9326 18.9725 85.7513 17.5814 85.0049 17.7432C84.8601 17.7745 84.5358 17.9077 84.0977 18.1097C81.2287 22.2993 78.0539 28.1097 75.025 30.5567C70.9866 33.82 59.6659 33.7557 54.8003 33.7977C54.7772 36.6533 56.5125 39.761 56.5125 39.761C56.5125 39.761 61.5922 34.6622 62.9223 34.4101C64.2533 34.158 77.4338 33.5831 78.8438 33.5599C80.2548 33.5366 85.3959 26.2331 85.3959 26.2331C85.3959 26.2331 88.6185 20.7552 88.2756 19.8639Z" fill="#768BD1"/>
<path d="M78.7944 25.2693C78.7881 25.2693 78.7828 25.2684 78.7766 25.2657C78.7517 25.2559 78.7393 25.2281 78.7491 25.2031C78.7677 25.1557 80.6194 20.4682 84.3948 19.4597C84.4205 19.4526 84.4472 19.4687 84.4543 19.4946C84.4614 19.5205 84.4454 19.5473 84.4196 19.5545C80.6905 20.5505 78.8574 25.1924 78.8388 25.2389C78.8317 25.2576 78.8139 25.2693 78.7944 25.2693Z" fill="white"/>
<path opacity="0.2" d="M76.2549 22.9474C76.2549 22.9474 87.4068 19.5482 86.9145 19.3837C86.0447 19.094 84.9784 18.9277 84.9784 18.9277C84.9784 18.9277 78.7081 20.7838 76.9728 22.0569C76.7427 22.2259 76.2549 22.9474 76.2549 22.9474Z" fill="#768BD1"/>
<path d="M91.3225 7.9856C91.3225 7.9856 90.7849 8.15636 89.5552 9.44827C88.3077 10.7589 87.5329 10.5256 87.229 10.9422C87.1055 11.1112 87.6173 11.526 87.6173 11.526C87.6173 11.526 85.8021 12.9386 85.9273 13.9319C86.0526 14.9226 87.1748 15.7656 87.1748 15.7656L85.2281 18.2949L84.0792 18.733L87.2655 19.4634C87.2655 19.4634 93.2071 15.4044 93.9516 13.8461C94.6953 12.2887 94.9966 9.48045 91.3225 7.9856Z" fill="#EA9E78"/>
<path d="M87.5221 13.0458C86.997 13.0458 86.869 12.6622 86.8681 12.6578C86.8601 12.6318 86.8744 12.605 86.8992 12.597C86.9241 12.5889 86.9517 12.6032 86.9597 12.6283C86.9641 12.6426 87.0832 12.9877 87.6092 12.9448C87.6358 12.943 87.6589 12.9626 87.6616 12.9895C87.6634 13.0163 87.6438 13.0395 87.6172 13.0422C87.5852 13.0449 87.5532 13.0458 87.5221 13.0458Z" fill="#924C12"/>
<path d="M89.7347 11.1648C89.7329 11.1648 89.732 11.1648 89.7302 11.1648C89.3366 11.129 89.1793 10.75 89.1731 10.733C89.1634 10.7079 89.1749 10.6793 89.1998 10.6695C89.2247 10.6597 89.2531 10.6713 89.2629 10.6963C89.2646 10.6999 89.4059 11.037 89.7391 11.0674C89.7658 11.07 89.7853 11.0933 89.7827 11.1201C89.78 11.146 89.7596 11.1648 89.7347 11.1648Z" fill="#924C12"/>
<path d="M92.9732 7.21486C92.9732 7.21486 90.8869 6.73297 90.9589 8.28326C90.9962 9.07718 91.9034 9.90418 92.0971 10.1661C92.4481 10.6409 90.6355 11.2551 90.8621 11.9301C91.0255 12.4183 91.8057 12.5121 91.8759 13.2157C91.9461 13.9194 91.1126 14.7133 89.7354 14.1581C88.9535 13.8425 85.857 14.7768 85.2652 17.0298C84.4309 20.2063 89.2867 21.0164 91.6999 18.6722C95.2256 15.2488 99.12 8.5622 92.9732 7.21486Z" fill="#2A3B6B"/>
<path d="M34.2747 47.9917L70.6661 47.9899C70.6661 47.9899 77.3017 48.2894 81.8012 41.8648C86.2998 35.4392 96.0229 15.1424 96.0229 15.1424C96.0229 15.1424 95.4427 12.2215 91.814 15.1424C88.1861 18.0615 81.834 32.9493 77.626 38.2617C76.1581 40.1151 72.9479 42.3019 69.1752 42.4477C67.4346 42.5147 44.4954 42.3672 33.9344 42.6381C30.2586 42.732 29.4882 47.7941 34.2747 47.9917Z" fill="white"/>
<path d="M54.2782 43.3703C54.2782 43.3703 60.5716 32.6372 63.119 31.7789C67.8717 30.1776 82.9838 30.9161 82.9838 30.9161C82.9838 30.9161 81.8998 39.5258 78.2631 41.8629C74.6263 44.1999 54.2782 43.3703 54.2782 43.3703Z" fill="white"/>
<path d="M55.9866 44.0947H33.5122V43.9972H55.928C56.207 43.4635 60.5874 35.1461 63.4911 33.5377C67.8191 31.1398 82.184 32.5551 82.957 32.6338C83.2298 32.1591 86.9447 25.6852 89.8768 20.396C92.6348 15.4197 95.8531 14.7358 95.8851 14.7295L95.9037 14.8252C95.8717 14.8314 92.6952 15.5109 89.9612 20.4443C86.9314 25.9105 83.0636 32.6427 83.0254 32.7098L83.0094 32.7375L82.9783 32.7339C82.8281 32.7178 67.9373 31.1863 63.5382 33.6235C60.5785 35.2632 56.0452 43.9811 55.9999 44.0687L55.9866 44.0947Z" fill="#768BD1"/>
<path d="M67.6015 56.4593H49.8639C48.8962 56.4593 48.1703 56.4593 47.9286 54.9501V47.989H69.3111V54.7069C69.3111 55.6475 68.8277 56.4593 67.6015 56.4593Z" fill="white"/>
<path opacity="0.6" d="M47.9286 47.989H69.3111V54.1875L47.934 52.2241L47.9286 47.989Z" fill="#D6D7D8"/>
<path opacity="0.6" d="M79.4213 30.7471C79.4213 30.7471 76.5025 31.9201 73.4709 31.8093C70.4392 31.6984 70.0465 34.6363 68.6302 35.634C67.2139 36.6309 63.8597 36.1758 65.7309 33.1906C67.6013 30.2053 71.6654 29.491 73.2781 29.719C74.8907 29.9461 79.4213 30.7471 79.4213 30.7471Z" fill="#D6D7D8"/>
<path d="M65.9898 31.0495C65.9898 31.0495 64.426 33.4831 64.474 34.0187C64.522 34.5542 65.0542 34.0187 65.0542 34.0187C65.0542 34.0187 64.522 35.0406 64.8605 35.1872C65.199 35.3329 65.5376 34.4568 65.5376 34.4568C65.5376 34.4568 65.4896 35.0406 65.8281 34.9431C66.1667 34.8457 66.602 34.1644 66.602 34.1644C66.602 34.1644 66.5541 34.5292 66.8926 34.6266C67.2311 34.7241 69.4569 31.2918 70.2788 31.0004C71.1015 30.708 78.3386 30.8555 79.18 30.8001C82.0615 30.6106 85.8955 24.7375 87.2648 21.5896C87.7232 20.5355 86.7272 18.0849 84.5983 19.594C82.4694 21.1032 78.3573 27.4438 78.3573 27.4438C78.3573 27.4438 72.7515 27.6566 69.2143 28.7903C68.0059 29.1783 66.2973 30.4434 65.9898 31.0495Z" fill="#EA9E78"/>
<path d="M66.6018 34.2135C66.6 34.2135 66.5973 34.2135 66.5955 34.2135C66.5689 34.21 66.5502 34.1858 66.5538 34.159C66.6035 33.7621 68.0492 31.7397 68.1105 31.6539C68.1265 31.6324 68.1567 31.6271 68.178 31.6431C68.1993 31.6592 68.2047 31.6896 68.1887 31.7111C67.7737 32.2904 66.6879 33.8622 66.6497 34.1715C66.6471 34.1957 66.6257 34.2135 66.6018 34.2135Z" fill="#924C12"/>
<path d="M47.1901 63.5643L61.1853 63.6188L65.731 56.4592H51.7021L47.1901 63.5643Z" fill="white"/>
<path opacity="0.6" d="M51.7021 56.4592H65.7311L63.2556 60.3582L49.8228 59.4185L51.7021 56.4592Z" fill="#D6D7D8"/>
<path d="M79.2764 27.4474H78.4056C78.379 27.4474 78.3577 27.4259 78.3577 27.3991C78.3577 27.3723 78.379 27.3508 78.4056 27.3508H79.2764C79.303 27.3508 79.3244 27.3723 79.3244 27.3991C79.3253 27.425 79.303 27.4474 79.2764 27.4474Z" fill="#924C12"/>
<path d="M89.9016 10.0642C89.7541 9.94614 89.8288 9.70027 90.0163 9.6958C90.0189 9.6958 90.0216 9.6958 90.0234 9.6958C90.273 9.6958 90.7244 10.7204 90.7244 10.7204L89.9016 10.0642Z" fill="#2A3B6B"/>
<path d="M91.371 13.7736C91.3683 13.7736 91.3657 13.7736 91.363 13.7727C91.3364 13.7683 91.3186 13.7432 91.323 13.7164C91.3541 13.5313 91.3204 13.3829 91.2235 13.2729C91.0058 13.0262 90.5393 13.0459 90.534 13.0459C90.5074 13.0468 90.4843 13.0262 90.4834 12.9994C90.4825 12.9725 90.5029 12.9493 90.5296 12.9484C90.5509 12.9475 91.0476 12.9269 91.2955 13.2077C91.4128 13.3409 91.4536 13.517 91.4181 13.7325C91.4145 13.7566 91.3941 13.7736 91.371 13.7736Z" fill="#924C12"/>
<path d="M90.5328 13.7736C90.5079 13.7736 90.4866 13.754 90.4848 13.7289C90.483 13.7021 90.5026 13.6789 90.5292 13.6771C90.547 13.6753 90.9442 13.6351 90.9095 13.0602C90.9077 13.0334 90.9282 13.0101 90.9548 13.0083C90.9833 13.0074 91.0046 13.0271 91.0064 13.0539C91.0472 13.728 90.5417 13.7736 90.5363 13.7745C90.5354 13.7736 90.5337 13.7736 90.5328 13.7736Z" fill="#924C12"/>
<path d="M65.4862 34.6255C65.4835 34.6255 65.48 34.6255 65.4773 34.6246C65.4506 34.6202 65.4338 34.5942 65.4382 34.5683C65.5848 33.7708 67.0784 31.415 67.1424 31.3148C67.1566 31.2925 67.1868 31.2853 67.209 31.3005C67.2313 31.3148 67.2384 31.3452 67.2233 31.3676C67.2082 31.3917 65.6763 33.8075 65.5333 34.5862C65.5288 34.6094 65.5093 34.6255 65.4862 34.6255Z" fill="#924C12"/>
<path d="M65.0541 34.0677C65.0488 34.0677 65.0434 34.0668 65.0381 34.065C65.0132 34.0561 64.9999 34.0284 65.0088 34.0024C65.5534 32.4718 66.8729 30.7347 66.8862 30.7177C66.9022 30.6962 66.9333 30.6926 66.9538 30.7087C66.9751 30.7248 66.9786 30.7561 66.9626 30.7767C66.9493 30.7937 65.6387 32.5183 65.0994 34.0355C65.0923 34.0552 65.0736 34.0677 65.0541 34.0677Z" fill="#924C12"/>
<path d="M22.5788 64.6372H13.6775V65.5134H22.5788V64.6372Z" fill="#855A36"/>
<path d="M9.80743 19.0833C12.7271 18.858 16.3914 14.3618 16.0316 12.0256C15.6717 9.68945 11.3544 11.3381 9.82609 13.381C7.83579 16.0426 7.26624 19.2791 9.80743 19.0833Z" fill="#E1E5ED"/>
<path d="M49.0636 3.49726C49.3577 5.47132 51.6057 7.84593 55.7178 7.84593C60.1649 7.84593 63.0677 4.64075 62.3595 3.05291C60.817 -0.412438 48.3546 -1.26715 49.0636 3.49726Z" fill="#E1E5ED"/>
<path d="M42.6408 1.42847C42.2685 0.685511 44.815 -0.450831 45.995 0.187523C47.756 1.14058 43.4413 3.02435 42.6408 1.42847Z" fill="#E1E5ED"/>
<path d="M72.02 45.3606H71.343V64.9287H72.02V45.3606Z" fill="#768BD1"/>
<path d="M87.0166 45.2629H86.3395V64.8311H87.0166V45.2629Z" fill="#768BD1"/>
<path d="M87.0175 52.0784H71.6335V52.4682H87.0175V52.0784Z" fill="#768BD1"/>
<path d="M89.7269 44.0945H68.1508V45.5545H89.7269V44.0945Z" fill="#768BD1"/>
<path d="M76.1801 37.6699H72.8908V44.0955H76.1801V37.6699Z" fill="#5670D1"/>
<path opacity="0.3" d="M72.8908 44.0946V37.6699H76.181L72.8908 44.0946Z" fill="#5670D1"/>
<path d="M79.1799 42.1482H89.9195L88.3015 44.0945H81.0182L79.1799 42.1482Z" fill="#D6D7D8"/>
<path d="M70.7629 44.1437C69.7758 44.1437 68.9725 43.3623 68.9725 42.4012C68.9725 41.4401 69.7758 40.6587 70.7629 40.6587C71.7501 40.6587 72.5533 41.4401 72.5533 42.4012C72.5533 43.3623 71.7492 44.1437 70.7629 44.1437ZM70.7629 40.7553C69.8291 40.7553 69.0694 41.4937 69.0694 42.4003C69.0694 43.3078 69.8291 44.0454 70.7629 44.0454C71.6968 44.0454 72.4565 43.3069 72.4565 42.4003C72.4556 41.4937 71.6959 40.7553 70.7629 40.7553Z" fill="#768BD1"/>
<path d="M72.5044 42.1482H70.2786V42.732H72.5044V42.1482Z" fill="#768BD1"/>
<path d="M71.2462 39.5188H70.5691V40.6873H71.2462V39.5188Z" fill="#768BD1"/>
<path d="M75.2126 36.209H73.8585V37.669H75.2126V36.209Z" fill="#C7CCD8"/>
<path d="M78.3092 41.6609H76.8582V44.0945H78.3092V41.6609Z" fill="#C7CCD8"/>
<path d="M77.8247 39.7136H77.2445V41.6609H77.8247V39.7136Z" fill="#5670D1"/>
<path d="M82.9834 42.1482C82.9834 42.1482 83.5876 41.4177 84.4077 41.3695C85.227 41.3212 86.0497 46.6265 86.0497 46.6265C86.0497 46.6265 84.5019 48.7687 83.728 48.6712C82.9541 48.5737 81.6018 44.0954 81.6018 44.0954C81.6018 44.0954 82.7711 42.7803 82.9834 42.1482Z" fill="white"/>
<path d="M83.5479 41.7109C83.5479 41.7109 84.6701 46.3815 84.0428 46.4467C83.4155 46.5111 83.5479 41.7109 83.5479 41.7109Z" fill="#C7CCD8"/>
<path d="M83.1612 43.5938C83.1612 43.5938 82.3633 47.203 82.7356 47.1762C83.1079 47.1476 83.1612 43.5938 83.1612 43.5938Z" fill="#C7CCD8"/>
<path d="M38.8391 60.6487C38.8391 60.6487 41.2683 61.7162 41.5908 62.2026C41.9134 62.6889 42.3967 64.1659 43.6229 64.393C44.8482 64.6201 49.186 58.9572 49.186 58.9572C49.186 58.9572 48.3232 58.1579 47.5413 58.5674C46.5097 59.1074 45.1441 60.4377 44.0121 60.2544C42.6242 60.03 39.4673 57.1226 39.4673 57.1226L38.8391 60.6487Z" fill="#EA9E78"/>
<path d="M39.5345 61.0805L41.2138 58.4127L28.8437 47.2102C28.8437 47.2102 22.1682 44.7471 21.7213 46.4538C21.5303 47.1816 13.1168 44.7346 13.7859 45.8512C14.6859 47.3541 25.9658 51.3058 25.9658 51.3058C25.9658 51.3058 30.8714 55.6286 33.3459 57.296C34.8928 58.3403 39.5345 61.0805 39.5345 61.0805Z" fill="#2A3B6B"/>
<path d="M45.7401 60.1051L47.1359 61.4488L48.4065 60.1122L47.0107 58.7685C46.7779 58.5441 46.4082 58.553 46.1852 58.7872L45.7214 59.2754C45.4984 59.5088 45.5073 59.8807 45.7401 60.1051Z" fill="#855A36"/>
<path d="M49.3328 58.5756L43.1803 65.0486L43.8095 65.6542L49.9621 59.1812L49.3328 58.5756Z" fill="#855A36"/>
<path d="M33.5085 34.1562C33.5085 34.1562 34.0843 37.4106 33.8959 37.0959C33.7084 36.7812 33.1246 34.2072 33.1246 34.2072L33.5085 34.1562Z" fill="#36467D"/>
<path d="M14.0648 64.637H22.289C22.289 64.637 21.9603 63.6535 21.6902 63.4685C20.7492 62.8221 17.897 63.0742 17.403 61.911C17.1551 61.3281 18.5181 59.8663 18.5181 59.8663L16.032 59.1851C16.032 59.1851 12.2264 63.371 14.0648 64.637Z" fill="#EA9E78"/>
<path d="M21.4962 23.9003L23.5754 20.8615C23.5754 20.8615 24.9206 17.9603 26.7377 17.5195C28.5547 17.0787 30.3513 18.0532 30.1354 19.4301C29.9195 20.8069 29.1011 21.7555 29.1056 22.7291C29.1109 23.8682 29.1909 24.1355 28.7511 24.0023C28.5725 23.9477 28.337 23.8181 28.337 23.8181C28.337 23.8181 26.6355 25.8127 25.9549 25.6062C25.2743 25.3997 21.4962 23.9003 21.4962 23.9003Z" fill="#EA9E78"/>
<path d="M24.4207 15.5008C24.4207 15.5008 23.4566 14.563 23.5162 13.7253C23.5757 12.8875 23.9702 11.694 25.3163 11.3658C27.1191 10.9269 28.0974 11.9291 28.2467 13.373C28.396 14.8151 27.7109 15.1602 27.7109 15.1602L24.4207 15.5008Z" fill="#855A36"/>
<path d="M23.4495 31.1118C23.4495 31.1118 24.0431 38.7756 26.0467 39.5517C28.6012 40.5414 30.3863 37.7966 32.102 36.3358C32.7586 35.7761 33.2349 35.5445 33.5272 35.4953C33.8604 35.4399 33.7342 36.4779 33.8791 36.4001C34.0541 36.3063 34.4984 35.2245 34.1385 34.3232C34.0523 34.1069 33.2455 33.2531 32.7151 33.4515C32.3259 33.5964 32.2815 33.7046 32.062 33.7761C31.9128 33.8244 32.5481 32.9777 31.7715 33.1923C31.6489 33.2262 30.8927 34.232 30.7683 34.3C29.6834 34.8928 28.2884 35.8297 28.2884 35.8297C28.2884 35.8297 28.1765 28.1301 26.8775 26.3778C25.5784 24.6237 23.4495 31.1118 23.4495 31.1118Z" fill="#EA9E78"/>
<path d="M9.80695 36.7936C9.80695 36.7936 18.8024 39.7092 18.9019 38.7409C18.9819 37.9622 23.4494 31.1119 23.4494 31.1119C23.4494 31.1119 23.5072 32.6587 23.9417 34.9304C23.9417 34.9304 28.2679 34.5219 28.155 32.8625C27.9933 30.4941 27.8938 26.6488 27.1297 25.6189C25.8315 23.8665 20.6896 21.5715 18.4639 22.8294C16.239 24.0874 9.80695 36.7936 9.80695 36.7936Z" fill="#5670D1"/>
<path d="M9.82651 36.8142C9.82651 36.8142 7.43548 42.5066 9.81673 45.2809C12.198 48.0551 24.4659 46.7722 24.4659 46.7722C24.4659 46.7722 20.3058 51.0556 19.1445 52.6622C17.9166 54.3609 16.0746 58.0113 15.3647 59.4507C15.179 59.8262 15.0715 60.0515 15.0715 60.0515L17.7033 61.0815C17.7033 61.0815 32.157 46.9671 31.1414 44.5826C30.1471 42.2483 19.8544 40.546 19.8544 40.546L18.9019 38.7409L9.82651 36.8142Z" fill="#36467D"/>
<path d="M11.7645 37.5338C11.7645 37.5338 11.1621 40.7846 12.8077 42.5369C14.4523 44.2893 18.9829 44.8328 21.318 43.608C23.1377 42.6531 24.2572 41.465 24.2572 41.465L18.903 38.7399L22.9022 33.3103L22.4944 32.8615L23.4504 31.1118L20.8702 34.165L17.8705 37.8646L10.3562 35.8092L9.82664 36.815L11.7645 37.5338Z" fill="#768BD1"/>
<path d="M22.0264 26.1875L21.9518 25.4928L21.3414 25.1611L21.9749 24.875L22.1002 24.1875L22.5658 24.7052L23.2535 24.6122L22.9078 25.2183L23.2082 25.8478L22.5284 25.7047L22.0264 26.1875ZM21.5599 25.1692L22.0433 25.432L22.102 25.981L22.4991 25.6001L23.0367 25.7136L22.7994 25.2157L23.0722 24.7364L22.5284 24.8098L22.1597 24.4003L22.0611 24.9439L21.5599 25.1692Z" fill="#5670D1"/>
<path d="M16.4141 28.8159L16.3394 28.1212L15.729 27.7895L16.3625 27.5034L16.4878 26.8159L16.9534 27.3336L17.6411 27.2406L17.2955 27.8468L17.5958 28.4762L16.9161 28.3331L16.4141 28.8159ZM15.9476 27.7976L16.431 28.0604L16.4896 28.6094L16.8868 28.2285L17.4243 28.3421L17.1871 27.8441L17.4599 27.3649L16.9161 27.4382L16.5474 27.0287L16.4487 27.5723L15.9476 27.7976Z" fill="#5670D1"/>
<path d="M20.5749 30.5684L20.5002 29.8737L19.8898 29.542L20.5234 29.2559L20.6486 28.5684L21.1142 29.086L21.8019 28.993L21.4563 29.5992L21.7566 30.2286L21.0769 30.0856L20.5749 30.5684ZM20.1075 29.55L20.5909 29.8129L20.6495 30.3618L21.0467 29.981L21.5843 30.0945L21.347 29.5965L21.6198 29.1173L21.076 29.1906L20.7073 28.7811L20.6087 29.3247L20.1075 29.55Z" fill="#5670D1"/>
<path d="M25.4124 29.6921L25.3378 28.9975L24.7274 28.6658L25.3609 28.3797L25.4862 27.6921L25.9518 28.2098L26.6395 28.1168L26.2939 28.723L26.5942 29.3524L25.9145 29.2093L25.4124 29.6921ZM24.946 28.6738L25.4293 28.9367L25.488 29.4856L25.8851 29.1047L26.4227 29.2183L26.1855 28.7203L26.4582 28.2411L25.9145 28.3144L25.5457 27.9049L25.4471 28.4485L24.946 28.6738Z" fill="#5670D1"/>
<path d="M25.0257 33.8782L24.9511 33.1835L24.3407 32.8518L24.9742 32.5657L25.0995 31.8782L25.5651 32.3958L26.2528 32.3028L25.9071 32.909L26.2075 33.5384L25.5277 33.3954L25.0257 33.8782ZM24.5584 32.8598L25.0417 33.1227L25.1004 33.6716L25.4975 33.2908L26.0351 33.4043L25.7979 32.9063L26.0706 32.4271L25.5269 32.5004L25.1581 32.091L25.0595 32.6345L24.5584 32.8598Z" fill="#5670D1"/>
<path d="M18.5433 25.7002L18.4686 25.0055L17.8582 24.6738L18.4917 24.3877L18.617 23.7002L19.0826 24.2179L19.7703 24.1249L19.4247 24.731L19.725 25.3605L19.0453 25.2174L18.5433 25.7002ZM18.0759 24.6819L18.5593 24.9447L18.6179 25.4937L19.0151 25.1128L19.5526 25.2263L19.3154 24.7284L19.5882 24.2491L19.0444 24.3225L18.6757 23.913L18.577 24.4566L18.0759 24.6819Z" fill="#5670D1"/>
<path d="M15.7373 33.0019L15.6627 32.3073L15.0523 31.9756L15.6858 31.6895L15.8111 31.002L16.2767 31.5196L16.9644 31.4266L16.6187 32.0328L16.9191 32.6622L16.2393 32.5192L15.7373 33.0019ZM15.2708 31.9836L15.7542 32.2465L15.8128 32.7954L16.21 32.4146L16.7476 32.5281L16.5103 32.0301L16.7831 31.5509L16.2393 31.6242L15.8706 31.2147L15.772 31.7583L15.2708 31.9836Z" fill="#5670D1"/>
<path d="M16.6079 36.8965L16.5332 36.2018L15.9228 35.8701L16.5563 35.584L16.6816 34.8965L17.1472 35.4141L17.8349 35.3212L17.4893 35.9273L17.7896 36.5567L17.1099 36.4137L16.6079 36.8965ZM16.1414 35.8782L16.6248 36.141L16.6834 36.69L17.0806 36.3091L17.6181 36.4226L17.3809 35.9246L17.6537 35.4454L17.1099 35.5187L16.7412 35.1093L16.6425 35.6529L16.1414 35.8782Z" fill="#5670D1"/>
<path d="M12.448 36.2151L12.3733 35.5204L11.7629 35.1887L12.3964 34.9026L12.5217 34.2151L12.9873 34.7327L13.675 34.6398L13.3294 35.2459L13.6297 35.8753L12.95 35.7323L12.448 36.2151ZM11.9806 35.1968L12.464 35.4596L12.5226 36.0086L12.9198 35.6277L13.4573 35.7412L13.2201 35.2432L13.4929 34.764L12.9491 34.8373L12.5804 34.4279L12.4817 34.9715L11.9806 35.1968Z" fill="#5670D1"/>
<path opacity="0.1" d="M22.1007 22.7588C20.7155 22.3914 19.3667 22.3279 18.48 22.8295C16.2542 24.0874 9.82218 36.7937 9.82218 36.7937C9.82218 36.7937 9.87726 36.8116 9.97767 36.8437L9.84083 36.8151C9.84083 36.8151 7.44981 42.5076 9.83106 45.2818C10.2362 45.7548 10.9293 46.1088 11.7992 46.3726C15.0458 41.4213 20.8852 28.1822 22.1007 22.7588Z" fill="#36467D"/>
<path d="M29.2243 21.3845C29.3762 21.0564 28.7027 21.3487 28.4237 21.4033C28.3251 21.4229 28.2584 21.4373 28.2584 21.4373C28.2584 21.4373 29.0865 21.6813 29.2243 21.3845Z" fill="#924C12"/>
<path d="M26.3899 20.9268C26.389 20.9268 26.3881 20.9268 26.3872 20.9268C26.3606 20.925 26.3401 20.9026 26.341 20.8758C26.3632 20.4315 26.15 20.3304 26.1411 20.326C26.1171 20.3152 26.1056 20.2866 26.1162 20.2616C26.1269 20.2375 26.1544 20.2258 26.1793 20.2357C26.1908 20.241 26.4636 20.3626 26.4379 20.8803C26.4361 20.9071 26.4148 20.9268 26.3899 20.9268Z" fill="#924C12"/>
<path d="M27.5312 24.4798C27.5241 24.4798 27.517 24.4781 27.5099 24.4745C27.1856 24.3153 27.2113 23.9291 27.2131 23.9121C27.2149 23.8853 27.2389 23.8647 27.2647 23.8674C27.2913 23.8692 27.3109 23.8925 27.3091 23.9193C27.3082 23.9327 27.2878 24.2572 27.5517 24.386C27.5756 24.3976 27.5854 24.4271 27.5739 24.4512C27.5659 24.47 27.549 24.4798 27.5312 24.4798Z" fill="#924C12"/>
<path d="M23.1997 48.2169L23.125 48.1552C25.2468 45.541 26.4055 45.5061 26.4543 45.5061L26.4552 45.6036C26.4428 45.6036 25.2841 45.6483 23.1997 48.2169Z" fill="#36467D"/>
<path d="M23.4492 31.1602C23.4252 31.1602 23.4039 31.1423 23.4012 31.1173L23.1142 28.7185C23.1107 28.6917 23.1302 28.6676 23.1569 28.664C23.1836 28.6604 23.2075 28.6801 23.2111 28.7069L23.4981 31.1057C23.5016 31.1325 23.4821 31.1566 23.4554 31.1602C23.4537 31.1602 23.451 31.1602 23.4492 31.1602Z" fill="#5670D1"/>
<path d="M27.4348 36.4522C27.4188 36.4522 27.4037 36.4441 27.3948 36.4307C27.3797 36.4083 27.3859 36.3779 27.4081 36.3627L28.2611 35.7879C28.2833 35.7727 28.3135 35.7789 28.3286 35.8013C28.3437 35.8236 28.3375 35.854 28.3153 35.8692L27.4623 36.4441C27.4534 36.4495 27.4437 36.4522 27.4348 36.4522Z" fill="#924C12"/>
<path d="M18.9987 63.0823V65.0259H20.837V63.0823C20.837 62.7577 20.5758 62.4949 20.2533 62.4949H19.5824C19.2599 62.4949 18.9987 62.7577 18.9987 63.0823Z" fill="#855A36"/>
<path d="M17.9343 46.7239H9.80695V48.1839H17.9343V46.7239Z" fill="#768BD1"/>
<path d="M11.3549 47.7939H10.6779V65.6097H11.3549V47.7939Z" fill="#768BD1"/>
<path d="M17.0635 48.1838H16.3864V65.9996H17.0635V48.1838Z" fill="#768BD1"/>
<path d="M16.87 54.512H10.9684V54.9018H16.87V54.512Z" fill="#768BD1"/>
<path d="M22.1199 22.3958C22.494 23.17 22.1199 22.3958 23.5487 22.1007C24.9774 21.8057 25.3 20.8419 25.5417 20.2787C25.7842 19.7154 26.0481 19.4427 26.4195 19.7467C26.7909 20.0507 26.5484 21.0055 27.3622 20.8723C28.1753 20.7391 28.3627 19.2514 28.8292 19.0556C29.2957 18.8607 30.0634 19.71 30.3672 18.4065C30.6711 17.103 29.3099 14.5022 25.7931 15.0645C22.3003 15.6233 21.1754 20.4378 22.1199 22.3958Z" fill="#855A36"/>
<path opacity="0.3" d="M23.516 13.7253C23.4564 14.563 24.4205 15.5009 24.4205 15.5009L24.5413 15.4884C22.041 16.8375 21.2991 20.6944 22.1201 22.3949C22.4941 23.1692 22.1201 22.3949 23.5488 22.0999C24.9776 21.8048 25.3001 20.841 25.5418 20.2778C25.6244 20.0856 25.7097 19.9282 25.8012 19.8156C26.0882 16.6712 25.5907 12.8759 25.357 11.3569C25.3437 11.3605 25.3303 11.3623 25.317 11.3659C23.97 11.6931 23.5764 12.8867 23.516 13.7253Z" fill="#924C12"/>
<path d="M29.3822 19.1038L29.2951 19.0618C30.0859 17.3988 27.3101 15.0797 27.2817 15.0564L27.2586 15.0376L27.2648 15.009C27.2693 14.9903 27.6611 13.0975 26.9503 12.0336C26.7015 11.6608 26.3434 11.431 25.8849 11.3488L25.6664 11.2969L25.9249 11.2683C26.4101 11.355 26.7664 11.5839 27.0303 11.9791C27.7233 13.0171 27.415 14.7462 27.3643 15.0001C27.6531 15.2424 30.1756 17.4337 29.3822 19.1038Z" fill="#924C12"/>
<path d="M27.6015 20.7863L27.6468 20.7059C27.6548 20.6898 28.4838 19.059 28.1106 17.6258C27.813 16.4841 26.2589 15.0554 26.2429 15.0411L26.2243 15.0242L26.227 14.9991C26.2305 14.9678 26.5841 11.8431 25.3402 11.4014L25.238 11.3845C25.238 11.3845 25.4237 11.329 25.4486 11.3398C26.6312 11.878 26.3602 14.6683 26.3256 14.9857C26.5122 15.1583 27.9134 16.4859 28.203 17.6008C28.5327 18.8659 27.9516 20.2749 27.7783 20.6522C27.7517 20.7148 27.6015 20.7863 27.6015 20.7863Z" fill="#924C12"/>
<path d="M33.0155 33.669L33.299 33.6118C33.299 33.6118 32.8094 30.8098 32.6184 30.9591C32.4264 31.1066 33.0155 33.669 33.0155 33.669Z" fill="#5670D1"/>
<path d="M28.8092 22.1508C28.5435 22.0784 28.1756 22.1606 28.1596 22.1642C28.1339 22.1705 28.117 22.1964 28.1232 22.2223C28.1285 22.2447 28.1481 22.2599 28.1703 22.2599C28.1739 22.2599 28.1774 22.2599 28.181 22.259C28.1827 22.259 28.2378 22.2465 28.3196 22.2357C28.3178 22.2438 28.3169 22.2536 28.3178 22.2644C28.3214 22.4217 28.3134 22.4843 28.3711 22.4932C28.4493 22.5058 28.6519 22.3144 28.6865 22.2268C28.7203 22.2313 28.7532 22.2366 28.7843 22.2456C28.81 22.2527 28.8367 22.2375 28.8438 22.2116C28.85 22.1848 28.8349 22.158 28.8092 22.1508Z" fill="#924C12"/>
<path d="M25.2773 22.7784C24.7389 22.7784 24.3008 22.3376 24.3008 21.7958C24.3008 21.254 24.7389 20.8132 25.2773 20.8132C25.8158 20.8132 26.2538 21.254 26.2538 21.7958C26.2538 22.3376 25.8158 22.7784 25.2773 22.7784ZM25.2773 20.9107C24.7922 20.9107 24.3977 21.3076 24.3977 21.7958C24.3977 22.2839 24.7922 22.6809 25.2773 22.6809C25.7625 22.6809 26.157 22.2839 26.157 21.7958C26.157 21.3076 25.7625 20.9107 25.2773 20.9107Z" fill="white"/>
</svg>
